Hubballi-Regular.ufo
<glyph name="quotedbl" format="1">
  <advance width="414"/>
  <unicode hex="0022"/>
  <outline>
    <contour>
      <point x="155" y="597" type="curve" smooth="yes"/>
      <point x="160" y="584"/>
      <point x="163" y="562"/>
      <point x="163" y="537" type="curve" smooth="yes"/>
      <point x="163" y="484"/>
      <point x="144" y="430"/>
      <point x="114" y="391" type="curve" smooth="yes"/>
      <point x="103" y="377"/>
      <point x="82" y="374"/>
      <point x="68" y="385" type="curve" smooth="yes"/>
      <point x="54" y="396"/>
      <point x="51" y="417"/>
      <point x="62" y="431" type="curve" smooth="yes"/>
      <point x="84" y="460"/>
      <point x="97" y="498"/>
      <point x="97" y="537" type="curve" smooth="yes"/>
      <point x="97" y="552"/>
      <point x="96" y="566"/>
      <point x="93" y="575" type="curve" smooth="yes"/>
      <point x="87" y="591"/>
      <point x="96" y="611"/>
      <point x="113" y="617" type="curve" smooth="yes"/>
      <point x="129" y="623"/>
      <point x="149" y="614"/>
    </contour>
    <contour>
      <point x="315" y="588" type="curve" smooth="yes"/>
      <point x="319" y="572"/>
      <point x="322" y="551"/>
      <point x="322" y="529" type="curve" smooth="yes"/>
      <point x="322" y="474"/>
      <point x="304" y="428"/>
      <point x="273" y="387" type="curve" smooth="yes"/>
      <point x="263" y="373"/>
      <point x="242" y="370"/>
      <point x="227" y="381" type="curve" smooth="yes"/>
      <point x="213" y="391"/>
      <point x="210" y="412"/>
      <point x="221" y="427" type="curve" smooth="yes"/>
      <point x="242" y="456"/>
      <point x="256" y="490"/>
      <point x="256" y="529" type="curve" smooth="yes"/>
      <point x="256" y="543"/>
      <point x="255" y="558"/>
      <point x="251" y="568" type="curve" smooth="yes"/>
      <point x="246" y="585"/>
      <point x="256" y="604"/>
      <point x="273" y="610" type="curve" smooth="yes"/>
      <point x="290" y="615"/>
      <point x="309" y="605"/>
    </contour>
  </outline>
</glyph>
<glyph name="numbersign" format="1">
  <advance width="586"/>
  <unicode hex="0023"/>
  <outline>
    <contour>
      <point x="507" y="506" type="curve" smooth="yes"/>
      <point x="331" y="22" type="line" smooth="yes"/>
      <point x="325" y="5"/>
      <point x="305" y="-4"/>
      <point x="289" y="2" type="curve" smooth="yes"/>
      <point x="272" y="8"/>
      <point x="263" y="28"/>
      <point x="269" y="44" type="curve" smooth="yes"/>
      <point x="445" y="528" type="line" smooth="yes"/>
      <point x="451" y="545"/>
      <point x="471" y="554"/>
      <point x="487" y="548" type="curve" smooth="yes"/>
      <point x="504" y="542"/>
      <point x="513" y="522"/>
    </contour>
    <contour>
      <point x="307" y="506" type="curve" smooth="yes"/>
      <point x="131" y="22" type="line" smooth="yes"/>
      <point x="125" y="5"/>
      <point x="105" y="-4"/>
      <point x="89" y="2" type="curve" smooth="yes"/>
      <point x="72" y="8"/>
      <point x="63" y="28"/>
      <point x="69" y="44" type="curve" smooth="yes"/>
      <point x="245" y="528" type="line" smooth="yes"/>
      <point x="251" y="545"/>
      <point x="271" y="554"/>
      <point x="287" y="548" type="curve" smooth="yes"/>
      <point x="304" y="542"/>
      <point x="313" y="522"/>
    </contour>
    <contour>
      <point x="527" y="355" type="curve" smooth="yes"/>
      <point x="123" y="355" type="line" smooth="yes"/>
      <point x="105" y="355"/>
      <point x="90" y="370"/>
      <point x="90" y="388" type="curve" smooth="yes"/>
      <point x="90" y="406"/>
      <point x="105" y="421"/>
      <point x="123" y="421" type="curve" smooth="yes"/>
      <point x="527" y="421" type="line" smooth="yes"/>
      <point x="545" y="421"/>
      <point x="560" y="406"/>
      <point x="560" y="388" type="curve" smooth="yes"/>
      <point x="560" y="370"/>
      <point x="545" y="355"/>
    </contour>
    <contour>
      <point x="458" y="155" type="curve" smooth="yes"/>
      <point x="54" y="155" type="line" smooth="yes"/>
      <point x="36" y="155"/>
      <point x="21" y="170"/>
      <point x="21" y="188" type="curve" smooth="yes"/>
      <point x="21" y="206"/>
      <point x="36" y="221"/>
      <point x="54" y="221" type="curve" smooth="yes"/>
      <point x="458" y="221" type="line" smooth="yes"/>
      <point x="476" y="221"/>
      <point x="491" y="206"/>
      <point x="491" y="188" type="curve" smooth="yes"/>
      <point x="491" y="170"/>
      <point x="476" y="155"/>
    </contour>
  </outline>
</glyph>
<glyph name="dollar" format="1">
  <advance width="584"/>
  <unicode hex="0024"/>
  <outline>
    <contour>
      <point x="431" y="463" type="curve" smooth="yes"/>
      <point x="380" y="481"/>
      <point x="344" y="491"/>
      <point x="270" y="491" type="curve" smooth="yes"/>
      <point x="203" y="491"/>
      <point x="147" y="462"/>
      <point x="147" y="420" type="curve" smooth="yes"/>
      <point x="147" y="378"/>
      <point x="183" y="340"/>
      <point x="299" y="321" type="curve" smooth="yes"/>
      <point x="472" y="287"/>
      <point x="514" y="220"/>
      <point x="514" y="146" type="curve" smooth="yes"/>
      <point x="514" y="71"/>
      <point x="459" y="-9"/>
      <point x="293" y="-9" type="curve" smooth="yes"/>
      <point x="219" y="-9"/>
      <point x="149" y="6"/>
      <point x="85" y="37" type="curve" smooth="yes"/>
      <point x="69" y="45"/>
      <point x="62" y="65"/>
      <point x="69" y="81" type="curve" smooth="yes"/>
      <point x="77" y="97"/>
      <point x="97" y="104"/>
      <point x="113" y="97" type="curve" smooth="yes"/>
      <point x="169" y="70"/>
      <point x="229" y="57"/>
      <point x="293" y="57" type="curve" smooth="yes"/>
      <point x="389" y="57"/>
      <point x="448" y="93"/>
      <point x="448" y="146" type="curve" smooth="yes"/>
      <point x="448" y="200"/>
      <point x="396" y="235"/>
      <point x="289" y="255" type="curve" smooth="yes"/>
      <point x="97" y="288"/>
      <point x="81" y="362"/>
      <point x="81" y="420" type="curve" smooth="yes"/>
      <point x="81" y="484"/>
      <point x="141" y="557"/>
      <point x="270" y="557" type="curve" smooth="yes"/>
      <point x="354" y="557"/>
      <point x="396" y="545"/>
      <point x="453" y="525" type="curve" smooth="yes"/>
      <point x="470" y="519"/>
      <point x="479" y="500"/>
      <point x="473" y="483" type="curve" smooth="yes"/>
      <point x="467" y="466"/>
      <point x="448" y="457"/>
    </contour>
    <contour>
      <point x="322" y="616" type="curve" smooth="yes"/>
      <point x="322" y="-74" type="line" smooth="yes"/>
      <point x="322" y="-92"/>
      <point x="307" y="-107"/>
      <point x="289" y="-107" type="curve" smooth="yes"/>
      <point x="271" y="-107"/>
      <point x="256" y="-92"/>
      <point x="256" y="-74" type="curve" smooth="yes"/>
      <point x="256" y="616" type="line" smooth="yes"/>
      <point x="256" y="634"/>
      <point x="271" y="649"/>
      <point x="289" y="649" type="curve" smooth="yes"/>
      <point x="307" y="649"/>
      <point x="322" y="634"/>
    </contour>
  </outline>
</glyph>
<glyph name="percent" format="1">
  <advance width="806"/>
  <unicode hex="0025"/>
  <outline>
    <contour>
      <point x="208" y="558" type="curve" smooth="yes"/>
      <point x="283" y="558"/>
      <point x="349" y="492"/>
      <point x="349" y="389" type="curve" smooth="yes"/>
      <point x="349" y="292"/>
      <point x="294" y="220"/>
      <point x="208" y="220" type="curve" smooth="yes"/>
      <point x="130" y="220"/>
      <point x="66" y="293"/>
      <point x="66" y="388" type="curve" smooth="yes"/>
      <point x="66" y="492"/>
      <point x="129" y="558"/>
    </contour>
    <contour>
      <point x="604" y="328" type="curve" smooth="yes"/>
      <point x="679" y="328"/>
      <point x="745" y="262"/>
      <point x="745" y="159" type="curve" smooth="yes"/>
      <point x="745" y="62"/>
      <point x="690" y="-10"/>
      <point x="604" y="-10" type="curve" smooth="yes"/>
      <point x="526" y="-10"/>
      <point x="462" y="63"/>
      <point x="462" y="158" type="curve" smooth="yes"/>
      <point x="462" y="262"/>
      <point x="525" y="328"/>
    </contour>
    <contour>
      <point x="584" y="501" type="curve" smooth="yes"/>
      <point x="301" y="16" type="line" smooth="yes"/>
      <point x="292" y="1"/>
      <point x="271" y="-4"/>
      <point x="255" y="4" type="curve" smooth="yes"/>
      <point x="240" y="13"/>
      <point x="235" y="34"/>
      <point x="243" y="50" type="curve" smooth="yes"/>
      <point x="526" y="535" type="line" smooth="yes"/>
      <point x="535" y="550"/>
      <point x="556" y="555"/>
      <point x="572" y="547" type="curve" smooth="yes"/>
      <point x="587" y="538"/>
      <point x="592" y="517"/>
    </contour>
    <contour>
      <point x="208" y="492" type="curve" smooth="yes"/>
      <point x="159" y="492"/>
      <point x="132" y="444"/>
      <point x="132" y="388" type="curve" smooth="yes"/>
      <point x="132" y="337"/>
      <point x="160" y="286"/>
      <point x="208" y="286" type="curve" smooth="yes"/>
      <point x="260" y="286"/>
      <point x="283" y="338"/>
      <point x="283" y="389" type="curve" smooth="yes"/>
      <point x="283" y="444"/>
      <point x="253" y="492"/>
    </contour>
    <contour>
      <point x="604" y="262" type="curve" smooth="yes"/>
      <point x="555" y="262"/>
      <point x="528" y="214"/>
      <point x="528" y="158" type="curve" smooth="yes"/>
      <point x="528" y="107"/>
      <point x="556" y="56"/>
      <point x="604" y="56" type="curve" smooth="yes"/>
      <point x="656" y="56"/>
      <point x="679" y="108"/>
      <point x="679" y="159" type="curve" smooth="yes"/>
      <point x="679" y="214"/>
      <point x="649" y="262"/>
    </contour>
  </outline>
</glyph>
<glyph name="ampersand" format="1">
  <advance width="644"/>
  <unicode hex="0026"/>
  <outline>
    <contour>
      <point x="552" y="268" type="curve" smooth="yes"/>
      <point x="466" y="146" type="line" smooth="yes"/>
      <point x="382" y="27"/>
      <point x="320" y="-8"/>
      <point x="238" y="-8" type="curve" smooth="yes"/>
      <point x="132" y="-8"/>
      <point x="64" y="60"/>
      <point x="64" y="143" type="curve" smooth="yes"/>
      <point x="64" y="217"/>
      <point x="93" y="279"/>
      <point x="264" y="350" type="curve" smooth="yes"/>
      <point x="310" y="368"/>
      <point x="336" y="393"/>
      <point x="336" y="429" type="curve" smooth="yes"/>
      <point x="336" y="466"/>
      <point x="302" y="492"/>
      <point x="263" y="492" type="curve" smooth="yes"/>
      <point x="223" y="492"/>
      <point x="193" y="466"/>
      <point x="193" y="425" type="curve" smooth="yes"/>
      <point x="193" y="379"/>
      <point x="232" y="346"/>
      <point x="281" y="303" type="curve" smooth="yes"/>
      <point x="562" y="58" type="line" smooth="yes"/>
      <point x="575" y="46"/>
      <point x="577" y="25"/>
      <point x="565" y="11" type="curve" smooth="yes"/>
      <point x="553" y="-2"/>
      <point x="532" y="-4"/>
      <point x="518" y="8" type="curve" smooth="yes"/>
      <point x="237" y="253" type="line" smooth="yes"/>
      <point x="168" y="314"/>
      <point x="127" y="363"/>
      <point x="127" y="425" type="curve" smooth="yes"/>
      <point x="127" y="504"/>
      <point x="185" y="558"/>
      <point x="263" y="558" type="curve" smooth="yes"/>
      <point x="344" y="558"/>
      <point x="402" y="500"/>
      <point x="402" y="429" type="curve" smooth="yes"/>
      <point x="402" y="371"/>
      <point x="370" y="322"/>
      <point x="290" y="288" type="curve" smooth="yes"/>
      <point x="169" y="239"/>
      <point x="130" y="199"/>
      <point x="130" y="143" type="curve" smooth="yes"/>
      <point x="130" y="92"/>
      <point x="178" y="58"/>
      <point x="238" y="58" type="curve" smooth="yes"/>
      <point x="302" y="58"/>
      <point x="348" y="93"/>
      <point x="412" y="184" type="curve" smooth="yes"/>
      <point x="498" y="306" type="line" smooth="yes"/>
      <point x="508" y="321"/>
      <point x="529" y="324"/>
      <point x="544" y="314" type="curve" smooth="yes"/>
      <point x="559" y="304"/>
      <point x="562" y="283"/>
    </contour>
  </outline>
</glyph>
<glyph name="parenleft" format="1">
  <advance width="325"/>
  <unicode hex="0028"/>
  <outline>
    <contour>
      <point x="262" y="585" type="curve" smooth="yes"/>
      <point x="192" y="507"/>
      <point x="135" y="388"/>
      <point x="135" y="263" type="curve" smooth="yes"/>
      <point x="135" y="140"/>
      <point x="188" y="27"/>
      <point x="262" y="-49" type="curve" smooth="yes"/>
      <point x="274" y="-62"/>
      <point x="274" y="-83"/>
      <point x="261" y="-96" type="curve" smooth="yes"/>
      <point x="248" y="-108"/>
      <point x="227" y="-108"/>
      <point x="214" y="-95" type="curve" smooth="yes"/>
      <point x="130" y="-7"/>
      <point x="69" y="122"/>
      <point x="69" y="263" type="curve" smooth="yes"/>
      <point x="69" y="406"/>
      <point x="134" y="541"/>
      <point x="214" y="629" type="curve" smooth="yes"/>
      <point x="225" y="642"/>
      <point x="247" y="643"/>
      <point x="260" y="631" type="curve" smooth="yes"/>
      <point x="273" y="620"/>
      <point x="274" y="598"/>
    </contour>
  </outline>
</glyph>
<glyph name="parenright" format="1">
  <advance width="315"/>
  <unicode hex="0029"/>
  <outline>
    <contour>
      <point x="203" y="261" type="curve" smooth="yes"/>
      <point x="203" y="136"/>
      <point x="149" y="21"/>
      <point x="74" y="-57" type="curve" smooth="yes"/>
      <point x="70" y="-61"/>
      <point x="67" y="-68"/>
      <point x="67" y="-74" type="curve" smooth="yes"/>
      <point x="67" y="-87"/>
      <point x="79" y="-99"/>
      <point x="92" y="-99" type="curve" smooth="yes"/>
      <point x="99" y="-99"/>
      <point x="105" y="-96"/>
      <point x="110" y="-91" type="curve" smooth="yes"/>
      <point x="193" y="-5"/>
      <point x="253" y="122"/>
      <point x="253" y="261" type="curve" smooth="yes"/>
      <point x="253" y="401"/>
      <point x="189" y="535"/>
      <point x="111" y="622" type="curve" smooth="yes"/>
      <point x="106" y="627"/>
      <point x="98" y="630"/>
      <point x="91" y="630" type="curve" smooth="yes"/>
      <point x="76" y="630"/>
      <point x="67" y="617"/>
      <point x="67" y="604" type="curve" smooth="yes"/>
      <point x="67" y="598"/>
      <point x="69" y="593"/>
      <point x="73" y="588" type="curve" smooth="yes"/>
      <point x="145" y="509"/>
      <point x="203" y="389"/>
    </contour>
  </outline>
</glyph>
<glyph name="asterisk" format="1">
  <advance width="423"/>
  <unicode hex="002A"/>
  <outline>
    <contour>
      <point x="243" y="511" type="curve" smooth="yes"/>
      <point x="243" y="285" type="line" smooth="yes"/>
      <point x="243" y="267"/>
      <point x="228" y="252"/>
      <point x="210" y="252" type="curve" smooth="yes"/>
      <point x="192" y="252"/>
      <point x="177" y="267"/>
      <point x="177" y="285" type="curve" smooth="yes"/>
      <point x="177" y="511" type="line" smooth="yes"/>
      <point x="177" y="529"/>
      <point x="192" y="544"/>
      <point x="210" y="544" type="curve" smooth="yes"/>
      <point x="228" y="544"/>
      <point x="243" y="529"/>
    </contour>
    <contour>
      <point x="121" y="487" type="curve" smooth="yes"/>
      <point x="334" y="363" type="line" smooth="yes"/>
      <point x="349" y="354"/>
      <point x="354" y="333"/>
      <point x="346" y="317" type="curve" smooth="yes"/>
      <point x="337" y="302"/>
      <point x="316" y="297"/>
      <point x="300" y="305" type="curve" smooth="yes"/>
      <point x="87" y="429" type="line" smooth="yes"/>
      <point x="72" y="438"/>
      <point x="67" y="459"/>
      <point x="75" y="475" type="curve" smooth="yes"/>
      <point x="84" y="490"/>
      <point x="105" y="495"/>
    </contour>
    <contour>
      <point x="87" y="363" type="curve" smooth="yes"/>
      <point x="300" y="487" type="line" smooth="yes"/>
      <point x="316" y="495"/>
      <point x="337" y="490"/>
      <point x="346" y="475" type="curve" smooth="yes"/>
      <point x="354" y="459"/>
      <point x="349" y="438"/>
      <point x="334" y="429" type="curve" smooth="yes"/>
      <point x="121" y="305" type="line" smooth="yes"/>
      <point x="105" y="297"/>
      <point x="84" y="302"/>
      <point x="75" y="317" type="curve" smooth="yes"/>
      <point x="67" y="333"/>
      <point x="72" y="354"/>
    </contour>
  </outline>
</glyph>
<glyph name="plus" format="1">
  <advance width="491"/>
  <unicode hex="002B"/>
  <outline>
    <contour>
      <point x="92" y="292" type="curve" smooth="yes"/>
      <point x="398" y="292" type="line" smooth="yes"/>
      <point x="416" y="292"/>
      <point x="431" y="277"/>
      <point x="431" y="259" type="curve" smooth="yes"/>
      <point x="431" y="241"/>
      <point x="416" y="226"/>
      <point x="398" y="226" type="curve" smooth="yes"/>
      <point x="92" y="226" type="line" smooth="yes"/>
      <point x="74" y="226"/>
      <point x="59" y="241"/>
      <point x="59" y="259" type="curve" smooth="yes"/>
      <point x="59" y="277"/>
      <point x="74" y="292"/>
    </contour>
    <contour>
      <point x="212" y="110" type="curve" smooth="yes"/>
      <point x="212" y="407" type="line" smooth="yes"/>
      <point x="212" y="425"/>
      <point x="227" y="440"/>
      <point x="245" y="440" type="curve" smooth="yes"/>
      <point x="263" y="440"/>
      <point x="278" y="425"/>
      <point x="278" y="407" type="curve" smooth="yes"/>
      <point x="278" y="110" type="line" smooth="yes"/>
      <point x="278" y="92"/>
      <point x="263" y="77"/>
      <point x="245" y="77" type="curve" smooth="yes"/>
      <point x="227" y="77"/>
      <point x="212" y="92"/>
    </contour>
  </outline>
</glyph>
<glyph name="comma" format="1">
  <advance width="240"/>
  <unicode hex="002C"/>
  <outline>
    <contour>
      <point x="146" y="97" type="curve" smooth="yes"/>
      <point x="151" y="83"/>
      <point x="154" y="61"/>
      <point x="154" y="38" type="curve" smooth="yes"/>
      <point x="154" y="-15"/>
      <point x="136" y="-68"/>
      <point x="105" y="-109" type="curve" smooth="yes"/>
      <point x="95" y="-123"/>
      <point x="74" y="-126"/>
      <point x="59" y="-115" type="curve" smooth="yes"/>
      <point x="45" y="-105"/>
      <point x="42" y="-84"/>
      <point x="53" y="-69" type="curve" smooth="yes"/>
      <point x="74" y="-40"/>
      <point x="88" y="-1"/>
      <point x="88" y="38" type="curve" smooth="yes"/>
      <point x="88" y="53"/>
      <point x="87" y="67"/>
      <point x="84" y="77" type="curve" smooth="yes"/>
      <point x="78" y="93"/>
      <point x="88" y="113"/>
      <point x="105" y="118" type="curve" smooth="yes"/>
      <point x="121" y="124"/>
      <point x="141" y="114"/>
    </contour>
  </outline>
</glyph>
<glyph name="period" format="1">
  <advance width="235"/>
  <unicode hex="002E"/>
  <outline>
    <contour>
      <point x="119" y="113" type="curve" smooth="yes"/>
      <point x="149" y="113"/>
      <point x="172" y="88"/>
      <point x="172" y="51" type="curve" smooth="yes"/>
      <point x="172" y="6"/>
      <point x="149" y="-11"/>
      <point x="119" y="-11" type="curve" smooth="yes"/>
      <point x="93" y="-11"/>
      <point x="65" y="7"/>
      <point x="65" y="51" type="curve" smooth="yes"/>
      <point x="65" y="87"/>
      <point x="93" y="113"/>
    </contour>
  </outline>
</glyph>
<glyph name="slash" format="1">
  <advance width="325"/>
  <unicode hex="002F"/>
  <outline>
    <contour>
      <point x="312" y="602" type="curve" smooth="yes"/>
      <point x="63" y="-78" type="line" smooth="yes"/>
      <point x="57" y="-95"/>
      <point x="37" y="-104"/>
      <point x="21" y="-98" type="curve" smooth="yes"/>
      <point x="4" y="-92"/>
      <point x="-5" y="-72"/>
      <point x="1" y="-56" type="curve" smooth="yes"/>
      <point x="250" y="624" type="line" smooth="yes"/>
      <point x="256" y="641"/>
      <point x="276" y="650"/>
      <point x="292" y="644" type="curve" smooth="yes"/>
      <point x="309" y="638"/>
      <point x="318" y="618"/>
    </contour>
  </outline>
</glyph>
<glyph name="zero" format="1">
  <advance width="576"/>
  <unicode hex="0030"/>
  <outline>
    <contour>
      <point x="289" y="558" type="curve" smooth="yes"/>
      <point x="412" y="558"/>
      <point x="519" y="445"/>
      <point x="519" y="276" type="curve" smooth="yes"/>
      <point x="519" y="116"/>
      <point x="432" y="-7"/>
      <point x="289" y="-7" type="curve" smooth="yes"/>
      <point x="158" y="-7"/>
      <point x="56" y="117"/>
      <point x="56" y="274" type="curve"/>
      <point x="56" y="445"/>
      <point x="155" y="558"/>
    </contour>
    <contour>
      <point x="289" y="492" type="curve" smooth="yes"/>
      <point x="187" y="492"/>
      <point x="122" y="397"/>
      <point x="122" y="274" type="curve" smooth="yes"/>
      <point x="122" y="161"/>
      <point x="188" y="59"/>
      <point x="289" y="59" type="curve" smooth="yes"/>
      <point x="398" y="59"/>
      <point x="453" y="162"/>
      <point x="453" y="276" type="curve" smooth="yes"/>
      <point x="453" y="397"/>
      <point x="384" y="492"/>
    </contour>
  </outline>
</glyph>
<glyph name="one" format="1">
  <advance width="330"/>
  <unicode hex="0031"/>
  <outline>
    <contour>
      <point x="235" y="506" type="curve" smooth="yes"/>
      <point x="235" y="33" type="line" smooth="yes"/>
      <point x="235" y="15"/>
      <point x="220" y="0"/>
      <point x="202" y="0" type="curve" smooth="yes"/>
      <point x="184" y="0"/>
      <point x="169" y="15"/>
      <point x="169" y="33" type="curve" smooth="yes"/>
      <point x="169" y="506" type="line" smooth="yes"/>
      <point x="169" y="524"/>
      <point x="184" y="539"/>
      <point x="202" y="539" type="curve" smooth="yes"/>
      <point x="220" y="539"/>
      <point x="235" y="524"/>
    </contour>
    <contour>
      <point x="217" y="484" type="curve" smooth="yes"/>
      <point x="87" y="418" type="line" smooth="yes"/>
      <point x="71" y="410"/>
      <point x="51" y="416"/>
      <point x="43" y="432" type="curve" smooth="yes"/>
      <point x="35" y="448"/>
      <point x="41" y="468"/>
      <point x="57" y="476" type="curve" smooth="yes"/>
      <point x="187" y="542" type="line" smooth="yes"/>
      <point x="203" y="550"/>
      <point x="223" y="544"/>
      <point x="231" y="528" type="curve" smooth="yes"/>
      <point x="239" y="512"/>
      <point x="233" y="492"/>
    </contour>
  </outline>
</glyph>
<glyph name="two" format="1">
  <advance width="518"/>
  <unicode hex="0032"/>
  <outline>
    <contour>
      <point x="68" y="60" type="curve" smooth="yes"/>
      <point x="234" y="219" type="line" smooth="yes"/>
      <point x="331" y="311"/>
      <point x="367" y="348"/>
      <point x="367" y="404" type="curve" smooth="yes"/>
      <point x="367" y="448"/>
      <point x="328" y="485"/>
      <point x="263" y="485" type="curve" smooth="yes"/>
      <point x="217" y="485"/>
      <point x="171" y="472"/>
      <point x="129" y="446" type="curve" smooth="yes"/>
      <point x="114" y="437"/>
      <point x="93" y="442"/>
      <point x="84" y="457" type="curve" smooth="yes"/>
      <point x="75" y="472"/>
      <point x="80" y="493"/>
      <point x="95" y="502" type="curve" smooth="yes"/>
      <point x="147" y="534"/>
      <point x="205" y="551"/>
      <point x="263" y="551" type="curve" smooth="yes"/>
      <point x="382" y="551"/>
      <point x="433" y="476"/>
      <point x="433" y="404" type="curve" smooth="yes"/>
      <point x="433" y="336"/>
      <point x="401" y="287"/>
      <point x="280" y="171" type="curve" smooth="yes"/>
      <point x="114" y="12" type="line" smooth="yes"/>
      <point x="101" y="0"/>
      <point x="79" y="0"/>
      <point x="67" y="13" type="curve" smooth="yes"/>
      <point x="55" y="26"/>
      <point x="55" y="48"/>
    </contour>
    <contour>
      <point x="433" y="-6" type="curve" smooth="yes"/>
      <point x="81" y="-6" type="line" smooth="yes"/>
      <point x="63" y="-6"/>
      <point x="48" y="9"/>
      <point x="48" y="27" type="curve" smooth="yes"/>
      <point x="48" y="45"/>
      <point x="63" y="60"/>
      <point x="81" y="60" type="curve" smooth="yes"/>
      <point x="433" y="60" type="line" smooth="yes"/>
      <point x="451" y="60"/>
      <point x="466" y="45"/>
      <point x="466" y="27" type="curve" smooth="yes"/>
      <point x="466" y="9"/>
      <point x="451" y="-6"/>
    </contour>
  </outline>
</glyph>
<glyph name="three" format="1">
  <advance width="522"/>
  <unicode hex="0033"/>
  <outline>
    <contour>
      <point x="120" y="551" type="curve" smooth="yes"/>
      <point x="417" y="551" type="line" smooth="yes"/>
      <point x="435" y="551"/>
      <point x="450" y="536"/>
      <point x="450" y="518" type="curve" smooth="yes"/>
      <point x="450" y="500"/>
      <point x="435" y="485"/>
      <point x="417" y="485" type="curve" smooth="yes"/>
      <point x="120" y="485" type="line" smooth="yes"/>
      <point x="102" y="485"/>
      <point x="87" y="500"/>
      <point x="87" y="518" type="curve" smooth="yes"/>
      <point x="87" y="536"/>
      <point x="102" y="551"/>
    </contour>
    <contour>
      <point x="116" y="90" type="curve" smooth="yes"/>
      <point x="155" y="74"/>
      <point x="203" y="62"/>
      <point x="260" y="62" type="curve" smooth="yes"/>
      <point x="348" y="62"/>
      <point x="399" y="102"/>
      <point x="399" y="165" type="curve" smooth="yes"/>
      <point x="399" y="226"/>
      <point x="346" y="262"/>
      <point x="271" y="262" type="curve" smooth="yes"/>
      <point x="228" y="262"/>
      <point x="194" y="255"/>
      <point x="174" y="249" type="curve" smooth="yes"/>
      <point x="157" y="243"/>
      <point x="138" y="253"/>
      <point x="133" y="270" type="curve" smooth="yes"/>
      <point x="127" y="287"/>
      <point x="137" y="306"/>
      <point x="154" y="311" type="curve" smooth="yes"/>
      <point x="178" y="319"/>
      <point x="220" y="328"/>
      <point x="271" y="328" type="curve" smooth="yes"/>
      <point x="398" y="328"/>
      <point x="465" y="258"/>
      <point x="465" y="165" type="curve" smooth="yes"/>
      <point x="465" y="72"/>
      <point x="404" y="-4"/>
      <point x="260" y="-4" type="curve" smooth="yes"/>
      <point x="193" y="-4"/>
      <point x="135" y="10"/>
      <point x="90" y="30" type="curve" smooth="yes"/>
      <point x="74" y="37"/>
      <point x="66" y="57"/>
      <point x="73" y="73" type="curve" smooth="yes"/>
      <point x="80" y="89"/>
      <point x="100" y="97"/>
    </contour>
    <contour>
      <point x="431" y="486" type="curve" smooth="yes"/>
      <point x="192" y="260" type="line" smooth="yes"/>
      <point x="179" y="248"/>
      <point x="157" y="248"/>
      <point x="145" y="261" type="curve" smooth="yes"/>
      <point x="133" y="274"/>
      <point x="133" y="296"/>
      <point x="146" y="308" type="curve" smooth="yes"/>
      <point x="385" y="534" type="line" smooth="yes"/>
      <point x="398" y="546"/>
      <point x="420" y="546"/>
      <point x="432" y="533" type="curve" smooth="yes"/>
      <point x="444" y="520"/>
      <point x="444" y="498"/>
    </contour>
  </outline>
</glyph>
<glyph name="four" format="1">
  <advance width="541"/>
  <unicode hex="0034"/>
  <outline>
    <contour>
      <point x="405" y="528" type="curve" smooth="yes"/>
      <point x="405" y="33" type="line" smooth="yes"/>
      <point x="405" y="15"/>
      <point x="390" y="0"/>
      <point x="372" y="0" type="curve" smooth="yes"/>
      <point x="354" y="0"/>
      <point x="339" y="15"/>
      <point x="339" y="33" type="curve" smooth="yes"/>
      <point x="339" y="528" type="line" smooth="yes"/>
      <point x="339" y="546"/>
      <point x="354" y="561"/>
      <point x="372" y="561" type="curve" smooth="yes"/>
      <point x="390" y="561"/>
      <point x="405" y="546"/>
    </contour>
    <contour>
      <point x="390" y="498" type="curve" smooth="yes"/>
      <point x="91" y="136" type="line" smooth="yes"/>
      <point x="80" y="122"/>
      <point x="59" y="120"/>
      <point x="45" y="132" type="curve" smooth="yes"/>
      <point x="31" y="143"/>
      <point x="29" y="164"/>
      <point x="41" y="178" type="curve" smooth="yes"/>
      <point x="340" y="540" type="line" smooth="yes"/>
      <point x="351" y="554"/>
      <point x="372" y="556"/>
      <point x="386" y="544" type="curve" smooth="yes"/>
      <point x="400" y="533"/>
      <point x="402" y="512"/>
    </contour>
    <contour>
      <point x="76" y="190" type="curve" smooth="yes"/>
      <point x="480" y="190" type="line" smooth="yes"/>
      <point x="498" y="190"/>
      <point x="513" y="175"/>
      <point x="513" y="157" type="curve" smooth="yes"/>
      <point x="513" y="139"/>
      <point x="498" y="124"/>
      <point x="480" y="124" type="curve" smooth="yes"/>
      <point x="76" y="124" type="line" smooth="yes"/>
      <point x="58" y="124"/>
      <point x="43" y="139"/>
      <point x="43" y="157" type="curve" smooth="yes"/>
      <point x="43" y="175"/>
      <point x="58" y="190"/>
    </contour>
  </outline>
</glyph>
<glyph name="five" format="1">
  <advance width="531"/>
  <unicode hex="0035"/>
  <outline>
    <contour>
      <point x="149" y="551" type="curve" smooth="yes"/>
      <point x="406" y="551" type="line" smooth="yes"/>
      <point x="424" y="551"/>
      <point x="439" y="536"/>
      <point x="439" y="518" type="curve" smooth="yes"/>
      <point x="439" y="500"/>
      <point x="424" y="485"/>
      <point x="406" y="485" type="curve" smooth="yes"/>
      <point x="149" y="485" type="line" smooth="yes"/>
      <point x="131" y="485"/>
      <point x="116" y="500"/>
      <point x="116" y="518" type="curve" smooth="yes"/>
      <point x="116" y="536"/>
      <point x="131" y="551"/>
    </contour>
    <contour>
      <point x="115" y="94" type="curve" smooth="yes"/>
      <point x="154" y="76"/>
      <point x="210" y="62"/>
      <point x="271" y="62" type="curve" smooth="yes"/>
      <point x="360" y="62"/>
      <point x="404" y="111"/>
      <point x="404" y="177" type="curve" smooth="yes"/>
      <point x="404" y="239"/>
      <point x="351" y="280"/>
      <point x="275" y="280" type="curve" smooth="yes"/>
      <point x="215" y="280"/>
      <point x="172" y="265"/>
      <point x="143" y="251" type="curve" smooth="yes"/>
      <point x="127" y="244"/>
      <point x="107" y="251"/>
      <point x="99" y="267" type="curve" smooth="yes"/>
      <point x="92" y="283"/>
      <point x="99" y="303"/>
      <point x="115" y="311" type="curve" smooth="yes"/>
      <point x="150" y="327"/>
      <point x="203" y="346"/>
      <point x="275" y="346" type="curve" smooth="yes"/>
      <point x="401" y="346"/>
      <point x="470" y="271"/>
      <point x="470" y="177" type="curve" smooth="yes"/>
      <point x="470" y="78"/>
      <point x="410" y="-4"/>
      <point x="271" y="-4" type="curve" smooth="yes"/>
      <point x="200" y="-4"/>
      <point x="134" y="12"/>
      <point x="87" y="34" type="curve" smooth="yes"/>
      <point x="71" y="42"/>
      <point x="64" y="62"/>
      <point x="71" y="78" type="curve" smooth="yes"/>
      <point x="79" y="94"/>
      <point x="99" y="101"/>
    </contour>
    <contour>
      <point x="181" y="508" type="curve" smooth="yes"/>
      <point x="162" y="283" type="line" smooth="yes"/>
      <point x="160" y="265"/>
      <point x="144" y="252"/>
      <point x="126" y="253" type="curve" smooth="yes"/>
      <point x="108" y="255"/>
      <point x="95" y="271"/>
      <point x="96" y="289" type="curve" smooth="yes"/>
      <point x="115" y="514" type="line" smooth="yes"/>
      <point x="117" y="532"/>
      <point x="133" y="545"/>
      <point x="151" y="544" type="curve" smooth="yes"/>
      <point x="169" y="542"/>
      <point x="182" y="526"/>
    </contour>
  </outline>
</glyph>
<glyph name="six" format="1">
  <advance width="549"/>
  <unicode hex="0036"/>
  <outline>
    <contour>
      <point x="383" y="477" type="curve" smooth="yes"/>
      <point x="359" y="485"/>
      <point x="340" y="489"/>
      <point x="311" y="489" type="curve" smooth="yes"/>
      <point x="196" y="489"/>
      <point x="133" y="397"/>
      <point x="133" y="257" type="curve" smooth="yes"/>
      <point x="133" y="131"/>
      <point x="194" y="62"/>
      <point x="290" y="62" type="curve" smooth="yes"/>
      <point x="383" y="62"/>
      <point x="424" y="122"/>
      <point x="424" y="181" type="curve" smooth="yes"/>
      <point x="424" y="245"/>
      <point x="376" y="286"/>
      <point x="310" y="286" type="curve" smooth="yes"/>
      <point x="233" y="286"/>
      <point x="173" y="231"/>
      <point x="148" y="141" type="curve" smooth="yes"/>
      <point x="143" y="124"/>
      <point x="124" y="113"/>
      <point x="107" y="118" type="curve" smooth="yes"/>
      <point x="90" y="123"/>
      <point x="79" y="142"/>
      <point x="84" y="159" type="curve" smooth="yes"/>
      <point x="119" y="285"/>
      <point x="207" y="352"/>
      <point x="310" y="352" type="curve" smooth="yes"/>
      <point x="418" y="352"/>
      <point x="490" y="281"/>
      <point x="490" y="181" type="curve" smooth="yes"/>
      <point x="490" y="92"/>
      <point x="435" y="-4"/>
      <point x="290" y="-4" type="curve" smooth="yes"/>
      <point x="162" y="-4"/>
      <point x="67" y="77"/>
      <point x="67" y="257" type="curve" smooth="yes"/>
      <point x="67" y="449"/>
      <point x="164" y="555"/>
      <point x="311" y="555" type="curve" smooth="yes"/>
      <point x="348" y="555"/>
      <point x="373" y="549"/>
      <point x="403" y="539" type="curve" smooth="yes"/>
      <point x="420" y="534"/>
      <point x="430" y="514"/>
      <point x="424" y="498" type="curve" smooth="yes"/>
      <point x="419" y="481"/>
      <point x="399" y="471"/>
    </contour>
  </outline>
</glyph>
<glyph name="seven" format="1">
  <advance width="476"/>
  <unicode hex="0037"/>
  <outline>
    <contour>
      <point x="445" y="501" type="curve" smooth="yes"/>
      <point x="407" y="430"/>
      <point x="304" y="291"/>
      <point x="275" y="240" type="curve" smooth="yes"/>
      <point x="250" y="196"/>
      <point x="230" y="141"/>
      <point x="230" y="88" type="curve" smooth="yes"/>
      <point x="230" y="33" type="line" smooth="yes"/>
      <point x="230" y="15"/>
      <point x="215" y="0"/>
      <point x="197" y="0" type="curve" smooth="yes"/>
      <point x="179" y="0"/>
      <point x="164" y="15"/>
      <point x="164" y="33" type="curve" smooth="yes"/>
      <point x="164" y="88" type="line" smooth="yes"/>
      <point x="164" y="153"/>
      <point x="188" y="218"/>
      <point x="217" y="272" type="curve" smooth="yes"/>
      <point x="246" y="323"/>
      <point x="349" y="462"/>
      <point x="387" y="533" type="curve" smooth="yes"/>
      <point x="395" y="548"/>
      <point x="416" y="555"/>
      <point x="432" y="546" type="curve" smooth="yes"/>
      <point x="447" y="538"/>
      <point x="454" y="517"/>
    </contour>
    <contour>
      <point x="409" y="485" type="curve" smooth="yes"/>
      <point x="66" y="485" type="line" smooth="yes"/>
      <point x="48" y="485"/>
      <point x="33" y="500"/>
      <point x="33" y="518" type="curve" smooth="yes"/>
      <point x="33" y="536"/>
      <point x="48" y="551"/>
      <point x="66" y="551" type="curve" smooth="yes"/>
      <point x="409" y="551" type="line" smooth="yes"/>
      <point x="427" y="551"/>
      <point x="442" y="536"/>
      <point x="442" y="518" type="curve" smooth="yes"/>
      <point x="442" y="500"/>
      <point x="427" y="485"/>
    </contour>
  </outline>
</glyph>
<glyph name="eight" format="1">
  <advance width="568"/>
  <unicode hex="0038"/>
  <outline>
    <contour>
      <point x="285" y="328" type="curve" smooth="yes"/>
      <point x="423" y="328"/>
      <point x="501" y="256"/>
      <point x="501" y="160" type="curve" smooth="yes"/>
      <point x="501" y="73"/>
      <point x="449" y="-8"/>
      <point x="285" y="-8" type="curve" smooth="yes"/>
      <point x="130" y="-8"/>
      <point x="67" y="73"/>
      <point x="67" y="159" type="curve" smooth="yes"/>
      <point x="67" y="256"/>
      <point x="138" y="328"/>
    </contour>
    <contour>
      <point x="285" y="558" type="curve" smooth="yes"/>
      <point x="409" y="558"/>
      <point x="475" y="496"/>
      <point x="475" y="412" type="curve" smooth="yes"/>
      <point x="475" y="333"/>
      <point x="420" y="262"/>
      <point x="285" y="262" type="curve" smooth="yes"/>
      <point x="144" y="262"/>
      <point x="93" y="334"/>
      <point x="93" y="412" type="curve" smooth="yes"/>
      <point x="93" y="495"/>
      <point x="155" y="558"/>
    </contour>
    <contour>
      <point x="285" y="262" type="curve" smooth="yes"/>
      <point x="196" y="262"/>
      <point x="133" y="226"/>
      <point x="133" y="159" type="curve" smooth="yes"/>
      <point x="133" y="99"/>
      <point x="192" y="58"/>
      <point x="285" y="58" type="curve" smooth="yes"/>
      <point x="385" y="58"/>
      <point x="435" y="99"/>
      <point x="435" y="160" type="curve" smooth="yes"/>
      <point x="435" y="226"/>
      <point x="369" y="262"/>
    </contour>
    <contour>
      <point x="285" y="492" type="curve" smooth="yes"/>
      <point x="213" y="492"/>
      <point x="159" y="467"/>
      <point x="159" y="412" type="curve" smooth="yes"/>
      <point x="159" y="360"/>
      <point x="206" y="328"/>
      <point x="285" y="328" type="curve" smooth="yes"/>
      <point x="360" y="328"/>
      <point x="409" y="361"/>
      <point x="409" y="412" type="curve" smooth="yes"/>
      <point x="409" y="466"/>
      <point x="353" y="492"/>
    </contour>
  </outline>
</glyph>
<glyph name="nine" format="1">
  <advance width="546"/>
  <unicode hex="0039"/>
  <outline>
    <contour>
      <point x="165" y="75" type="curve" smooth="yes"/>
      <point x="188" y="69"/>
      <point x="208" y="63"/>
      <point x="238" y="63" type="curve" smooth="yes"/>
      <point x="359" y="63"/>
      <point x="413" y="145"/>
      <point x="413" y="278" type="curve" smooth="yes"/>
      <point x="413" y="409"/>
      <point x="355" y="489"/>
      <point x="256" y="489" type="curve" smooth="yes"/>
      <point x="169" y="489"/>
      <point x="125" y="431"/>
      <point x="125" y="372" type="curve" smooth="yes"/>
      <point x="125" y="299"/>
      <point x="170" y="259"/>
      <point x="247" y="259" type="curve" smooth="yes"/>
      <point x="327" y="259"/>
      <point x="376" y="308"/>
      <point x="415" y="370" type="curve" smooth="yes"/>
      <point x="424" y="385"/>
      <point x="445" y="390"/>
      <point x="460" y="381" type="curve" smooth="yes"/>
      <point x="475" y="372"/>
      <point x="480" y="351"/>
      <point x="471" y="336" type="curve" smooth="yes"/>
      <point x="420" y="252"/>
      <point x="351" y="193"/>
      <point x="247" y="193" type="curve" smooth="yes"/>
      <point x="126" y="193"/>
      <point x="59" y="259"/>
      <point x="59" y="372" type="curve"/>
      <point x="59" y="461"/>
      <point x="121" y="555"/>
      <point x="256" y="555" type="curve" smooth="yes"/>
      <point x="385" y="555"/>
      <point x="479" y="463"/>
      <point x="479" y="278" type="curve" smooth="yes"/>
      <point x="479" y="95"/>
      <point x="395" y="-3"/>
      <point x="238" y="-3" type="curve" smooth="yes"/>
      <point x="202" y="-3"/>
      <point x="176" y="3"/>
      <point x="147" y="11" type="curve" smooth="yes"/>
      <point x="130" y="16"/>
      <point x="120" y="34"/>
      <point x="124" y="52" type="curve" smooth="yes"/>
      <point x="129" y="69"/>
      <point x="147" y="79"/>
    </contour>
  </outline>
</glyph>
<glyph name="less" format="1">
  <advance width="491"/>
  <unicode hex="003C"/>
  <outline>
    <contour>
      <point x="85" y="293" type="curve" smooth="yes"/>
      <point x="367" y="421" type="line" smooth="yes"/>
      <point x="384" y="428"/>
      <point x="404" y="421"/>
      <point x="411" y="405" type="curve" smooth="yes"/>
      <point x="418" y="388"/>
      <point x="411" y="368"/>
      <point x="395" y="361" type="curve" smooth="yes"/>
      <point x="113" y="233" type="line" smooth="yes"/>
      <point x="96" y="226"/>
      <point x="76" y="233"/>
      <point x="69" y="249" type="curve" smooth="yes"/>
      <point x="62" y="266"/>
      <point x="69" y="286"/>
    </contour>
    <contour>
      <point x="372" y="97" type="curve" smooth="yes"/>
      <point x="80" y="230" type="line" smooth="yes"/>
      <point x="64" y="237"/>
      <point x="57" y="257"/>
      <point x="64" y="274" type="curve" smooth="yes"/>
      <point x="71" y="290"/>
      <point x="91" y="297"/>
      <point x="108" y="290" type="curve" smooth="yes"/>
      <point x="400" y="157" type="line" smooth="yes"/>
      <point x="416" y="150"/>
      <point x="423" y="130"/>
      <point x="416" y="113" type="curve" smooth="yes"/>
      <point x="409" y="97"/>
      <point x="389" y="90"/>
    </contour>
  </outline>
</glyph>
<glyph name="equal" format="1">
  <advance width="491"/>
  <unicode hex="003D"/>
  <outline>
    <contour>
      <point x="92" y="382" type="curve" smooth="yes"/>
      <point x="398" y="382" type="line" smooth="yes"/>
      <point x="416" y="382"/>
      <point x="431" y="367"/>
      <point x="431" y="349" type="curve" smooth="yes"/>
      <point x="431" y="331"/>
      <point x="416" y="316"/>
      <point x="398" y="316" type="curve" smooth="yes"/>
      <point x="92" y="316" type="line" smooth="yes"/>
      <point x="74" y="316"/>
      <point x="59" y="331"/>
      <point x="59" y="349" type="curve" smooth="yes"/>
      <point x="59" y="367"/>
      <point x="74" y="382"/>
    </contour>
    <contour>
      <point x="92" y="202" type="curve" smooth="yes"/>
      <point x="398" y="202" type="line" smooth="yes"/>
      <point x="416" y="202"/>
      <point x="431" y="187"/>
      <point x="431" y="169" type="curve" smooth="yes"/>
      <point x="431" y="151"/>
      <point x="416" y="136"/>
      <point x="398" y="136" type="curve" smooth="yes"/>
      <point x="92" y="136" type="line" smooth="yes"/>
      <point x="74" y="136"/>
      <point x="59" y="151"/>
      <point x="59" y="169" type="curve" smooth="yes"/>
      <point x="59" y="187"/>
      <point x="74" y="202"/>
    </contour>
  </outline>
</glyph>
<glyph name="question" format="1">
  <advance width="381"/>
  <unicode hex="003F"/>
  <outline>
    <contour>
      <point x="56" y="537" type="curve" smooth="yes"/>
      <point x="96" y="562"/>
      <point x="135" y="577"/>
      <point x="199" y="577" type="curve" smooth="yes"/>
      <point x="300" y="577"/>
      <point x="355" y="511"/>
      <point x="355" y="443" type="curve" smooth="yes"/>
      <point x="355" y="372"/>
      <point x="321" y="333"/>
      <point x="240" y="287" type="curve" smooth="yes"/>
      <point x="207" y="268"/>
      <point x="198" y="249"/>
      <point x="196" y="220" type="curve" smooth="yes"/>
      <point x="195" y="202"/>
      <point x="178" y="188"/>
      <point x="161" y="189" type="curve" smooth="yes"/>
      <point x="143" y="190"/>
      <point x="129" y="207"/>
      <point x="130" y="224" type="curve" smooth="yes"/>
      <point x="134" y="277"/>
      <point x="147" y="310"/>
      <point x="208" y="345" type="curve" smooth="yes"/>
      <point x="259" y="373"/>
      <point x="289" y="396"/>
      <point x="289" y="443" type="curve" smooth="yes"/>
      <point x="289" y="483"/>
      <point x="250" y="511"/>
      <point x="199" y="511" type="curve" smooth="yes"/>
      <point x="151" y="511"/>
      <point x="122" y="500"/>
      <point x="92" y="481" type="curve" smooth="yes"/>
      <point x="76" y="472"/>
      <point x="56" y="476"/>
      <point x="46" y="491" type="curve" smooth="yes"/>
      <point x="37" y="507"/>
      <point x="41" y="527"/>
    </contour>
    <component base="period" xOffset="50"/>
    <component base="period" xOffset="50"/>
  </outline>
</glyph>
<glyph name="at" format="1">
  <advance width="675"/>
  <unicode hex="0040"/>
  <outline>
    <contour>
      <point x="460" y="390" type="curve" smooth="yes"/>
      <point x="460" y="260" type="line" smooth="yes"/>
      <point x="460" y="224"/>
      <point x="479" y="196"/>
      <point x="509" y="196" type="curve" smooth="yes"/>
      <point x="545" y="196"/>
      <point x="563" y="237"/>
      <point x="563" y="285" type="curve" smooth="yes"/>
      <point x="563" y="395"/>
      <point x="480" y="495"/>
      <point x="341" y="495" type="curve" smooth="yes"/>
      <point x="210" y="495"/>
      <point x="114" y="393"/>
      <point x="114" y="271" type="curve" smooth="yes"/>
      <point x="114" y="149"/>
      <point x="209" y="56"/>
      <point x="344" y="56" type="curve" smooth="yes"/>
      <point x="401" y="56"/>
      <point x="448" y="69"/>
      <point x="484" y="84" type="curve" smooth="yes"/>
      <point x="500" y="91"/>
      <point x="520" y="84"/>
      <point x="527" y="67" type="curve" smooth="yes"/>
      <point x="534" y="51"/>
      <point x="527" y="31"/>
      <point x="510" y="24" type="curve" smooth="yes"/>
      <point x="468" y="5"/>
      <point x="411" y="-10"/>
      <point x="344" y="-10" type="curve" smooth="yes"/>
      <point x="167" y="-10"/>
      <point x="48" y="113"/>
      <point x="48" y="271" type="curve"/>
      <point x="48" y="429"/>
      <point x="172" y="561"/>
      <point x="341" y="561" type="curve" smooth="yes"/>
      <point x="524" y="561"/>
      <point x="629" y="427"/>
      <point x="629" y="285" type="curve" smooth="yes"/>
      <point x="629" y="177"/>
      <point x="573" y="130"/>
      <point x="509" y="130" type="curve" smooth="yes"/>
      <point x="449" y="130"/>
      <point x="394" y="174"/>
      <point x="394" y="260" type="curve" smooth="yes"/>
      <point x="394" y="390" type="line" smooth="yes"/>
      <point x="394" y="408"/>
      <point x="409" y="423"/>
      <point x="427" y="423" type="curve" smooth="yes"/>
      <point x="445" y="423"/>
      <point x="460" y="408"/>
    </contour>
    <contour>
      <point x="409" y="335" type="curve" smooth="yes"/>
      <point x="388" y="349"/>
      <point x="366" y="357"/>
      <point x="336" y="357" type="curve" smooth="yes"/>
      <point x="292" y="357"/>
      <point x="258" y="321"/>
      <point x="258" y="267" type="curve" smooth="yes"/>
      <point x="258" y="225"/>
      <point x="285" y="197"/>
      <point x="318" y="197" type="curve" smooth="yes"/>
      <point x="348" y="197"/>
      <point x="377" y="216"/>
      <point x="397" y="252" type="curve" smooth="yes"/>
      <point x="406" y="267"/>
      <point x="427" y="272"/>
      <point x="443" y="264" type="curve" smooth="yes"/>
      <point x="458" y="255"/>
      <point x="463" y="234"/>
      <point x="455" y="218" type="curve" smooth="yes"/>
      <point x="419" y="158"/>
      <point x="368" y="131"/>
      <point x="318" y="131" type="curve" smooth="yes"/>
      <point x="255" y="131"/>
      <point x="192" y="179"/>
      <point x="192" y="267" type="curve" smooth="yes"/>
      <point x="192" y="367"/>
      <point x="260" y="423"/>
      <point x="336" y="423" type="curve" smooth="yes"/>
      <point x="380" y="423"/>
      <point x="414" y="411"/>
      <point x="445" y="391" type="curve" smooth="yes"/>
      <point x="460" y="381"/>
      <point x="464" y="360"/>
      <point x="455" y="345" type="curve" smooth="yes"/>
      <point x="445" y="330"/>
      <point x="424" y="326"/>
    </contour>
  </outline>
</glyph>
<glyph name="A" format="1">
  <advance width="568"/>
  <unicode hex="0041"/>
  <outline>
    <contour>
      <point x="305" y="508" type="curve" smooth="yes"/>
      <point x="237" y="355"/>
      <point x="143" y="141"/>
      <point x="98" y="16" type="curve" smooth="yes"/>
      <point x="92" y="-1"/>
      <point x="73" y="-10"/>
      <point x="56" y="-4" type="curve" smooth="yes"/>
      <point x="39" y="2"/>
      <point x="30" y="21"/>
      <point x="36" y="38" type="curve" smooth="yes"/>
      <point x="81" y="165"/>
      <point x="177" y="381"/>
      <point x="245" y="534" type="curve" smooth="yes"/>
      <point x="252" y="551"/>
      <point x="272" y="558"/>
      <point x="288" y="551" type="curve" smooth="yes"/>
      <point x="305" y="544"/>
      <point x="312" y="524"/>
    </contour>
    <contour>
      <point x="311" y="535" type="curve" smooth="yes"/>
      <point x="383" y="380"/>
      <point x="482" y="162"/>
      <point x="530" y="39" type="curve" smooth="yes"/>
      <point x="536" y="22"/>
      <point x="528" y="3"/>
      <point x="511" y="-4" type="curve" smooth="yes"/>
      <point x="494" y="-10"/>
      <point x="475" y="-2"/>
      <point x="468" y="15" type="curve" smooth="yes"/>
      <point x="420" y="138"/>
      <point x="323" y="354"/>
      <point x="251" y="507" type="curve" smooth="yes"/>
      <point x="244" y="523"/>
      <point x="251" y="543"/>
      <point x="267" y="551" type="curve" smooth="yes"/>
      <point x="283" y="558"/>
      <point x="303" y="551"/>
    </contour>
    <contour>
      <point x="136" y="205" type="curve" smooth="yes"/>
      <point x="427" y="205" type="line" smooth="yes"/>
      <point x="445" y="205"/>
      <point x="460" y="190"/>
      <point x="460" y="172" type="curve" smooth="yes"/>
      <point x="460" y="154"/>
      <point x="445" y="139"/>
      <point x="427" y="139" type="curve" smooth="yes"/>
      <point x="136" y="139" type="line" smooth="yes"/>
      <point x="118" y="139"/>
      <point x="103" y="154"/>
      <point x="103" y="172" type="curve" smooth="yes"/>
      <point x="103" y="190"/>
      <point x="118" y="205"/>
    </contour>
  </outline>
</glyph>
<glyph name="B" format="1">
  <advance width="521"/>
  <unicode hex="0042"/>
  <outline>
    <contour>
      <point x="137" y="326" type="curve" smooth="yes"/>
      <point x="276" y="326" type="line" smooth="yes"/>
      <point x="338" y="326"/>
      <point x="393" y="303"/>
      <point x="426" y="270" type="curve" smooth="yes"/>
      <point x="458" y="239"/>
      <point x="473" y="202"/>
      <point x="473" y="160" type="curve" smooth="yes"/>
      <point x="473" y="122"/>
      <point x="459" y="83"/>
      <point x="429" y="54" type="curve" smooth="yes"/>
      <point x="399" y="23"/>
      <point x="352" y="0"/>
      <point x="273" y="0" type="curve" smooth="yes"/>
      <point x="128" y="0" type="line" smooth="yes"/>
      <point x="110" y="0"/>
      <point x="95" y="15"/>
      <point x="95" y="33" type="curve" smooth="yes"/>
      <point x="95" y="518" type="line" smooth="yes"/>
      <point x="95" y="536"/>
      <point x="110" y="551"/>
      <point x="128" y="551" type="curve" smooth="yes"/>
      <point x="257" y="551" type="line" smooth="yes"/>
      <point x="319" y="551"/>
      <point x="360" y="530"/>
      <point x="385" y="504" type="curve" smooth="yes"/>
      <point x="409" y="481"/>
      <point x="425" y="441"/>
      <point x="425" y="407" type="curve" smooth="yes"/>
      <point x="425" y="369"/>
      <point x="409" y="332"/>
      <point x="385" y="309" type="curve" smooth="yes"/>
      <point x="363" y="287"/>
      <point x="321" y="264"/>
      <point x="270" y="260" type="curve" smooth="yes"/>
      <point x="253" y="259"/>
      <point x="236" y="273"/>
      <point x="235" y="291" type="curve" smooth="yes"/>
      <point x="234" y="308"/>
      <point x="248" y="325"/>
      <point x="266" y="326" type="curve" smooth="yes"/>
      <point x="297" y="328"/>
      <point x="325" y="341"/>
      <point x="339" y="355" type="curve" smooth="yes"/>
      <point x="351" y="368"/>
      <point x="359" y="387"/>
      <point x="359" y="407" type="curve" smooth="yes"/>
      <point x="359" y="425"/>
      <point x="351" y="445"/>
      <point x="339" y="458" type="curve" smooth="yes"/>
      <point x="322" y="474"/>
      <point x="295" y="485"/>
      <point x="257" y="485" type="curve" smooth="yes"/>
      <point x="128" y="485" type="line"/>
      <point x="161" y="518" type="line"/>
      <point x="161" y="33" type="line"/>
      <point x="128" y="66" type="line"/>
      <point x="273" y="66" type="line" smooth="yes"/>
      <point x="328" y="66"/>
      <point x="361" y="79"/>
      <point x="383" y="100" type="curve" smooth="yes"/>
      <point x="399" y="117"/>
      <point x="407" y="138"/>
      <point x="407" y="160" type="curve" smooth="yes"/>
      <point x="407" y="184"/>
      <point x="398" y="205"/>
      <point x="380" y="224" type="curve" smooth="yes"/>
      <point x="357" y="247"/>
      <point x="318" y="260"/>
      <point x="276" y="260" type="curve" smooth="yes"/>
      <point x="137" y="260" type="line" smooth="yes"/>
      <point x="119" y="260"/>
      <point x="104" y="275"/>
      <point x="104" y="293" type="curve" smooth="yes"/>
      <point x="104" y="311"/>
      <point x="119" y="326"/>
    </contour>
  </outline>
</glyph>
<glyph name="C" format="1">
  <advance width="563"/>
  <unicode hex="0043"/>
  <outline>
    <contour>
      <point x="454" y="463" type="curve" smooth="yes"/>
      <point x="425" y="479"/>
      <point x="381" y="488"/>
      <point x="334" y="488" type="curve" smooth="yes"/>
      <point x="218" y="488"/>
      <point x="119" y="399"/>
      <point x="119" y="266" type="curve" smooth="yes"/>
      <point x="119" y="144"/>
      <point x="200" y="51"/>
      <point x="340" y="51" type="curve" smooth="yes"/>
      <point x="386" y="51"/>
      <point x="427" y="60"/>
      <point x="460" y="77" type="curve" smooth="yes"/>
      <point x="476" y="85"/>
      <point x="496" y="79"/>
      <point x="504" y="63" type="curve" smooth="yes"/>
      <point x="512" y="47"/>
      <point x="506" y="27"/>
      <point x="490" y="19" type="curve" smooth="yes"/>
      <point x="449" y="-2"/>
      <point x="398" y="-15"/>
      <point x="340" y="-15" type="curve" smooth="yes"/>
      <point x="158" y="-15"/>
      <point x="53" y="108"/>
      <point x="53" y="266" type="curve"/>
      <point x="53" y="439"/>
      <point x="184" y="554"/>
      <point x="334" y="554" type="curve" smooth="yes"/>
      <point x="393" y="554"/>
      <point x="449" y="541"/>
      <point x="486" y="521" type="curve" smooth="yes"/>
      <point x="501" y="512"/>
      <point x="508" y="492"/>
      <point x="499" y="476" type="curve" smooth="yes"/>
      <point x="490" y="461"/>
      <point x="470" y="454"/>
    </contour>
  </outline>
</glyph>
<glyph name="D" format="1">
  <advance width="617"/>
  <unicode hex="0044"/>
  <outline>
    <contour>
      <point x="304" y="-6" type="curve" smooth="yes"/>
      <point x="128" y="-6" type="line" smooth="yes"/>
      <point x="110" y="-6"/>
      <point x="95" y="9"/>
      <point x="95" y="27" type="curve" smooth="yes"/>
      <point x="95" y="512" type="line" smooth="yes"/>
      <point x="95" y="530"/>
      <point x="110" y="545"/>
      <point x="128" y="545" type="curve" smooth="yes"/>
      <point x="304" y="545" type="line" smooth="yes"/>
      <point x="440" y="545"/>
      <point x="564" y="433"/>
      <point x="564" y="270" type="curve" smooth="yes"/>
      <point x="564" y="115"/>
      <point x="461" y="-6"/>
    </contour>
    <contour>
      <point x="304" y="60" type="line" smooth="yes"/>
      <point x="423" y="60"/>
      <point x="498" y="155"/>
      <point x="498" y="270" type="curve" smooth="yes"/>
      <point x="498" y="391"/>
      <point x="408" y="479"/>
      <point x="304" y="479" type="curve" smooth="yes"/>
      <point x="128" y="479" type="line"/>
      <point x="161" y="512" type="line"/>
      <point x="161" y="27" type="line"/>
      <point x="128" y="60" type="line"/>
    </contour>
  </outline>
</glyph>
<glyph name="E" format="1">
  <advance width="495"/>
  <unicode hex="0045"/>
  <outline>
    <contour>
      <point x="161" y="518" type="curve" smooth="yes"/>
      <point x="161" y="33" type="line" smooth="yes"/>
      <point x="161" y="15"/>
      <point x="146" y="0"/>
      <point x="128" y="0" type="curve" smooth="yes"/>
      <point x="110" y="0"/>
      <point x="95" y="15"/>
      <point x="95" y="33" type="curve" smooth="yes"/>
      <point x="95" y="518" type="line" smooth="yes"/>
      <point x="95" y="536"/>
      <point x="110" y="551"/>
      <point x="128" y="551" type="curve" smooth="yes"/>
      <point x="146" y="551"/>
      <point x="161" y="536"/>
    </contour>
    <contour>
      <point x="136" y="66" type="curve" smooth="yes"/>
      <point x="407" y="66" type="line" smooth="yes"/>
      <point x="425" y="66"/>
      <point x="440" y="51"/>
      <point x="440" y="33" type="curve" smooth="yes"/>
      <point x="440" y="15"/>
      <point x="425" y="0"/>
      <point x="407" y="0" type="curve" smooth="yes"/>
      <point x="136" y="0" type="line" smooth="yes"/>
      <point x="118" y="0"/>
      <point x="103" y="15"/>
      <point x="103" y="33" type="curve" smooth="yes"/>
      <point x="103" y="51"/>
      <point x="118" y="66"/>
    </contour>
    <contour>
      <point x="136" y="551" type="curve" smooth="yes"/>
      <point x="405" y="551" type="line" smooth="yes"/>
      <point x="423" y="551"/>
      <point x="438" y="536"/>
      <point x="438" y="518" type="curve" smooth="yes"/>
      <point x="438" y="500"/>
      <point x="423" y="485"/>
      <point x="405" y="485" type="curve" smooth="yes"/>
      <point x="136" y="485" type="line" smooth="yes"/>
      <point x="118" y="485"/>
      <point x="103" y="500"/>
      <point x="103" y="518" type="curve" smooth="yes"/>
      <point x="103" y="536"/>
      <point x="118" y="551"/>
    </contour>
    <contour>
      <point x="136" y="327" type="curve" smooth="yes"/>
      <point x="362" y="327" type="line" smooth="yes"/>
      <point x="380" y="327"/>
      <point x="395" y="312"/>
      <point x="395" y="294" type="curve" smooth="yes"/>
      <point x="395" y="276"/>
      <point x="380" y="261"/>
      <point x="362" y="261" type="curve" smooth="yes"/>
      <point x="136" y="261" type="line" smooth="yes"/>
      <point x="118" y="261"/>
      <point x="103" y="276"/>
      <point x="103" y="294" type="curve" smooth="yes"/>
      <point x="103" y="312"/>
      <point x="118" y="327"/>
    </contour>
  </outline>
</glyph>
<glyph name="F" format="1">
  <advance width="485"/>
  <unicode hex="0046"/>
  <outline>
    <contour>
      <point x="161" y="518" type="curve" smooth="yes"/>
      <point x="161" y="33" type="line" smooth="yes"/>
      <point x="161" y="15"/>
      <point x="146" y="0"/>
      <point x="128" y="0" type="curve" smooth="yes"/>
      <point x="110" y="0"/>
      <point x="95" y="15"/>
      <point x="95" y="33" type="curve" smooth="yes"/>
      <point x="95" y="518" type="line" smooth="yes"/>
      <point x="95" y="536"/>
      <point x="110" y="551"/>
      <point x="128" y="551" type="curve" smooth="yes"/>
      <point x="146" y="551"/>
      <point x="161" y="536"/>
    </contour>
    <contour>
      <point x="136" y="551" type="curve" smooth="yes"/>
      <point x="413" y="551" type="line" smooth="yes"/>
      <point x="431" y="551"/>
      <point x="446" y="536"/>
      <point x="446" y="518" type="curve" smooth="yes"/>
      <point x="446" y="500"/>
      <point x="431" y="485"/>
      <point x="413" y="485" type="curve" smooth="yes"/>
      <point x="136" y="485" type="line" smooth="yes"/>
      <point x="118" y="485"/>
      <point x="103" y="500"/>
      <point x="103" y="518" type="curve" smooth="yes"/>
      <point x="103" y="536"/>
      <point x="118" y="551"/>
    </contour>
    <contour>
      <point x="136" y="308" type="curve" smooth="yes"/>
      <point x="362" y="308" type="line" smooth="yes"/>
      <point x="380" y="308"/>
      <point x="395" y="293"/>
      <point x="395" y="275" type="curve" smooth="yes"/>
      <point x="395" y="257"/>
      <point x="380" y="242"/>
      <point x="362" y="242" type="curve" smooth="yes"/>
      <point x="136" y="242" type="line" smooth="yes"/>
      <point x="118" y="242"/>
      <point x="103" y="257"/>
      <point x="103" y="275" type="curve" smooth="yes"/>
      <point x="103" y="293"/>
      <point x="118" y="308"/>
    </contour>
  </outline>
</glyph>
<glyph name="G" format="1">
  <advance width="618"/>
  <unicode hex="0047"/>
  <outline>
    <contour>
      <point x="469" y="463" type="curve" smooth="yes"/>
      <point x="431" y="478"/>
      <point x="386" y="488"/>
      <point x="335" y="488" type="curve" smooth="yes"/>
      <point x="210" y="488"/>
      <point x="119" y="399"/>
      <point x="119" y="266" type="curve" smooth="yes"/>
      <point x="119" y="147"/>
      <point x="197" y="51"/>
      <point x="332" y="51" type="curve" smooth="yes"/>
      <point x="401" y="51"/>
      <point x="452" y="69"/>
      <point x="493" y="95" type="curve" smooth="yes"/>
      <point x="508" y="104"/>
      <point x="529" y="100"/>
      <point x="539" y="85" type="curve" smooth="yes"/>
      <point x="548" y="70"/>
      <point x="544" y="49"/>
      <point x="529" y="39" type="curve" smooth="yes"/>
      <point x="478" y="7"/>
      <point x="417" y="-15"/>
      <point x="332" y="-15" type="curve" smooth="yes"/>
      <point x="155" y="-15"/>
      <point x="53" y="109"/>
      <point x="53" y="266" type="curve"/>
      <point x="53" y="439"/>
      <point x="172" y="554"/>
      <point x="335" y="554" type="curve" smooth="yes"/>
      <point x="396" y="554"/>
      <point x="447" y="542"/>
      <point x="493" y="525" type="curve" smooth="yes"/>
      <point x="509" y="518"/>
      <point x="518" y="499"/>
      <point x="512" y="482" type="curve" smooth="yes"/>
      <point x="505" y="466"/>
      <point x="486" y="457"/>
    </contour>
    <contour>
      <point x="479" y="77" type="curve" smooth="yes"/>
      <point x="479" y="251" type="line" smooth="yes"/>
      <point x="479" y="269"/>
      <point x="494" y="284"/>
      <point x="512" y="284" type="curve" smooth="yes"/>
      <point x="530" y="284"/>
      <point x="545" y="269"/>
      <point x="545" y="251" type="curve" smooth="yes"/>
      <point x="545" y="77" type="line" smooth="yes"/>
      <point x="545" y="59"/>
      <point x="530" y="44"/>
      <point x="512" y="44" type="curve" smooth="yes"/>
      <point x="494" y="44"/>
      <point x="479" y="59"/>
    </contour>
    <contour>
      <point x="501" y="218" type="curve" smooth="yes"/>
      <point x="348" y="218" type="line" smooth="yes"/>
      <point x="330" y="218"/>
      <point x="315" y="233"/>
      <point x="315" y="251" type="curve" smooth="yes"/>
      <point x="315" y="269"/>
      <point x="330" y="284"/>
      <point x="348" y="284" type="curve" smooth="yes"/>
      <point x="501" y="284" type="line" smooth="yes"/>
      <point x="519" y="284"/>
      <point x="534" y="269"/>
      <point x="534" y="251" type="curve" smooth="yes"/>
      <point x="534" y="233"/>
      <point x="519" y="218"/>
    </contour>
  </outline>
</glyph>
<glyph name="H" format="1">
  <advance width="641"/>
  <unicode hex="0048"/>
  <outline>
    <contour>
      <point x="161" y="512" type="curve" smooth="yes"/>
      <point x="161" y="27" type="line" smooth="yes"/>
      <point x="161" y="9"/>
      <point x="146" y="-6"/>
      <point x="128" y="-6" type="curve" smooth="yes"/>
      <point x="110" y="-6"/>
      <point x="95" y="9"/>
      <point x="95" y="27" type="curve" smooth="yes"/>
      <point x="95" y="512" type="line" smooth="yes"/>
      <point x="95" y="530"/>
      <point x="110" y="545"/>
      <point x="128" y="545" type="curve" smooth="yes"/>
      <point x="146" y="545"/>
      <point x="161" y="530"/>
    </contour>
    <contour>
      <point x="546" y="512" type="curve" smooth="yes"/>
      <point x="546" y="27" type="line" smooth="yes"/>
      <point x="546" y="9"/>
      <point x="531" y="-6"/>
      <point x="513" y="-6" type="curve" smooth="yes"/>
      <point x="495" y="-6"/>
      <point x="480" y="9"/>
      <point x="480" y="27" type="curve" smooth="yes"/>
      <point x="480" y="512" type="line" smooth="yes"/>
      <point x="480" y="530"/>
      <point x="495" y="545"/>
      <point x="513" y="545" type="curve" smooth="yes"/>
      <point x="531" y="545"/>
      <point x="546" y="530"/>
    </contour>
    <contour>
      <point x="132" y="320" type="curve" smooth="yes"/>
      <point x="512" y="320" type="line" smooth="yes"/>
      <point x="530" y="320"/>
      <point x="545" y="305"/>
      <point x="545" y="287" type="curve" smooth="yes"/>
      <point x="545" y="269"/>
      <point x="530" y="254"/>
      <point x="512" y="254" type="curve" smooth="yes"/>
      <point x="132" y="254" type="line" smooth="yes"/>
      <point x="114" y="254"/>
      <point x="99" y="269"/>
      <point x="99" y="287" type="curve" smooth="yes"/>
      <point x="99" y="305"/>
      <point x="114" y="320"/>
    </contour>
  </outline>
</glyph>
<glyph name="I" format="1">
  <advance width="266"/>
  <unicode hex="0049"/>
  <outline>
    <contour>
      <point x="166" y="512" type="curve" smooth="yes"/>
      <point x="166" y="27" type="line" smooth="yes"/>
      <point x="166" y="9"/>
      <point x="151" y="-6"/>
      <point x="133" y="-6" type="curve" smooth="yes"/>
      <point x="115" y="-6"/>
      <point x="100" y="9"/>
      <point x="100" y="27" type="curve" smooth="yes"/>
      <point x="100" y="512" type="line" smooth="yes"/>
      <point x="100" y="530"/>
      <point x="115" y="545"/>
      <point x="133" y="545" type="curve" smooth="yes"/>
      <point x="151" y="545"/>
      <point x="166" y="530"/>
    </contour>
  </outline>
</glyph>
<glyph name="J" format="1">
  <advance width="399"/>
  <unicode hex="004A"/>
  <outline>
    <contour>
      <point x="78" y="69" type="curve" smooth="yes"/>
      <point x="107" y="62"/>
      <point x="134" y="55"/>
      <point x="161" y="55" type="curve" smooth="yes"/>
      <point x="225" y="55"/>
      <point x="250" y="96"/>
      <point x="250" y="169" type="curve" smooth="yes"/>
      <point x="250" y="512" type="line" smooth="yes"/>
      <point x="250" y="530"/>
      <point x="265" y="545"/>
      <point x="283" y="545" type="curve" smooth="yes"/>
      <point x="301" y="545"/>
      <point x="316" y="530"/>
      <point x="316" y="512" type="curve" smooth="yes"/>
      <point x="316" y="169" type="line" smooth="yes"/>
      <point x="316" y="42"/>
      <point x="263" y="-11"/>
      <point x="161" y="-11" type="curve" smooth="yes"/>
      <point x="128" y="-11"/>
      <point x="97" y="-4"/>
      <point x="62" y="5" type="curve" smooth="yes"/>
      <point x="45" y="9"/>
      <point x="34" y="28"/>
      <point x="38" y="45" type="curve" smooth="yes"/>
      <point x="42" y="62"/>
      <point x="61" y="73"/>
    </contour>
  </outline>
</glyph>
<glyph name="K" format="1">
  <advance width="558"/>
  <unicode hex="004B"/>
  <outline>
    <contour>
      <point x="161" y="518" type="curve" smooth="yes"/>
      <point x="161" y="33" type="line" smooth="yes"/>
      <point x="161" y="15"/>
      <point x="146" y="0"/>
      <point x="128" y="0" type="curve" smooth="yes"/>
      <point x="110" y="0"/>
      <point x="95" y="15"/>
      <point x="95" y="33" type="curve" smooth="yes"/>
      <point x="95" y="518" type="line" smooth="yes"/>
      <point x="95" y="536"/>
      <point x="110" y="551"/>
      <point x="128" y="551" type="curve" smooth="yes"/>
      <point x="146" y="551"/>
      <point x="161" y="536"/>
    </contour>
    <contour>
      <point x="277" y="332" type="curve" smooth="yes"/>
      <point x="334" y="263"/>
      <point x="454" y="118"/>
      <point x="509" y="55" type="curve" smooth="yes"/>
      <point x="521" y="41"/>
      <point x="519" y="20"/>
      <point x="506" y="8" type="curve" smooth="yes"/>
      <point x="492" y="-4"/>
      <point x="471" y="-2"/>
      <point x="459" y="11" type="curve" smooth="yes"/>
      <point x="404" y="74"/>
      <point x="284" y="221"/>
      <point x="227" y="290" type="curve" smooth="yes"/>
      <point x="215" y="304"/>
      <point x="217" y="325"/>
      <point x="231" y="336" type="curve" smooth="yes"/>
      <point x="245" y="348"/>
      <point x="266" y="346"/>
    </contour>
    <contour>
      <point x="106" y="225" type="curve" smooth="yes"/>
      <point x="153" y="269"/>
      <point x="341" y="436"/>
      <point x="440" y="541" type="curve" smooth="yes"/>
      <point x="452" y="554"/>
      <point x="474" y="554"/>
      <point x="487" y="542" type="curve" smooth="yes"/>
      <point x="500" y="530"/>
      <point x="500" y="508"/>
      <point x="488" y="495" type="curve" smooth="yes"/>
      <point x="387" y="390"/>
      <point x="199" y="221"/>
      <point x="150" y="177" type="curve" smooth="yes"/>
      <point x="137" y="165"/>
      <point x="116" y="166"/>
      <point x="104" y="179" type="curve" smooth="yes"/>
      <point x="92" y="192"/>
      <point x="93" y="213"/>
    </contour>
  </outline>
</glyph>
<glyph name="L" format="1">
  <advance width="479"/>
  <unicode hex="004C"/>
  <outline>
    <contour>
      <point x="161" y="518" type="curve" smooth="yes"/>
      <point x="161" y="33" type="line" smooth="yes"/>
      <point x="161" y="15"/>
      <point x="146" y="0"/>
      <point x="128" y="0" type="curve" smooth="yes"/>
      <point x="110" y="0"/>
      <point x="95" y="15"/>
      <point x="95" y="33" type="curve" smooth="yes"/>
      <point x="95" y="518" type="line" smooth="yes"/>
      <point x="95" y="536"/>
      <point x="110" y="551"/>
      <point x="128" y="551" type="curve" smooth="yes"/>
      <point x="146" y="551"/>
      <point x="161" y="536"/>
    </contour>
    <contour>
      <point x="136" y="66" type="curve" smooth="yes"/>
      <point x="409" y="66" type="line" smooth="yes"/>
      <point x="427" y="66"/>
      <point x="442" y="51"/>
      <point x="442" y="33" type="curve" smooth="yes"/>
      <point x="442" y="15"/>
      <point x="427" y="0"/>
      <point x="409" y="0" type="curve" smooth="yes"/>
      <point x="136" y="0" type="line" smooth="yes"/>
      <point x="118" y="0"/>
      <point x="103" y="15"/>
      <point x="103" y="33" type="curve" smooth="yes"/>
      <point x="103" y="51"/>
      <point x="118" y="66"/>
    </contour>
  </outline>
</glyph>
<glyph name="M" format="1">
  <advance width="816"/>
  <unicode hex="004D"/>
  <outline>
    <contour>
      <point x="204" y="516" type="curve" smooth="yes"/>
      <point x="180" y="373"/>
      <point x="148" y="137"/>
      <point x="136" y="22" type="curve" smooth="yes"/>
      <point x="134" y="4"/>
      <point x="117" y="-10"/>
      <point x="100" y="-8" type="curve" smooth="yes"/>
      <point x="82" y="-6"/>
      <point x="68" y="11"/>
      <point x="70" y="28" type="curve" smooth="yes"/>
      <point x="82" y="145"/>
      <point x="114" y="383"/>
      <point x="138" y="526" type="curve" smooth="yes"/>
      <point x="141" y="544"/>
      <point x="159" y="556"/>
      <point x="176" y="554" type="curve" smooth="yes"/>
      <point x="194" y="551"/>
      <point x="206" y="533"/>
    </contour>
    <contour>
      <point x="662" y="528" type="curve" smooth="yes"/>
      <point x="693" y="372"/>
      <point x="727" y="164"/>
      <point x="745" y="29" type="curve" smooth="yes"/>
      <point x="747" y="12"/>
      <point x="734" y="-5"/>
      <point x="716" y="-8" type="curve" smooth="yes"/>
      <point x="699" y="-10"/>
      <point x="682" y="3"/>
      <point x="679" y="21" type="curve" smooth="yes"/>
      <point x="661" y="154"/>
      <point x="629" y="360"/>
      <point x="598" y="516" type="curve" smooth="yes"/>
      <point x="594" y="533"/>
      <point x="606" y="551"/>
      <point x="624" y="554" type="curve" smooth="yes"/>
      <point x="641" y="558"/>
      <point x="659" y="546"/>
    </contour>
    <contour>
      <point x="213" y="522" type="curve" smooth="yes"/>
      <point x="275" y="395"/>
      <point x="369" y="198"/>
      <point x="436" y="58" type="curve" smooth="yes"/>
      <point x="443" y="42"/>
      <point x="436" y="22"/>
      <point x="420" y="14" type="curve" smooth="yes"/>
      <point x="404" y="7"/>
      <point x="384" y="14"/>
      <point x="376" y="30" type="curve" smooth="yes"/>
      <point x="309" y="170"/>
      <point x="215" y="367"/>
      <point x="153" y="494" type="curve" smooth="yes"/>
      <point x="146" y="510"/>
      <point x="153" y="530"/>
      <point x="169" y="538" type="curve" smooth="yes"/>
      <point x="185" y="545"/>
      <point x="205" y="538"/>
    </contour>
    <contour>
      <point x="379" y="69" type="curve" smooth="yes"/>
      <point x="439" y="206"/>
      <point x="519" y="382"/>
      <point x="594" y="529" type="curve" smooth="yes"/>
      <point x="602" y="545"/>
      <point x="622" y="551"/>
      <point x="638" y="543" type="curve" smooth="yes"/>
      <point x="654" y="535"/>
      <point x="660" y="515"/>
      <point x="652" y="499" type="curve" smooth="yes"/>
      <point x="579" y="354"/>
      <point x="499" y="178"/>
      <point x="439" y="43" type="curve" smooth="yes"/>
      <point x="432" y="26"/>
      <point x="412" y="19"/>
      <point x="396" y="26" type="curve" smooth="yes"/>
      <point x="379" y="33"/>
      <point x="372" y="53"/>
    </contour>
  </outline>
</glyph>
<glyph name="N" format="1">
  <advance width="645"/>
  <unicode hex="004E"/>
  <outline>
    <contour>
      <point x="161" y="518" type="curve" smooth="yes"/>
      <point x="161" y="33" type="line" smooth="yes"/>
      <point x="161" y="15"/>
      <point x="146" y="0"/>
      <point x="128" y="0" type="curve" smooth="yes"/>
      <point x="110" y="0"/>
      <point x="95" y="15"/>
      <point x="95" y="33" type="curve" smooth="yes"/>
      <point x="95" y="518" type="line" smooth="yes"/>
      <point x="95" y="536"/>
      <point x="110" y="551"/>
      <point x="128" y="551" type="curve" smooth="yes"/>
      <point x="146" y="551"/>
      <point x="161" y="536"/>
    </contour>
    <contour>
      <point x="550" y="518" type="curve" smooth="yes"/>
      <point x="550" y="33" type="line" smooth="yes"/>
      <point x="550" y="15"/>
      <point x="535" y="0"/>
      <point x="517" y="0" type="curve" smooth="yes"/>
      <point x="499" y="0"/>
      <point x="484" y="15"/>
      <point x="484" y="33" type="curve" smooth="yes"/>
      <point x="484" y="518" type="line" smooth="yes"/>
      <point x="484" y="536"/>
      <point x="499" y="551"/>
      <point x="517" y="551" type="curve" smooth="yes"/>
      <point x="535" y="551"/>
      <point x="550" y="536"/>
    </contour>
    <contour>
      <point x="160" y="538" type="curve" smooth="yes"/>
      <point x="235" y="438"/>
      <point x="430" y="196"/>
      <point x="537" y="53" type="curve" smooth="yes"/>
      <point x="548" y="39"/>
      <point x="545" y="17"/>
      <point x="531" y="7" type="curve" smooth="yes"/>
      <point x="517" y="-4"/>
      <point x="495" y="-1"/>
      <point x="485" y="13" type="curve" smooth="yes"/>
      <point x="378" y="156"/>
      <point x="183" y="398"/>
      <point x="108" y="498" type="curve" smooth="yes"/>
      <point x="97" y="512"/>
      <point x="100" y="534"/>
      <point x="114" y="544" type="curve" smooth="yes"/>
      <point x="128" y="555"/>
      <point x="150" y="552"/>
    </contour>
  </outline>
</glyph>
<glyph name="O" format="1">
  <advance width="640"/>
  <unicode hex="004F"/>
  <outline>
    <contour>
      <point x="322" y="560" type="curve" smooth="yes"/>
      <point x="468" y="560"/>
      <point x="587" y="444"/>
      <point x="587" y="275" type="curve" smooth="yes"/>
      <point x="587" y="114"/>
      <point x="488" y="-9"/>
      <point x="322" y="-9" type="curve" smooth="yes"/>
      <point x="165" y="-9"/>
      <point x="53" y="115"/>
      <point x="53" y="272" type="curve"/>
      <point x="53" y="444"/>
      <point x="163" y="560"/>
    </contour>
    <contour>
      <point x="322" y="494" type="curve" smooth="yes"/>
      <point x="199" y="494"/>
      <point x="119" y="402"/>
      <point x="119" y="272" type="curve" smooth="yes"/>
      <point x="119" y="153"/>
      <point x="201" y="57"/>
      <point x="322" y="57" type="curve" smooth="yes"/>
      <point x="450" y="57"/>
      <point x="521" y="154"/>
      <point x="521" y="275" type="curve" smooth="yes"/>
      <point x="521" y="402"/>
      <point x="434" y="494"/>
    </contour>
  </outline>
</glyph>
<glyph name="P" format="1">
  <advance width="520"/>
  <unicode hex="0050"/>
  <outline>
    <contour>
      <point x="154" y="242" type="curve" smooth="yes"/>
      <point x="271" y="242" type="line" smooth="yes"/>
      <point x="360" y="242"/>
      <point x="409" y="295"/>
      <point x="409" y="364" type="curve" smooth="yes"/>
      <point x="409" y="437"/>
      <point x="350" y="485"/>
      <point x="271" y="485" type="curve" smooth="yes"/>
      <point x="128" y="485" type="line"/>
      <point x="161" y="518" type="line"/>
      <point x="161" y="33" type="line" smooth="yes"/>
      <point x="161" y="15"/>
      <point x="146" y="0"/>
      <point x="128" y="0" type="curve" smooth="yes"/>
      <point x="110" y="0"/>
      <point x="95" y="15"/>
      <point x="95" y="33" type="curve" smooth="yes"/>
      <point x="95" y="518" type="line" smooth="yes"/>
      <point x="95" y="536"/>
      <point x="110" y="551"/>
      <point x="128" y="551" type="curve" smooth="yes"/>
      <point x="271" y="551" type="line" smooth="yes"/>
      <point x="394" y="551"/>
      <point x="475" y="471"/>
      <point x="475" y="364" type="curve" smooth="yes"/>
      <point x="475" y="263"/>
      <point x="408" y="176"/>
      <point x="271" y="176" type="curve" smooth="yes"/>
      <point x="154" y="176" type="line" smooth="yes"/>
      <point x="136" y="176"/>
      <point x="121" y="191"/>
      <point x="121" y="209" type="curve" smooth="yes"/>
      <point x="121" y="227"/>
      <point x="136" y="242"/>
    </contour>
  </outline>
</glyph>
<glyph name="Q" format="1">
  <advance width="620"/>
  <unicode hex="0051"/>
  <outline>
    <contour>
      <point x="312" y="560" type="curve" smooth="yes"/>
      <point x="451" y="560"/>
      <point x="567" y="445"/>
      <point x="567" y="275" type="curve" smooth="yes"/>
      <point x="567" y="113"/>
      <point x="472" y="-9"/>
      <point x="312" y="-9" type="curve" smooth="yes"/>
      <point x="161" y="-9"/>
      <point x="53" y="114"/>
      <point x="53" y="272" type="curve"/>
      <point x="53" y="445"/>
      <point x="160" y="560"/>
    </contour>
    <contour>
      <point x="345" y="29" type="curve" smooth="yes"/>
      <point x="361" y="-32"/>
      <point x="420" y="-77"/>
      <point x="507" y="-77" type="curve" smooth="yes"/>
      <point x="525" y="-77"/>
      <point x="540" y="-92"/>
      <point x="540" y="-110" type="curve" smooth="yes"/>
      <point x="540" y="-128"/>
      <point x="525" y="-143"/>
      <point x="507" y="-143" type="curve" smooth="yes"/>
      <point x="382" y="-143"/>
      <point x="303" y="-72"/>
      <point x="281" y="13" type="curve" smooth="yes"/>
      <point x="277" y="30"/>
      <point x="287" y="48"/>
      <point x="305" y="53" type="curve" smooth="yes"/>
      <point x="322" y="57"/>
      <point x="340" y="47"/>
    </contour>
    <contour>
      <point x="312" y="494" type="curve" smooth="yes"/>
      <point x="194" y="494"/>
      <point x="119" y="401"/>
      <point x="119" y="272" type="curve" smooth="yes"/>
      <point x="119" y="154"/>
      <point x="197" y="57"/>
      <point x="312" y="57" type="curve" smooth="yes"/>
      <point x="434" y="57"/>
      <point x="501" y="155"/>
      <point x="501" y="275" type="curve" smooth="yes"/>
      <point x="501" y="401"/>
      <point x="419" y="494"/>
    </contour>
  </outline>
</glyph>
<glyph name="R" format="1">
  <advance width="539"/>
  <unicode hex="0052"/>
  <outline>
    <contour>
      <point x="154" y="259" type="curve" smooth="yes"/>
      <point x="275" y="259" type="line" smooth="yes"/>
      <point x="360" y="259"/>
      <point x="408" y="307"/>
      <point x="408" y="369" type="curve" smooth="yes"/>
      <point x="408" y="436"/>
      <point x="352" y="479"/>
      <point x="275" y="479" type="curve" smooth="yes"/>
      <point x="128" y="479" type="line"/>
      <point x="161" y="512" type="line"/>
      <point x="161" y="27" type="line" smooth="yes"/>
      <point x="161" y="9"/>
      <point x="146" y="-6"/>
      <point x="128" y="-6" type="curve" smooth="yes"/>
      <point x="110" y="-6"/>
      <point x="95" y="9"/>
      <point x="95" y="27" type="curve" smooth="yes"/>
      <point x="95" y="512" type="line" smooth="yes"/>
      <point x="95" y="530"/>
      <point x="110" y="545"/>
      <point x="128" y="545" type="curve" smooth="yes"/>
      <point x="275" y="545" type="line" smooth="yes"/>
      <point x="398" y="545"/>
      <point x="474" y="470"/>
      <point x="474" y="369" type="curve" smooth="yes"/>
      <point x="474" y="275"/>
      <point x="412" y="193"/>
      <point x="275" y="193" type="curve" smooth="yes"/>
      <point x="154" y="193" type="line" smooth="yes"/>
      <point x="136" y="193"/>
      <point x="121" y="208"/>
      <point x="121" y="226" type="curve" smooth="yes"/>
      <point x="121" y="244"/>
      <point x="136" y="259"/>
    </contour>
    <contour>
      <point x="335" y="234" type="curve" smooth="yes"/>
      <point x="494" y="48" type="line" smooth="yes"/>
      <point x="506" y="35"/>
      <point x="504" y="13"/>
      <point x="490" y="2" type="curve" smooth="yes"/>
      <point x="477" y="-10"/>
      <point x="455" y="-8"/>
      <point x="444" y="6" type="curve" smooth="yes"/>
      <point x="285" y="192" type="line" smooth="yes"/>
      <point x="273" y="205"/>
      <point x="275" y="227"/>
      <point x="289" y="238" type="curve" smooth="yes"/>
      <point x="302" y="250"/>
      <point x="324" y="248"/>
    </contour>
  </outline>
</glyph>
<glyph name="S" format="1">
  <advance width="535"/>
  <unicode hex="0053"/>
  <outline>
    <contour>
      <point x="386" y="463" type="curve" smooth="yes"/>
      <point x="343" y="481"/>
      <point x="311" y="491"/>
      <point x="248" y="491" type="curve" smooth="yes"/>
      <point x="190" y="491"/>
      <point x="145" y="460"/>
      <point x="145" y="420" type="curve" smooth="yes"/>
      <point x="145" y="379"/>
      <point x="174" y="340"/>
      <point x="275" y="320" type="curve" smooth="yes"/>
      <point x="426" y="287"/>
      <point x="465" y="221"/>
      <point x="465" y="146" type="curve" smooth="yes"/>
      <point x="465" y="69"/>
      <point x="413" y="-9"/>
      <point x="268" y="-9" type="curve" smooth="yes"/>
      <point x="202" y="-9"/>
      <point x="140" y="6"/>
      <point x="83" y="38" type="curve" smooth="yes"/>
      <point x="67" y="47"/>
      <point x="61" y="68"/>
      <point x="70" y="83" type="curve" smooth="yes"/>
      <point x="79" y="99"/>
      <point x="100" y="105"/>
      <point x="115" y="96" type="curve" smooth="yes"/>
      <point x="162" y="70"/>
      <point x="214" y="57"/>
      <point x="268" y="57" type="curve" smooth="yes"/>
      <point x="351" y="57"/>
      <point x="399" y="95"/>
      <point x="399" y="146" type="curve" smooth="yes"/>
      <point x="399" y="199"/>
      <point x="356" y="235"/>
      <point x="263" y="256" type="curve" smooth="yes"/>
      <point x="96" y="288"/>
      <point x="79" y="361"/>
      <point x="79" y="420" type="curve" smooth="yes"/>
      <point x="79" y="486"/>
      <point x="136" y="557"/>
      <point x="248" y="557" type="curve" smooth="yes"/>
      <point x="323" y="557"/>
      <point x="359" y="545"/>
      <point x="410" y="525" type="curve" smooth="yes"/>
      <point x="427" y="518"/>
      <point x="435" y="498"/>
      <point x="429" y="482" type="curve" smooth="yes"/>
      <point x="422" y="465"/>
      <point x="402" y="457"/>
    </contour>
  </outline>
</glyph>
<glyph name="T" format="1">
  <advance width="558"/>
  <unicode hex="0054"/>
  <outline>
    <contour>
      <point x="310" y="518" type="curve" smooth="yes"/>
      <point x="310" y="33" type="line" smooth="yes"/>
      <point x="310" y="15"/>
      <point x="295" y="0"/>
      <point x="277" y="0" type="curve" smooth="yes"/>
      <point x="259" y="0"/>
      <point x="244" y="15"/>
      <point x="244" y="33" type="curve" smooth="yes"/>
      <point x="244" y="518" type="line" smooth="yes"/>
      <point x="244" y="536"/>
      <point x="259" y="551"/>
      <point x="277" y="551" type="curve" smooth="yes"/>
      <point x="295" y="551"/>
      <point x="310" y="536"/>
    </contour>
    <contour>
      <point x="65" y="551" type="curve" smooth="yes"/>
      <point x="493" y="551" type="line" smooth="yes"/>
      <point x="511" y="551"/>
      <point x="526" y="536"/>
      <point x="526" y="518" type="curve" smooth="yes"/>
      <point x="526" y="500"/>
      <point x="511" y="485"/>
      <point x="493" y="485" type="curve" smooth="yes"/>
      <point x="65" y="485" type="line" smooth="yes"/>
      <point x="47" y="485"/>
      <point x="32" y="500"/>
      <point x="32" y="518" type="curve" smooth="yes"/>
      <point x="32" y="536"/>
      <point x="47" y="551"/>
    </contour>
  </outline>
</glyph>
<glyph name="U" format="1">
  <advance width="626"/>
  <unicode hex="0055"/>
  <outline>
    <contour>
      <point x="149" y="518" type="curve" smooth="yes"/>
      <point x="149" y="222" type="line" smooth="yes"/>
      <point x="149" y="116"/>
      <point x="215" y="57"/>
      <point x="311" y="57" type="curve" smooth="yes"/>
      <point x="417" y="57"/>
      <point x="477" y="117"/>
      <point x="477" y="225" type="curve" smooth="yes"/>
      <point x="477" y="518" type="line" smooth="yes"/>
      <point x="477" y="536"/>
      <point x="492" y="551"/>
      <point x="510" y="551" type="curve" smooth="yes"/>
      <point x="528" y="551"/>
      <point x="543" y="536"/>
      <point x="543" y="518" type="curve" smooth="yes"/>
      <point x="543" y="225" type="line" smooth="yes"/>
      <point x="543" y="73"/>
      <point x="459" y="-9"/>
      <point x="311" y="-9" type="curve" smooth="yes"/>
      <point x="177" y="-9"/>
      <point x="83" y="74"/>
      <point x="83" y="222" type="curve" smooth="yes"/>
      <point x="83" y="518" type="line" smooth="yes"/>
      <point x="83" y="536"/>
      <point x="98" y="551"/>
      <point x="116" y="551" type="curve" smooth="yes"/>
      <point x="134" y="551"/>
      <point x="149" y="536"/>
    </contour>
  </outline>
</glyph>
<glyph name="V" format="1">
  <advance width="595"/>
  <unicode hex="0056"/>
  <outline>
    <contour>
      <point x="111" y="529" type="curve" smooth="yes"/>
      <point x="151" y="407"/>
      <point x="284" y="118"/>
      <point x="324" y="45" type="curve" smooth="yes"/>
      <point x="333" y="29"/>
      <point x="326" y="8"/>
      <point x="311" y="0" type="curve" smooth="yes"/>
      <point x="295" y="-9"/>
      <point x="274" y="-2"/>
      <point x="266" y="13" type="curve" smooth="yes"/>
      <point x="226" y="88"/>
      <point x="89" y="383"/>
      <point x="49" y="509" type="curve" smooth="yes"/>
      <point x="43" y="526"/>
      <point x="53" y="545"/>
      <point x="70" y="550" type="curve" smooth="yes"/>
      <point x="87" y="556"/>
      <point x="106" y="546"/>
    </contour>
    <contour>
      <point x="269" y="38" type="curve" smooth="yes"/>
      <point x="312" y="122"/>
      <point x="435" y="387"/>
      <point x="484" y="529" type="curve" smooth="yes"/>
      <point x="490" y="546"/>
      <point x="509" y="555"/>
      <point x="526" y="549" type="curve" smooth="yes"/>
      <point x="543" y="543"/>
      <point x="552" y="524"/>
      <point x="546" y="507" type="curve" smooth="yes"/>
      <point x="497" y="363"/>
      <point x="372" y="92"/>
      <point x="327" y="8" type="curve" smooth="yes"/>
      <point x="319" y="-8"/>
      <point x="298" y="-15"/>
      <point x="283" y="-6" type="curve" smooth="yes"/>
      <point x="267" y="2"/>
      <point x="260" y="23"/>
    </contour>
  </outline>
</glyph>
<glyph name="W" format="1">
  <advance width="893"/>
  <unicode hex="0057"/>
  <outline>
    <contour>
      <point x="121" y="520" type="curve" smooth="yes"/>
      <point x="154" y="397"/>
      <point x="253" y="111"/>
      <point x="288" y="38" type="curve" smooth="yes"/>
      <point x="295" y="22"/>
      <point x="288" y="2"/>
      <point x="272" y="-6" type="curve" smooth="yes"/>
      <point x="256" y="-13"/>
      <point x="236" y="-6"/>
      <point x="228" y="10" type="curve" smooth="yes"/>
      <point x="193" y="85"/>
      <point x="92" y="377"/>
      <point x="57" y="502" type="curve" smooth="yes"/>
      <point x="52" y="519"/>
      <point x="63" y="538"/>
      <point x="80" y="543" type="curve" smooth="yes"/>
      <point x="97" y="548"/>
      <point x="116" y="537"/>
    </contour>
    <contour>
      <point x="232" y="31" type="curve" smooth="yes"/>
      <point x="269" y="115"/>
      <point x="373" y="378"/>
      <point x="415" y="518" type="curve" smooth="yes"/>
      <point x="421" y="535"/>
      <point x="440" y="545"/>
      <point x="457" y="540" type="curve" smooth="yes"/>
      <point x="474" y="534"/>
      <point x="484" y="515"/>
      <point x="479" y="498" type="curve" smooth="yes"/>
      <point x="435" y="356"/>
      <point x="329" y="89"/>
      <point x="292" y="5" type="curve" smooth="yes"/>
      <point x="285" y="-12"/>
      <point x="265" y="-19"/>
      <point x="249" y="-12" type="curve" smooth="yes"/>
      <point x="232" y="-5"/>
      <point x="225" y="15"/>
    </contour>
    <contour>
      <point x="483" y="506" type="curve" smooth="yes"/>
      <point x="520" y="385"/>
      <point x="622" y="111"/>
      <point x="658" y="37" type="curve" smooth="yes"/>
      <point x="665" y="21"/>
      <point x="658" y="1"/>
      <point x="642" y="-7" type="curve" smooth="yes"/>
      <point x="626" y="-14"/>
      <point x="606" y="-7"/>
      <point x="598" y="9" type="curve" smooth="yes"/>
      <point x="562" y="83"/>
      <point x="458" y="363"/>
      <point x="419" y="486" type="curve" smooth="yes"/>
      <point x="414" y="503"/>
      <point x="424" y="522"/>
      <point x="441" y="528" type="curve" smooth="yes"/>
      <point x="458" y="533"/>
      <point x="477" y="523"/>
    </contour>
    <contour>
      <point x="602" y="30" type="curve" smooth="yes"/>
      <point x="638" y="114"/>
      <point x="733" y="378"/>
      <point x="773" y="520" type="curve" smooth="yes"/>
      <point x="778" y="537"/>
      <point x="797" y="548"/>
      <point x="814" y="543" type="curve" smooth="yes"/>
      <point x="831" y="538"/>
      <point x="842" y="519"/>
      <point x="837" y="502" type="curve" smooth="yes"/>
      <point x="795" y="358"/>
      <point x="700" y="88"/>
      <point x="662" y="4" type="curve" smooth="yes"/>
      <point x="655" y="-13"/>
      <point x="635" y="-20"/>
      <point x="619" y="-13" type="curve" smooth="yes"/>
      <point x="602" y="-6"/>
      <point x="595" y="14"/>
    </contour>
  </outline>
</glyph>
<glyph name="X" format="1">
  <advance width="573"/>
  <unicode hex="0058"/>
  <outline>
    <contour>
      <point x="130" y="537" type="curve" smooth="yes"/>
      <point x="226" y="397"/>
      <point x="452" y="136"/>
      <point x="511" y="52" type="curve" smooth="yes"/>
      <point x="521" y="37"/>
      <point x="518" y="16"/>
      <point x="503" y="6" type="curve" smooth="yes"/>
      <point x="488" y="-4"/>
      <point x="467" y="-1"/>
      <point x="457" y="14" type="curve" smooth="yes"/>
      <point x="398" y="98"/>
      <point x="172" y="359"/>
      <point x="76" y="499" type="curve" smooth="yes"/>
      <point x="66" y="514"/>
      <point x="70" y="535"/>
      <point x="84" y="545" type="curve" smooth="yes"/>
      <point x="99" y="555"/>
      <point x="120" y="551"/>
    </contour>
    <contour>
      <point x="63" y="53" type="curve" smooth="yes"/>
      <point x="142" y="159"/>
      <point x="351" y="403"/>
      <point x="436" y="536" type="curve" smooth="yes"/>
      <point x="446" y="551"/>
      <point x="467" y="555"/>
      <point x="482" y="546" type="curve" smooth="yes"/>
      <point x="497" y="536"/>
      <point x="501" y="515"/>
      <point x="492" y="500" type="curve" smooth="yes"/>
      <point x="405" y="367"/>
      <point x="196" y="121"/>
      <point x="117" y="13" type="curve" smooth="yes"/>
      <point x="106" y="-1"/>
      <point x="85" y="-4"/>
      <point x="70" y="6" type="curve" smooth="yes"/>
      <point x="56" y="17"/>
      <point x="53" y="38"/>
    </contour>
  </outline>
</glyph>
<glyph name="Y" format="1">
  <advance width="570"/>
  <unicode hex="0059"/>
  <outline>
    <contour>
      <point x="287" y="195" type="move"/>
      <point x="287" y="27" type="line"/>
    </contour>
    <contour>
      <point x="79" y="512" type="move"/>
      <point x="121" y="442"/>
      <point x="241" y="264"/>
      <point x="284" y="207" type="curve"/>
    </contour>
    <contour>
      <point x="287" y="201" type="move"/>
      <point x="336" y="267"/>
      <point x="450" y="443"/>
      <point x="491" y="512" type="curve"/>
    </contour>
  </outline>
</glyph>
<glyph name="Z" format="1">
  <advance width="577"/>
  <unicode hex="005A"/>
  <outline>
    <contour>
      <point x="499" y="500" type="curve" smooth="yes"/>
      <point x="436" y="405"/>
      <point x="183" y="105"/>
      <point x="130" y="23" type="curve" smooth="yes"/>
      <point x="120" y="8"/>
      <point x="99" y="4"/>
      <point x="84" y="13" type="curve" smooth="yes"/>
      <point x="69" y="23"/>
      <point x="65" y="44"/>
      <point x="74" y="59" type="curve" smooth="yes"/>
      <point x="127" y="141"/>
      <point x="380" y="441"/>
      <point x="443" y="536" type="curve" smooth="yes"/>
      <point x="453" y="551"/>
      <point x="474" y="555"/>
      <point x="489" y="546" type="curve" smooth="yes"/>
      <point x="504" y="536"/>
      <point x="508" y="515"/>
    </contour>
    <contour>
      <point x="111" y="551" type="curve" smooth="yes"/>
      <point x="460" y="551" type="line" smooth="yes"/>
      <point x="478" y="551"/>
      <point x="493" y="536"/>
      <point x="493" y="518" type="curve" smooth="yes"/>
      <point x="493" y="500"/>
      <point x="478" y="485"/>
      <point x="460" y="485" type="curve" smooth="yes"/>
      <point x="111" y="485" type="line" smooth="yes"/>
      <point x="93" y="485"/>
      <point x="78" y="500"/>
      <point x="78" y="518" type="curve" smooth="yes"/>
      <point x="78" y="536"/>
      <point x="93" y="551"/>
    </contour>
    <contour>
      <point x="98" y="66" type="curve" smooth="yes"/>
      <point x="483" y="66" type="line" smooth="yes"/>
      <point x="501" y="66"/>
      <point x="516" y="51"/>
      <point x="516" y="33" type="curve" smooth="yes"/>
      <point x="516" y="15"/>
      <point x="501" y="0"/>
      <point x="483" y="0" type="curve" smooth="yes"/>
      <point x="98" y="0" type="line" smooth="yes"/>
      <point x="80" y="0"/>
      <point x="65" y="15"/>
      <point x="65" y="33" type="curve" smooth="yes"/>
      <point x="65" y="51"/>
      <point x="80" y="66"/>
    </contour>
  </outline>
</glyph>
<glyph name="bracketleft" format="1">
  <advance width="325"/>
  <unicode hex="005B"/>
  <outline>
    <contour>
      <point x="238" y="580" type="curve" smooth="yes"/>
      <point x="103" y="580" type="line"/>
      <point x="136" y="613" type="line"/>
      <point x="136" y="-66" type="line"/>
      <point x="103" y="-33" type="line"/>
      <point x="238" y="-33" type="line" smooth="yes"/>
      <point x="256" y="-33"/>
      <point x="271" y="-48"/>
      <point x="271" y="-66" type="curve" smooth="yes"/>
      <point x="271" y="-84"/>
      <point x="256" y="-99"/>
      <point x="238" y="-99" type="curve" smooth="yes"/>
      <point x="103" y="-99" type="line" smooth="yes"/>
      <point x="85" y="-99"/>
      <point x="70" y="-84"/>
      <point x="70" y="-66" type="curve" smooth="yes"/>
      <point x="70" y="613" type="line" smooth="yes"/>
      <point x="70" y="631"/>
      <point x="85" y="646"/>
      <point x="103" y="646" type="curve" smooth="yes"/>
      <point x="238" y="646" type="line" smooth="yes"/>
      <point x="256" y="646"/>
      <point x="271" y="631"/>
      <point x="271" y="613" type="curve" smooth="yes"/>
      <point x="271" y="595"/>
      <point x="256" y="580"/>
    </contour>
  </outline>
</glyph>
<glyph name="asciicircum" format="1">
  <advance width="500"/>
  <unicode hex="005E"/>
  <outline>
    <contour>
      <point x="275" y="511" type="curve" smooth="yes"/>
      <point x="227" y="419"/>
      <point x="176" y="324"/>
      <point x="135" y="244" type="curve" smooth="yes"/>
      <point x="127" y="228"/>
      <point x="107" y="222"/>
      <point x="91" y="230" type="curve" smooth="yes"/>
      <point x="75" y="238"/>
      <point x="69" y="258"/>
      <point x="77" y="274" type="curve" smooth="yes"/>
      <point x="118" y="354"/>
      <point x="169" y="449"/>
      <point x="217" y="541" type="curve" smooth="yes"/>
      <point x="225" y="557"/>
      <point x="245" y="564"/>
      <point x="261" y="555" type="curve" smooth="yes"/>
      <point x="277" y="547"/>
      <point x="284" y="527"/>
    </contour>
    <contour>
      <point x="366" y="244" type="curve" smooth="yes"/>
      <point x="325" y="324"/>
      <point x="276" y="418"/>
      <point x="226" y="510" type="curve" smooth="yes"/>
      <point x="217" y="526"/>
      <point x="224" y="546"/>
      <point x="239" y="555" type="curve" smooth="yes"/>
      <point x="255" y="564"/>
      <point x="275" y="557"/>
      <point x="284" y="542" type="curve" smooth="yes"/>
      <point x="334" y="450"/>
      <point x="383" y="354"/>
      <point x="424" y="274" type="curve" smooth="yes"/>
      <point x="432" y="258"/>
      <point x="426" y="238"/>
      <point x="410" y="230" type="curve" smooth="yes"/>
      <point x="394" y="222"/>
      <point x="374" y="228"/>
    </contour>
  </outline>
</glyph>
<glyph name="underscore" format="1">
  <advance width="545"/>
  <unicode hex="005F"/>
  <outline>
    <contour>
      <point x="65" y="-58" type="curve" smooth="yes"/>
      <point x="480" y="-58" type="line" smooth="yes"/>
      <point x="498" y="-58"/>
      <point x="513" y="-73"/>
      <point x="513" y="-91" type="curve" smooth="yes"/>
      <point x="513" y="-109"/>
      <point x="498" y="-124"/>
      <point x="480" y="-124" type="curve" smooth="yes"/>
      <point x="65" y="-124" type="line" smooth="yes"/>
      <point x="47" y="-124"/>
      <point x="32" y="-109"/>
      <point x="32" y="-91" type="curve" smooth="yes"/>
      <point x="32" y="-73"/>
      <point x="47" y="-58"/>
    </contour>
  </outline>
</glyph>
<glyph name="grave" format="1">
  <advance width="500"/>
  <unicode hex="0060"/>
  <outline>
    <contour>
      <point x="246" y="618" type="curve" smooth="yes"/>
      <point x="275" y="581"/>
      <point x="289" y="563"/>
      <point x="314" y="522" type="curve" smooth="yes"/>
      <point x="323" y="507"/>
      <point x="318" y="486"/>
      <point x="303" y="477" type="curve" smooth="yes"/>
      <point x="288" y="468"/>
      <point x="267" y="473"/>
      <point x="258" y="488" type="curve" smooth="yes"/>
      <point x="235" y="525"/>
      <point x="221" y="543"/>
      <point x="194" y="576" type="curve" smooth="yes"/>
      <point x="183" y="590"/>
      <point x="185" y="612"/>
      <point x="199" y="623" type="curve" smooth="yes"/>
      <point x="213" y="634"/>
      <point x="235" y="632"/>
    </contour>
  </outline>
</glyph>
<glyph name="a" format="1">
  <advance width="456"/>
  <unicode hex="0061"/>
  <outline>
    <contour>
      <point x="117" y="390" type="curve" smooth="yes"/>
      <point x="140" y="398"/>
      <point x="183" y="408"/>
      <point x="220" y="408" type="curve" smooth="yes"/>
      <point x="334" y="408"/>
      <point x="387" y="339"/>
      <point x="387" y="238" type="curve" smooth="yes"/>
      <point x="387" y="147" type="line" smooth="yes"/>
      <point x="387" y="103"/>
      <point x="396" y="77"/>
      <point x="415" y="56" type="curve" smooth="yes"/>
      <point x="427" y="43"/>
      <point x="426" y="22"/>
      <point x="413" y="10" type="curve" smooth="yes"/>
      <point x="400" y="-2"/>
      <point x="379" y="-1"/>
      <point x="367" y="12" type="curve" smooth="yes"/>
      <point x="338" y="43"/>
      <point x="321" y="81"/>
      <point x="321" y="147" type="curve" smooth="yes"/>
      <point x="321" y="238" type="line" smooth="yes"/>
      <point x="321" y="299"/>
      <point x="290" y="342"/>
      <point x="220" y="342" type="curve" smooth="yes"/>
      <point x="191" y="342"/>
      <point x="156" y="334"/>
      <point x="137" y="328" type="curve" smooth="yes"/>
      <point x="121" y="322"/>
      <point x="101" y="332"/>
      <point x="96" y="349" type="curve" smooth="yes"/>
      <point x="90" y="365"/>
      <point x="100" y="385"/>
    </contour>
    <contour>
      <point x="352" y="194" type="curve" smooth="yes"/>
      <point x="318" y="195"/>
      <point x="289" y="197"/>
      <point x="260" y="197" type="curve" smooth="yes"/>
      <point x="199" y="197"/>
      <point x="157" y="184"/>
      <point x="131" y="159" type="curve" smooth="yes"/>
      <point x="117" y="145"/>
      <point x="113" y="130"/>
      <point x="113" y="114" type="curve" smooth="yes"/>
      <point x="113" y="90"/>
      <point x="135" y="66"/>
      <point x="177" y="66" type="curve" smooth="yes"/>
      <point x="240" y="66"/>
      <point x="287" y="92"/>
      <point x="327" y="148" type="curve" smooth="yes"/>
      <point x="338" y="162"/>
      <point x="359" y="165"/>
      <point x="374" y="155" type="curve" smooth="yes"/>
      <point x="388" y="144"/>
      <point x="391" y="123"/>
      <point x="381" y="108" type="curve" smooth="yes"/>
      <point x="325" y="34"/>
      <point x="262" y="0"/>
      <point x="177" y="0" type="curve" smooth="yes"/>
      <point x="77" y="0"/>
      <point x="47" y="66"/>
      <point x="47" y="114" type="curve"/>
      <point x="47" y="148"/>
      <point x="57" y="179"/>
      <point x="85" y="205" type="curve" smooth="yes"/>
      <point x="119" y="240"/>
      <point x="175" y="263"/>
      <point x="260" y="263" type="curve" smooth="yes"/>
      <point x="289" y="263"/>
      <point x="320" y="261"/>
      <point x="354" y="260" type="curve" smooth="yes"/>
      <point x="372" y="259"/>
      <point x="387" y="244"/>
      <point x="386" y="226" type="curve" smooth="yes"/>
      <point x="385" y="208"/>
      <point x="370" y="193"/>
    </contour>
  </outline>
</glyph>
<glyph name="b" format="1">
  <advance width="515"/>
  <unicode hex="0062"/>
  <outline>
    <contour>
      <point x="82" y="28" type="curve" smooth="yes"/>
      <point x="82" y="538" type="line" smooth="yes"/>
      <point x="82" y="556"/>
      <point x="97" y="571"/>
      <point x="115" y="571" type="curve" smooth="yes"/>
      <point x="133" y="571"/>
      <point x="148" y="556"/>
      <point x="148" y="538" type="curve" smooth="yes"/>
      <point x="148" y="28" type="line" smooth="yes"/>
      <point x="148" y="10"/>
      <point x="133" y="-5"/>
      <point x="115" y="-5" type="curve" smooth="yes"/>
      <point x="97" y="-5"/>
      <point x="82" y="10"/>
    </contour>
    <contour>
      <point x="131" y="95" type="curve" smooth="yes"/>
      <point x="174" y="72"/>
      <point x="220" y="60"/>
      <point x="273" y="60" type="curve" smooth="yes"/>
      <point x="350" y="60"/>
      <point x="404" y="114"/>
      <point x="404" y="197" type="curve" smooth="yes"/>
      <point x="404" y="277"/>
      <point x="354" y="336"/>
      <point x="286" y="336" type="curve" smooth="yes"/>
      <point x="233" y="336"/>
      <point x="182" y="296"/>
      <point x="144" y="236" type="curve" smooth="yes"/>
      <point x="135" y="220"/>
      <point x="114" y="216"/>
      <point x="99" y="225" type="curve" smooth="yes"/>
      <point x="83" y="234"/>
      <point x="79" y="255"/>
      <point x="88" y="270" type="curve" smooth="yes"/>
      <point x="140" y="354"/>
      <point x="215" y="402"/>
      <point x="286" y="402" type="curve" smooth="yes"/>
      <point x="386" y="402"/>
      <point x="470" y="323"/>
      <point x="470" y="197" type="curve" smooth="yes"/>
      <point x="470" y="72"/>
      <point x="388" y="-6"/>
      <point x="273" y="-6" type="curve" smooth="yes"/>
      <point x="208" y="-6"/>
      <point x="152" y="8"/>
      <point x="99" y="37" type="curve" smooth="yes"/>
      <point x="84" y="45"/>
      <point x="77" y="66"/>
      <point x="86" y="82" type="curve" smooth="yes"/>
      <point x="94" y="97"/>
      <point x="115" y="104"/>
    </contour>
  </outline>
</glyph>
<glyph name="c" format="1">
  <advance width="443"/>
  <unicode hex="0063"/>
  <outline>
    <contour>
      <point x="344" y="323" type="curve" smooth="yes"/>
      <point x="320" y="331"/>
      <point x="291" y="336"/>
      <point x="265" y="336" type="curve" smooth="yes"/>
      <point x="169" y="336"/>
      <point x="112" y="275"/>
      <point x="112" y="189" type="curve" smooth="yes"/>
      <point x="112" y="114"/>
      <point x="169" y="60"/>
      <point x="264" y="60" type="curve" smooth="yes"/>
      <point x="300" y="60"/>
      <point x="329" y="67"/>
      <point x="354" y="77" type="curve" smooth="yes"/>
      <point x="371" y="83"/>
      <point x="390" y="75"/>
      <point x="397" y="58" type="curve" smooth="yes"/>
      <point x="403" y="41"/>
      <point x="395" y="22"/>
      <point x="378" y="15" type="curve" smooth="yes"/>
      <point x="347" y="3"/>
      <point x="310" y="-6"/>
      <point x="264" y="-6" type="curve" smooth="yes"/>
      <point x="121" y="-6"/>
      <point x="46" y="82"/>
      <point x="46" y="189" type="curve"/>
      <point x="46" y="311"/>
      <point x="125" y="402"/>
      <point x="265" y="402" type="curve" smooth="yes"/>
      <point x="297" y="402"/>
      <point x="334" y="395"/>
      <point x="364" y="385" type="curve" smooth="yes"/>
      <point x="381" y="380"/>
      <point x="391" y="360"/>
      <point x="385" y="344" type="curve" smooth="yes"/>
      <point x="380" y="327"/>
      <point x="360" y="317"/>
    </contour>
  </outline>
</glyph>
<glyph name="d" format="1">
  <advance width="514"/>
  <unicode hex="0064"/>
  <outline>
    <contour>
      <point x="378" y="291" type="curve" smooth="yes"/>
      <point x="339" y="322"/>
      <point x="301" y="342"/>
      <point x="249" y="342" type="curve" smooth="yes"/>
      <point x="169" y="342"/>
      <point x="111" y="280"/>
      <point x="111" y="196" type="curve" smooth="yes"/>
      <point x="111" y="119"/>
      <point x="160" y="66"/>
      <point x="228" y="66" type="curve" smooth="yes"/>
      <point x="292" y="66"/>
      <point x="337" y="112"/>
      <point x="370" y="167" type="curve" smooth="yes"/>
      <point x="379" y="182"/>
      <point x="399" y="187"/>
      <point x="415" y="178" type="curve" smooth="yes"/>
      <point x="430" y="169"/>
      <point x="435" y="149"/>
      <point x="426" y="133" type="curve" smooth="yes"/>
      <point x="381" y="56"/>
      <point x="316" y="0"/>
      <point x="228" y="0" type="curve" smooth="yes"/>
      <point x="126" y="0"/>
      <point x="45" y="75"/>
      <point x="45" y="196" type="curve"/>
      <point x="45" y="320"/>
      <point x="133" y="408"/>
      <point x="249" y="408" type="curve" smooth="yes"/>
      <point x="317" y="408"/>
      <point x="369" y="384"/>
      <point x="420" y="341" type="curve" smooth="yes"/>
      <point x="434" y="330"/>
      <point x="436" y="309"/>
      <point x="424" y="295" type="curve" smooth="yes"/>
      <point x="413" y="281"/>
      <point x="392" y="279"/>
    </contour>
    <contour>
      <point x="432" y="544" type="curve" smooth="yes"/>
      <point x="432" y="33" type="line" smooth="yes"/>
      <point x="432" y="15"/>
      <point x="417" y="0"/>
      <point x="399" y="0" type="curve" smooth="yes"/>
      <point x="381" y="0"/>
      <point x="366" y="15"/>
      <point x="366" y="33" type="curve" smooth="yes"/>
      <point x="366" y="544" type="line" smooth="yes"/>
      <point x="366" y="562"/>
      <point x="381" y="577"/>
      <point x="399" y="577" type="curve" smooth="yes"/>
      <point x="417" y="577"/>
      <point x="432" y="562"/>
    </contour>
  </outline>
</glyph>
<glyph name="e" format="1">
  <advance width="468"/>
  <unicode hex="0065"/>
  <outline>
    <contour>
      <point x="92" y="236" type="curve" smooth="yes"/>
      <point x="311" y="236" type="line" smooth="yes"/>
      <point x="329" y="236"/>
      <point x="350" y="239"/>
      <point x="350" y="261" type="curve" smooth="yes"/>
      <point x="350" y="292"/>
      <point x="309" y="336"/>
      <point x="247" y="336" type="curve" smooth="yes"/>
      <point x="171" y="336"/>
      <point x="112" y="277"/>
      <point x="112" y="193" type="curve" smooth="yes"/>
      <point x="112" y="104"/>
      <point x="178" y="60"/>
      <point x="267" y="60" type="curve" smooth="yes"/>
      <point x="299" y="60"/>
      <point x="329" y="67"/>
      <point x="352" y="76" type="curve" smooth="yes"/>
      <point x="369" y="82"/>
      <point x="388" y="73"/>
      <point x="395" y="57" type="curve" smooth="yes"/>
      <point x="401" y="40"/>
      <point x="392" y="21"/>
      <point x="376" y="14" type="curve" smooth="yes"/>
      <point x="347" y="3"/>
      <point x="307" y="-6"/>
      <point x="267" y="-6" type="curve" smooth="yes"/>
      <point x="134" y="-6"/>
      <point x="46" y="66"/>
      <point x="46" y="193" type="curve"/>
      <point x="46" y="319"/>
      <point x="137" y="402"/>
      <point x="247" y="402" type="curve" smooth="yes"/>
      <point x="363" y="402"/>
      <point x="416" y="312"/>
      <point x="416" y="261" type="curve" smooth="yes"/>
      <point x="416" y="203"/>
      <point x="375" y="170"/>
      <point x="311" y="170" type="curve" smooth="yes"/>
      <point x="92" y="170" type="line" smooth="yes"/>
      <point x="74" y="170"/>
      <point x="59" y="185"/>
      <point x="59" y="203" type="curve" smooth="yes"/>
      <point x="59" y="221"/>
      <point x="74" y="236"/>
    </contour>
  </outline>
</glyph>
<glyph name="f" format="1">
  <advance width="328"/>
  <unicode hex="0066"/>
  <outline>
    <contour>
      <point x="277" y="537" type="curve" smooth="yes"/>
      <point x="201" y="533"/>
      <point x="172" y="502"/>
      <point x="172" y="448" type="curve" smooth="yes"/>
      <point x="172" y="33" type="line" smooth="yes"/>
      <point x="172" y="15"/>
      <point x="157" y="0"/>
      <point x="139" y="0" type="curve" smooth="yes"/>
      <point x="121" y="0"/>
      <point x="106" y="15"/>
      <point x="106" y="33" type="curve" smooth="yes"/>
      <point x="106" y="448" type="line" smooth="yes"/>
      <point x="106" y="534"/>
      <point x="141" y="595"/>
      <point x="273" y="603" type="curve" smooth="yes"/>
      <point x="291" y="604"/>
      <point x="307" y="590"/>
      <point x="308" y="572" type="curve" smooth="yes"/>
      <point x="309" y="554"/>
      <point x="295" y="538"/>
    </contour>
    <contour>
      <point x="51" y="408" type="curve" smooth="yes"/>
      <point x="277" y="408" type="line" smooth="yes"/>
      <point x="295" y="408"/>
      <point x="310" y="393"/>
      <point x="310" y="375" type="curve" smooth="yes"/>
      <point x="310" y="357"/>
      <point x="295" y="342"/>
      <point x="277" y="342" type="curve" smooth="yes"/>
      <point x="51" y="342" type="line" smooth="yes"/>
      <point x="33" y="342"/>
      <point x="18" y="357"/>
      <point x="18" y="375" type="curve" smooth="yes"/>
      <point x="18" y="393"/>
      <point x="33" y="408"/>
    </contour>
  </outline>
</glyph>
<glyph name="g" format="1">
  <advance width="512"/>
  <unicode hex="0067"/>
  <outline>
    <contour>
      <point x="383" y="308" type="curve" smooth="yes"/>
      <point x="336" y="331"/>
      <point x="304" y="342"/>
      <point x="254" y="342" type="curve" smooth="yes"/>
      <point x="181" y="342"/>
      <point x="111" y="284"/>
      <point x="111" y="195" type="curve" smooth="yes"/>
      <point x="111" y="114"/>
      <point x="165" y="78"/>
      <point x="220" y="78" type="curve" smooth="yes"/>
      <point x="276" y="78"/>
      <point x="331" y="111"/>
      <point x="368" y="170" type="curve" smooth="yes"/>
      <point x="378" y="185"/>
      <point x="398" y="189"/>
      <point x="414" y="180" type="curve" smooth="yes"/>
      <point x="429" y="170"/>
      <point x="433" y="150"/>
      <point x="424" y="134" type="curve" smooth="yes"/>
      <point x="373" y="53"/>
      <point x="296" y="12"/>
      <point x="220" y="12" type="curve" smooth="yes"/>
      <point x="133" y="12"/>
      <point x="45" y="66"/>
      <point x="45" y="195" type="curve"/>
      <point x="45" y="326"/>
      <point x="149" y="408"/>
      <point x="254" y="408" type="curve" smooth="yes"/>
      <point x="316" y="408"/>
      <point x="354" y="395"/>
      <point x="411" y="368" type="curve" smooth="yes"/>
      <point x="427" y="360"/>
      <point x="434" y="340"/>
      <point x="427" y="324" type="curve" smooth="yes"/>
      <point x="419" y="308"/>
      <point x="399" y="301"/>
    </contour>
    <contour>
      <point x="166" y="-115" type="curve" smooth="yes"/>
      <point x="299" y="-115"/>
      <point x="364" y="-67"/>
      <point x="364" y="49" type="curve" smooth="yes"/>
      <point x="364" y="375" type="line" smooth="yes"/>
      <point x="364" y="393"/>
      <point x="379" y="408"/>
      <point x="397" y="408" type="curve" smooth="yes"/>
      <point x="415" y="408"/>
      <point x="430" y="393"/>
      <point x="430" y="375" type="curve" smooth="yes"/>
      <point x="430" y="49" type="line" smooth="yes"/>
      <point x="430" y="-105"/>
      <point x="353" y="-181"/>
      <point x="166" y="-181" type="curve" smooth="yes"/>
      <point x="148" y="-181"/>
      <point x="133" y="-166"/>
      <point x="133" y="-148" type="curve" smooth="yes"/>
      <point x="133" y="-130"/>
      <point x="148" y="-115"/>
    </contour>
  </outline>
</glyph>
<glyph name="h" format="1">
  <advance width="507"/>
  <unicode hex="0068"/>
  <outline>
    <contour>
      <point x="82" y="33" type="curve" smooth="yes"/>
      <point x="82" y="544" type="line" smooth="yes"/>
      <point x="82" y="562"/>
      <point x="97" y="577"/>
      <point x="115" y="577" type="curve" smooth="yes"/>
      <point x="133" y="577"/>
      <point x="148" y="562"/>
      <point x="148" y="544" type="curve" smooth="yes"/>
      <point x="148" y="33" type="line" smooth="yes"/>
      <point x="148" y="15"/>
      <point x="133" y="0"/>
      <point x="115" y="0" type="curve" smooth="yes"/>
      <point x="97" y="0"/>
      <point x="82" y="15"/>
    </contour>
    <contour>
      <point x="369" y="33" type="curve" smooth="yes"/>
      <point x="369" y="233" type="line" smooth="yes"/>
      <point x="369" y="307"/>
      <point x="339" y="342"/>
      <point x="290" y="342" type="curve" smooth="yes"/>
      <point x="235" y="342"/>
      <point x="184" y="306"/>
      <point x="142" y="265" type="curve" smooth="yes"/>
      <point x="130" y="252"/>
      <point x="108" y="252"/>
      <point x="96" y="265" type="curve" smooth="yes"/>
      <point x="83" y="277"/>
      <point x="83" y="299"/>
      <point x="96" y="311" type="curve" smooth="yes"/>
      <point x="150" y="366"/>
      <point x="219" y="408"/>
      <point x="290" y="408" type="curve" smooth="yes"/>
      <point x="369" y="408"/>
      <point x="435" y="369"/>
      <point x="435" y="233" type="curve" smooth="yes"/>
      <point x="435" y="33" type="line" smooth="yes"/>
      <point x="435" y="15"/>
      <point x="420" y="0"/>
      <point x="402" y="0" type="curve" smooth="yes"/>
      <point x="384" y="0"/>
      <point x="369" y="15"/>
    </contour>
  </outline>
</glyph>
<glyph name="i" format="1">
  <advance width="217"/>
  <unicode hex="0069"/>
  <outline>
    <contour>
      <point x="109" y="610" type="curve" smooth="yes"/>
      <point x="134" y="610"/>
      <point x="159" y="589"/>
      <point x="159" y="551" type="curve" smooth="yes"/>
      <point x="159" y="513"/>
      <point x="135" y="494"/>
      <point x="109" y="494" type="curve" smooth="yes"/>
      <point x="81" y="494"/>
      <point x="57" y="515"/>
      <point x="57" y="551" type="curve"/>
      <point x="57" y="587"/>
      <point x="82" y="610"/>
    </contour>
    <contour>
      <point x="75" y="27" type="curve" smooth="yes"/>
      <point x="75" y="369" type="line" smooth="yes"/>
      <point x="75" y="387"/>
      <point x="90" y="402"/>
      <point x="108" y="402" type="curve" smooth="yes"/>
      <point x="126" y="402"/>
      <point x="141" y="387"/>
      <point x="141" y="369" type="curve" smooth="yes"/>
      <point x="141" y="27" type="line" smooth="yes"/>
      <point x="141" y="9"/>
      <point x="126" y="-6"/>
      <point x="108" y="-6" type="curve" smooth="yes"/>
      <point x="90" y="-6"/>
      <point x="75" y="9"/>
    </contour>
  </outline>
</glyph>
<glyph name="j" format="1">
  <advance width="220"/>
  <unicode hex="006A"/>
  <outline>
    <contour>
      <point x="112" y="616" type="curve" smooth="yes"/>
      <point x="137" y="616"/>
      <point x="162" y="595"/>
      <point x="162" y="557" type="curve" smooth="yes"/>
      <point x="162" y="519"/>
      <point x="138" y="500"/>
      <point x="112" y="500" type="curve" smooth="yes"/>
      <point x="84" y="500"/>
      <point x="60" y="521"/>
      <point x="60" y="557" type="curve"/>
      <point x="60" y="593"/>
      <point x="85" y="616"/>
    </contour>
    <contour>
      <point x="-11" y="-94" type="curve" smooth="yes"/>
      <point x="47" y="-72"/>
      <point x="78" y="-29"/>
      <point x="78" y="52" type="curve" smooth="yes"/>
      <point x="78" y="375" type="line" smooth="yes"/>
      <point x="78" y="393"/>
      <point x="93" y="408"/>
      <point x="111" y="408" type="curve" smooth="yes"/>
      <point x="129" y="408"/>
      <point x="144" y="393"/>
      <point x="144" y="375" type="curve" smooth="yes"/>
      <point x="144" y="52" type="line" smooth="yes"/>
      <point x="144" y="-65"/>
      <point x="95" y="-124"/>
      <point x="13" y="-156" type="curve" smooth="yes"/>
      <point x="-4" y="-162"/>
      <point x="-23" y="-154"/>
      <point x="-30" y="-137" type="curve" smooth="yes"/>
      <point x="-36" y="-120"/>
      <point x="-28" y="-101"/>
    </contour>
  </outline>
</glyph>
<glyph name="k" format="1">
  <advance width="483"/>
  <unicode hex="006B"/>
  <outline>
    <contour>
      <point x="82" y="33" type="curve" smooth="yes"/>
      <point x="82" y="544" type="line" smooth="yes"/>
      <point x="82" y="562"/>
      <point x="97" y="577"/>
      <point x="115" y="577" type="curve" smooth="yes"/>
      <point x="133" y="577"/>
      <point x="148" y="562"/>
      <point x="148" y="544" type="curve" smooth="yes"/>
      <point x="148" y="33" type="line" smooth="yes"/>
      <point x="148" y="15"/>
      <point x="133" y="0"/>
      <point x="115" y="0" type="curve" smooth="yes"/>
      <point x="97" y="0"/>
      <point x="82" y="15"/>
    </contour>
    <contour>
      <point x="266" y="278" type="curve" smooth="yes"/>
      <point x="427" y="52" type="line" smooth="yes"/>
      <point x="437" y="38"/>
      <point x="434" y="16"/>
      <point x="419" y="6" type="curve" smooth="yes"/>
      <point x="405" y="-4"/>
      <point x="383" y="-1"/>
      <point x="373" y="14" type="curve" smooth="yes"/>
      <point x="212" y="240" type="line" smooth="yes"/>
      <point x="202" y="254"/>
      <point x="205" y="276"/>
      <point x="220" y="286" type="curve" smooth="yes"/>
      <point x="234" y="296"/>
      <point x="256" y="293"/>
    </contour>
    <contour>
      <point x="407" y="349" type="curve" smooth="yes"/>
      <point x="137" y="137" type="line" smooth="yes"/>
      <point x="123" y="126"/>
      <point x="102" y="129"/>
      <point x="91" y="143" type="curve" smooth="yes"/>
      <point x="80" y="157"/>
      <point x="83" y="178"/>
      <point x="97" y="189" type="curve" smooth="yes"/>
      <point x="367" y="401" type="line" smooth="yes"/>
      <point x="381" y="412"/>
      <point x="402" y="409"/>
      <point x="413" y="395" type="curve" smooth="yes"/>
      <point x="424" y="381"/>
      <point x="421" y="360"/>
    </contour>
  </outline>
</glyph>
<glyph name="l" format="1">
  <advance width="242"/>
  <unicode hex="006C"/>
  <outline>
    <contour>
      <point x="88" y="27" type="curve" smooth="yes"/>
      <point x="88" y="538" type="line" smooth="yes"/>
      <point x="88" y="556"/>
      <point x="103" y="571"/>
      <point x="121" y="571" type="curve" smooth="yes"/>
      <point x="139" y="571"/>
      <point x="154" y="556"/>
      <point x="154" y="538" type="curve" smooth="yes"/>
      <point x="154" y="27" type="line" smooth="yes"/>
      <point x="154" y="9"/>
      <point x="139" y="-6"/>
      <point x="121" y="-6" type="curve" smooth="yes"/>
      <point x="103" y="-6"/>
      <point x="88" y="9"/>
    </contour>
  </outline>
</glyph>
<glyph name="m" format="1">
  <advance width="762"/>
  <unicode hex="006D"/>
  <outline>
    <contour>
      <point x="82" y="33" type="curve" smooth="yes"/>
      <point x="82" y="375" type="line" smooth="yes"/>
      <point x="82" y="393"/>
      <point x="97" y="408"/>
      <point x="115" y="408" type="curve" smooth="yes"/>
      <point x="133" y="408"/>
      <point x="148" y="393"/>
      <point x="148" y="375" type="curve" smooth="yes"/>
      <point x="148" y="33" type="line" smooth="yes"/>
      <point x="148" y="15"/>
      <point x="133" y="0"/>
      <point x="115" y="0" type="curve" smooth="yes"/>
      <point x="97" y="0"/>
      <point x="82" y="15"/>
    </contour>
    <contour>
      <point x="354" y="33" type="curve" smooth="yes"/>
      <point x="354" y="243" type="line" smooth="yes"/>
      <point x="354" y="315"/>
      <point x="324" y="342"/>
      <point x="278" y="342" type="curve" smooth="yes"/>
      <point x="229" y="342"/>
      <point x="179" y="305"/>
      <point x="142" y="264" type="curve" smooth="yes"/>
      <point x="130" y="251"/>
      <point x="108" y="250"/>
      <point x="95" y="261" type="curve" smooth="yes"/>
      <point x="82" y="273"/>
      <point x="81" y="295"/>
      <point x="92" y="308" type="curve" smooth="yes"/>
      <point x="143" y="365"/>
      <point x="213" y="408"/>
      <point x="278" y="408" type="curve" smooth="yes"/>
      <point x="354" y="408"/>
      <point x="420" y="377"/>
      <point x="420" y="243" type="curve" smooth="yes"/>
      <point x="420" y="33" type="line" smooth="yes"/>
      <point x="420" y="15"/>
      <point x="405" y="0"/>
      <point x="387" y="0" type="curve" smooth="yes"/>
      <point x="369" y="0"/>
      <point x="354" y="15"/>
    </contour>
    <contour>
      <point x="624" y="33" type="curve" smooth="yes"/>
      <point x="624" y="243" type="line" smooth="yes"/>
      <point x="624" y="315"/>
      <point x="594" y="342"/>
      <point x="548" y="342" type="curve" smooth="yes"/>
      <point x="499" y="342"/>
      <point x="450" y="305"/>
      <point x="411" y="264" type="curve" smooth="yes"/>
      <point x="399" y="251"/>
      <point x="378" y="250"/>
      <point x="365" y="262" type="curve" smooth="yes"/>
      <point x="352" y="274"/>
      <point x="351" y="295"/>
      <point x="363" y="308" type="curve" smooth="yes"/>
      <point x="414" y="365"/>
      <point x="483" y="408"/>
      <point x="548" y="408" type="curve" smooth="yes"/>
      <point x="624" y="408"/>
      <point x="690" y="377"/>
      <point x="690" y="243" type="curve" smooth="yes"/>
      <point x="690" y="33" type="line" smooth="yes"/>
      <point x="690" y="15"/>
      <point x="675" y="0"/>
      <point x="657" y="0" type="curve" smooth="yes"/>
      <point x="639" y="0"/>
      <point x="624" y="15"/>
    </contour>
  </outline>
</glyph>
<glyph name="o" format="1">
  <advance width="504"/>
  <unicode hex="006F"/>
  <outline>
    <contour>
      <point x="252" y="412" type="curve" smooth="yes"/>
      <point x="379" y="412"/>
      <point x="459" y="317"/>
      <point x="459" y="199" type="curve" smooth="yes"/>
      <point x="459" y="85"/>
      <point x="379" y="-4"/>
      <point x="252" y="-4" type="curve" smooth="yes"/>
      <point x="126" y="-4"/>
      <point x="45" y="86"/>
      <point x="45" y="201" type="curve"/>
      <point x="45" y="316"/>
      <point x="124" y="412"/>
    </contour>
    <contour>
      <point x="252" y="346" type="curve" smooth="yes"/>
      <point x="164" y="346"/>
      <point x="111" y="280"/>
      <point x="111" y="201" type="curve" smooth="yes"/>
      <point x="111" y="122"/>
      <point x="166" y="62"/>
      <point x="252" y="62" type="curve" smooth="yes"/>
      <point x="337" y="62"/>
      <point x="393" y="121"/>
      <point x="393" y="199" type="curve" smooth="yes"/>
      <point x="393" y="279"/>
      <point x="339" y="346"/>
    </contour>
  </outline>
</glyph>
<glyph name="p" format="1">
  <advance width="513"/>
  <unicode hex="0070"/>
  <outline>
    <contour>
      <point x="82" y="-164" type="curve" smooth="yes"/>
      <point x="82" y="369" type="line" smooth="yes"/>
      <point x="82" y="387"/>
      <point x="97" y="402"/>
      <point x="115" y="402" type="curve" smooth="yes"/>
      <point x="133" y="402"/>
      <point x="148" y="387"/>
      <point x="148" y="369" type="curve" smooth="yes"/>
      <point x="148" y="-164" type="line" smooth="yes"/>
      <point x="148" y="-182"/>
      <point x="133" y="-197"/>
      <point x="115" y="-197" type="curve" smooth="yes"/>
      <point x="97" y="-197"/>
      <point x="82" y="-182"/>
    </contour>
    <contour>
      <point x="136" y="116" type="curve" smooth="yes"/>
      <point x="176" y="84"/>
      <point x="223" y="60"/>
      <point x="270" y="60" type="curve" smooth="yes"/>
      <point x="349" y="60"/>
      <point x="402" y="120"/>
      <point x="402" y="198" type="curve" smooth="yes"/>
      <point x="402" y="285"/>
      <point x="347" y="336"/>
      <point x="282" y="336" type="curve" smooth="yes"/>
      <point x="227" y="336"/>
      <point x="181" y="297"/>
      <point x="143" y="243" type="curve" smooth="yes"/>
      <point x="133" y="228"/>
      <point x="112" y="225"/>
      <point x="97" y="235" type="curve" smooth="yes"/>
      <point x="82" y="245"/>
      <point x="79" y="266"/>
      <point x="89" y="281" type="curve" smooth="yes"/>
      <point x="141" y="355"/>
      <point x="207" y="402"/>
      <point x="282" y="402" type="curve" smooth="yes"/>
      <point x="379" y="402"/>
      <point x="468" y="333"/>
      <point x="468" y="198" type="curve" smooth="yes"/>
      <point x="468" y="82"/>
      <point x="387" y="-6"/>
      <point x="270" y="-6" type="curve" smooth="yes"/>
      <point x="209" y="-6"/>
      <point x="146" y="22"/>
      <point x="94" y="66" type="curve" smooth="yes"/>
      <point x="80" y="77"/>
      <point x="78" y="98"/>
      <point x="90" y="112" type="curve" smooth="yes"/>
      <point x="101" y="126"/>
      <point x="122" y="128"/>
    </contour>
  </outline>
</glyph>
<glyph name="q" format="1">
  <advance width="513"/>
  <unicode hex="0071"/>
  <outline>
    <contour>
      <point x="431" y="369" type="curve" smooth="yes"/>
      <point x="431" y="-164" type="line" smooth="yes"/>
      <point x="431" y="-182"/>
      <point x="416" y="-197"/>
      <point x="398" y="-197" type="curve" smooth="yes"/>
      <point x="380" y="-197"/>
      <point x="365" y="-182"/>
      <point x="365" y="-164" type="curve" smooth="yes"/>
      <point x="365" y="369" type="line" smooth="yes"/>
      <point x="365" y="387"/>
      <point x="380" y="402"/>
      <point x="398" y="402" type="curve" smooth="yes"/>
      <point x="416" y="402"/>
      <point x="431" y="387"/>
    </contour>
    <contour>
      <point x="380" y="300" type="curve" smooth="yes"/>
      <point x="344" y="323"/>
      <point x="305" y="336"/>
      <point x="254" y="336" type="curve" smooth="yes"/>
      <point x="176" y="336"/>
      <point x="110" y="277"/>
      <point x="110" y="183" type="curve" smooth="yes"/>
      <point x="110" y="107"/>
      <point x="165" y="60"/>
      <point x="225" y="60" type="curve" smooth="yes"/>
      <point x="279" y="60"/>
      <point x="331" y="91"/>
      <point x="369" y="152" type="curve" smooth="yes"/>
      <point x="378" y="167"/>
      <point x="399" y="172"/>
      <point x="414" y="163" type="curve" smooth="yes"/>
      <point x="429" y="154"/>
      <point x="434" y="133"/>
      <point x="425" y="118" type="curve" smooth="yes"/>
      <point x="373" y="33"/>
      <point x="299" y="-6"/>
      <point x="225" y="-6" type="curve" smooth="yes"/>
      <point x="133" y="-6"/>
      <point x="44" y="63"/>
      <point x="44" y="183" type="curve"/>
      <point x="44" y="321"/>
      <point x="142" y="402"/>
      <point x="254" y="402" type="curve" smooth="yes"/>
      <point x="319" y="402"/>
      <point x="370" y="385"/>
      <point x="416" y="356" type="curve" smooth="yes"/>
      <point x="431" y="346"/>
      <point x="435" y="325"/>
      <point x="426" y="310" type="curve" smooth="yes"/>
      <point x="416" y="295"/>
      <point x="395" y="291"/>
    </contour>
  </outline>
</glyph>
<glyph name="r" format="1">
  <advance width="358"/>
  <unicode hex="0072"/>
  <outline>
    <contour>
      <point x="82" y="27" type="curve" smooth="yes"/>
      <point x="82" y="369" type="line" smooth="yes"/>
      <point x="82" y="387"/>
      <point x="97" y="402"/>
      <point x="115" y="402" type="curve" smooth="yes"/>
      <point x="133" y="402"/>
      <point x="148" y="387"/>
      <point x="148" y="369" type="curve" smooth="yes"/>
      <point x="148" y="27" type="line" smooth="yes"/>
      <point x="148" y="9"/>
      <point x="133" y="-6"/>
      <point x="115" y="-6" type="curve" smooth="yes"/>
      <point x="97" y="-6"/>
      <point x="82" y="9"/>
    </contour>
    <contour>
      <point x="88" y="256" type="curve" smooth="yes"/>
      <point x="141" y="338"/>
      <point x="204" y="389"/>
      <point x="303" y="402" type="curve" smooth="yes"/>
      <point x="321" y="404"/>
      <point x="338" y="391"/>
      <point x="340" y="373" type="curve" smooth="yes"/>
      <point x="342" y="355"/>
      <point x="329" y="338"/>
      <point x="311" y="336" type="curve" smooth="yes"/>
      <point x="234" y="327"/>
      <point x="185" y="284"/>
      <point x="144" y="220" type="curve" smooth="yes"/>
      <point x="134" y="205"/>
      <point x="113" y="201"/>
      <point x="98" y="210" type="curve" smooth="yes"/>
      <point x="83" y="220"/>
      <point x="79" y="241"/>
    </contour>
  </outline>
</glyph>
<glyph name="s" format="1">
  <advance width="462"/>
  <unicode hex="0073"/>
  <outline>
    <contour>
      <point x="334" y="328" type="curve" smooth="yes"/>
      <point x="308" y="336"/>
      <point x="273" y="342"/>
      <point x="234" y="342" type="curve" smooth="yes"/>
      <point x="178" y="342"/>
      <point x="139" y="323"/>
      <point x="139" y="293" type="curve" smooth="yes"/>
      <point x="139" y="266"/>
      <point x="177" y="252"/>
      <point x="229" y="247" type="curve" smooth="yes"/>
      <point x="269" y="243" type="line" smooth="yes"/>
      <point x="376" y="232"/>
      <point x="409" y="175"/>
      <point x="409" y="119" type="curve" smooth="yes"/>
      <point x="409" y="62"/>
      <point x="375" y="-4"/>
      <point x="240" y="-4" type="curve" smooth="yes"/>
      <point x="189" y="-4"/>
      <point x="135" y="6"/>
      <point x="87" y="27" type="curve" smooth="yes"/>
      <point x="71" y="34"/>
      <point x="63" y="54"/>
      <point x="70" y="70" type="curve" smooth="yes"/>
      <point x="77" y="86"/>
      <point x="97" y="94"/>
      <point x="113" y="87" type="curve" smooth="yes"/>
      <point x="153" y="70"/>
      <point x="197" y="62"/>
      <point x="240" y="62" type="curve" smooth="yes"/>
      <point x="303" y="62"/>
      <point x="343" y="84"/>
      <point x="343" y="119" type="curve" smooth="yes"/>
      <point x="343" y="151"/>
      <point x="312" y="172"/>
      <point x="263" y="177" type="curve" smooth="yes"/>
      <point x="223" y="181" type="line" smooth="yes"/>
      <point x="95" y="194"/>
      <point x="73" y="246"/>
      <point x="73" y="293" type="curve" smooth="yes"/>
      <point x="73" y="345"/>
      <point x="104" y="408"/>
      <point x="234" y="408" type="curve" smooth="yes"/>
      <point x="279" y="408"/>
      <point x="320" y="400"/>
      <point x="352" y="392" type="curve" smooth="yes"/>
      <point x="369" y="387"/>
      <point x="380" y="368"/>
      <point x="375" y="351" type="curve" smooth="yes"/>
      <point x="370" y="334"/>
      <point x="351" y="323"/>
    </contour>
  </outline>
</glyph>
<glyph name="t" format="1">
  <advance width="364"/>
  <unicode hex="0074"/>
  <outline>
    <contour>
      <point x="172" y="501" type="curve" smooth="yes"/>
      <point x="172" y="150" type="line" smooth="yes"/>
      <point x="172" y="93"/>
      <point x="212" y="67"/>
      <point x="285" y="66" type="curve" smooth="yes"/>
      <point x="302" y="66"/>
      <point x="317" y="50"/>
      <point x="317" y="32" type="curve" smooth="yes"/>
      <point x="317" y="15"/>
      <point x="301" y="0"/>
      <point x="283" y="0" type="curve" smooth="yes"/>
      <point x="154" y="3"/>
      <point x="106" y="59"/>
      <point x="106" y="150" type="curve" smooth="yes"/>
      <point x="106" y="501" type="line" smooth="yes"/>
      <point x="106" y="519"/>
      <point x="121" y="534"/>
      <point x="139" y="534" type="curve" smooth="yes"/>
      <point x="157" y="534"/>
      <point x="172" y="519"/>
    </contour>
    <contour>
      <point x="51" y="408" type="curve" smooth="yes"/>
      <point x="297" y="408" type="line" smooth="yes"/>
      <point x="315" y="408"/>
      <point x="330" y="393"/>
      <point x="330" y="375" type="curve" smooth="yes"/>
      <point x="330" y="357"/>
      <point x="315" y="342"/>
      <point x="297" y="342" type="curve" smooth="yes"/>
      <point x="51" y="342" type="line" smooth="yes"/>
      <point x="33" y="342"/>
      <point x="18" y="357"/>
      <point x="18" y="375" type="curve" smooth="yes"/>
      <point x="18" y="393"/>
      <point x="33" y="408"/>
    </contour>
  </outline>
</glyph>
<glyph name="u" format="1">
  <advance width="507"/>
  <unicode hex="0075"/>
  <outline>
    <contour>
      <point x="392" y="369" type="move"/>
      <point x="392" y="27" type="line"/>
    </contour>
    <contour>
      <point x="105" y="369" type="move"/>
      <point x="105" y="169" type="line" smooth="yes"/>
      <point x="105" y="64"/>
      <point x="153" y="27"/>
      <point x="217" y="27" type="curve" smooth="yes"/>
      <point x="280" y="27"/>
      <point x="346" y="76"/>
      <point x="388" y="134" type="curve"/>
    </contour>
  </outline>
</glyph>
<glyph name="v" format="1">
  <advance width="461"/>
  <unicode hex="0076"/>
  <outline>
    <contour>
      <point x="99" y="381" type="curve" smooth="yes"/>
      <point x="157" y="230"/>
      <point x="210" y="125"/>
      <point x="262" y="40" type="curve"/>
      <point x="234" y="56" type="line"/>
      <point x="237" y="56" type="line"/>
      <point x="209" y="40" type="line"/>
      <point x="260" y="125"/>
      <point x="324" y="272"/>
      <point x="363" y="380" type="curve" smooth="yes"/>
      <point x="369" y="397"/>
      <point x="389" y="406"/>
      <point x="405" y="400" type="curve" smooth="yes"/>
      <point x="422" y="394"/>
      <point x="431" y="374"/>
      <point x="425" y="358" type="curve" smooth="yes"/>
      <point x="384" y="246"/>
      <point x="318" y="93"/>
      <point x="265" y="6" type="curve" smooth="yes"/>
      <point x="260" y="-3"/>
      <point x="247" y="-10"/>
      <point x="237" y="-10" type="curve" smooth="yes"/>
      <point x="234" y="-10" type="line" smooth="yes"/>
      <point x="224" y="-10"/>
      <point x="211" y="-3"/>
      <point x="206" y="6" type="curve" smooth="yes"/>
      <point x="152" y="93"/>
      <point x="97" y="202"/>
      <point x="37" y="357" type="curve" smooth="yes"/>
      <point x="31" y="374"/>
      <point x="40" y="393"/>
      <point x="56" y="400" type="curve" smooth="yes"/>
      <point x="73" y="406"/>
      <point x="92" y="397"/>
    </contour>
  </outline>
</glyph>
<glyph name="w" format="1">
  <advance width="709"/>
  <unicode hex="0077"/>
  <outline>
    <contour>
      <point x="110" y="377" type="curve" smooth="yes"/>
      <point x="146" y="246"/>
      <point x="193" y="123"/>
      <point x="234" y="38" type="curve"/>
      <point x="204" y="57" type="line"/>
      <point x="206" y="57" type="line"/>
      <point x="176" y="39" type="line"/>
      <point x="219" y="123"/>
      <point x="286" y="260"/>
      <point x="319" y="368" type="curve" smooth="yes"/>
      <point x="325" y="385"/>
      <point x="344" y="395"/>
      <point x="361" y="390" type="curve" smooth="yes"/>
      <point x="378" y="384"/>
      <point x="388" y="365"/>
      <point x="383" y="348" type="curve" smooth="yes"/>
      <point x="348" y="238"/>
      <point x="279" y="97"/>
      <point x="236" y="9" type="curve" smooth="yes"/>
      <point x="230" y="-1"/>
      <point x="217" y="-9"/>
      <point x="206" y="-9" type="curve" smooth="yes"/>
      <point x="204" y="-9" type="line" smooth="yes"/>
      <point x="192" y="-9"/>
      <point x="179" y="-1"/>
      <point x="174" y="10" type="curve" smooth="yes"/>
      <point x="133" y="97"/>
      <point x="84" y="224"/>
      <point x="46" y="359" type="curve" smooth="yes"/>
      <point x="41" y="376"/>
      <point x="52" y="395"/>
      <point x="69" y="400" type="curve" smooth="yes"/>
      <point x="86" y="405"/>
      <point x="105" y="394"/>
    </contour>
    <contour>
      <point x="389" y="369" type="curve" smooth="yes"/>
      <point x="435" y="238"/>
      <point x="488" y="123"/>
      <point x="533" y="39" type="curve"/>
      <point x="504" y="56" type="line"/>
      <point x="506" y="56" type="line"/>
      <point x="476" y="37" type="line"/>
      <point x="514" y="121"/>
      <point x="568" y="257"/>
      <point x="600" y="376" type="curve" smooth="yes"/>
      <point x="605" y="393"/>
      <point x="624" y="404"/>
      <point x="641" y="399" type="curve" smooth="yes"/>
      <point x="658" y="394"/>
      <point x="669" y="375"/>
      <point x="664" y="358" type="curve" smooth="yes"/>
      <point x="630" y="237"/>
      <point x="576" y="97"/>
      <point x="536" y="9" type="curve" smooth="yes"/>
      <point x="531" y="-1"/>
      <point x="518" y="-10"/>
      <point x="506" y="-10" type="curve" smooth="yes"/>
      <point x="504" y="-10" type="line" smooth="yes"/>
      <point x="493" y="-10"/>
      <point x="480" y="-2"/>
      <point x="475" y="7" type="curve" smooth="yes"/>
      <point x="428" y="95"/>
      <point x="375" y="212"/>
      <point x="327" y="347" type="curve" smooth="yes"/>
      <point x="321" y="364"/>
      <point x="330" y="383"/>
      <point x="347" y="389" type="curve" smooth="yes"/>
      <point x="364" y="395"/>
      <point x="383" y="386"/>
    </contour>
  </outline>
</glyph>
<glyph name="x" format="1">
  <advance width="457"/>
  <unicode hex="0078"/>
  <outline>
    <contour>
      <point x="43" y="55" type="curve" smooth="yes"/>
      <point x="108" y="129"/>
      <point x="265" y="298"/>
      <point x="343" y="396" type="curve" smooth="yes"/>
      <point x="354" y="409"/>
      <point x="376" y="412"/>
      <point x="390" y="401" type="curve" smooth="yes"/>
      <point x="403" y="390"/>
      <point x="406" y="368"/>
      <point x="395" y="354" type="curve" smooth="yes"/>
      <point x="317" y="256"/>
      <point x="158" y="85"/>
      <point x="93" y="11" type="curve" smooth="yes"/>
      <point x="81" y="-2"/>
      <point x="60" y="-4"/>
      <point x="46" y="8" type="curve" smooth="yes"/>
      <point x="33" y="20"/>
      <point x="31" y="41"/>
    </contour>
    <contour>
      <point x="106" y="396" type="curve" smooth="yes"/>
      <point x="184" y="304"/>
      <point x="324" y="158"/>
      <point x="414" y="55" type="curve" smooth="yes"/>
      <point x="426" y="41"/>
      <point x="424" y="20"/>
      <point x="411" y="8" type="curve" smooth="yes"/>
      <point x="397" y="-4"/>
      <point x="376" y="-2"/>
      <point x="364" y="11" type="curve" smooth="yes"/>
      <point x="274" y="114"/>
      <point x="134" y="262"/>
      <point x="56" y="354" type="curve" smooth="yes"/>
      <point x="44" y="367"/>
      <point x="46" y="389"/>
      <point x="60" y="400" type="curve" smooth="yes"/>
      <point x="73" y="412"/>
      <point x="95" y="410"/>
    </contour>
  </outline>
</glyph>
<glyph name="y" format="1">
  <advance width="460"/>
  <unicode hex="0079"/>
  <outline>
    <contour>
      <point x="52" y="-118" type="curve" smooth="yes"/>
      <point x="110" y="-85"/>
      <point x="163" y="-44"/>
      <point x="216" y="45" type="curve" smooth="yes"/>
      <point x="267" y="133"/>
      <point x="326" y="268"/>
      <point x="359" y="379" type="curve" smooth="yes"/>
      <point x="365" y="396"/>
      <point x="383" y="406"/>
      <point x="401" y="401" type="curve" smooth="yes"/>
      <point x="418" y="395"/>
      <point x="428" y="377"/>
      <point x="423" y="359" type="curve" smooth="yes"/>
      <point x="388" y="244"/>
      <point x="327" y="103"/>
      <point x="272" y="11" type="curve" smooth="yes"/>
      <point x="213" y="-90"/>
      <point x="152" y="-137"/>
      <point x="84" y="-176" type="curve" smooth="yes"/>
      <point x="69" y="-184"/>
      <point x="48" y="-179"/>
      <point x="39" y="-163" type="curve" smooth="yes"/>
      <point x="31" y="-148"/>
      <point x="36" y="-127"/>
    </contour>
    <contour>
      <point x="101" y="381" type="curve" smooth="yes"/>
      <point x="154" y="231"/>
      <point x="219" y="123"/>
      <point x="269" y="46" type="curve" smooth="yes"/>
      <point x="278" y="31"/>
      <point x="274" y="10"/>
      <point x="259" y="0" type="curve" smooth="yes"/>
      <point x="244" y="-9"/>
      <point x="223" y="-5"/>
      <point x="213" y="10" type="curve" smooth="yes"/>
      <point x="161" y="91"/>
      <point x="94" y="203"/>
      <point x="39" y="359" type="curve" smooth="yes"/>
      <point x="33" y="376"/>
      <point x="42" y="395"/>
      <point x="59" y="401" type="curve" smooth="yes"/>
      <point x="76" y="407"/>
      <point x="95" y="398"/>
    </contour>
  </outline>
</glyph>
<glyph name="z" format="1">
  <advance width="454"/>
  <unicode hex="007A"/>
  <outline>
    <contour>
      <point x="360" y="342" type="curve" smooth="yes"/>
      <point x="91" y="342" type="line" smooth="yes"/>
      <point x="73" y="342"/>
      <point x="58" y="357"/>
      <point x="58" y="375" type="curve" smooth="yes"/>
      <point x="58" y="393"/>
      <point x="73" y="408"/>
      <point x="91" y="408" type="curve" smooth="yes"/>
      <point x="360" y="408" type="line" smooth="yes"/>
      <point x="378" y="408"/>
      <point x="393" y="393"/>
      <point x="393" y="375" type="curve" smooth="yes"/>
      <point x="393" y="357"/>
      <point x="378" y="342"/>
    </contour>
    <contour>
      <point x="76" y="66" type="curve" smooth="yes"/>
      <point x="377" y="66" type="line" smooth="yes"/>
      <point x="395" y="66"/>
      <point x="410" y="51"/>
      <point x="410" y="33" type="curve" smooth="yes"/>
      <point x="410" y="15"/>
      <point x="395" y="0"/>
      <point x="377" y="0" type="curve" smooth="yes"/>
      <point x="76" y="0" type="line" smooth="yes"/>
      <point x="58" y="0"/>
      <point x="43" y="15"/>
      <point x="43" y="33" type="curve" smooth="yes"/>
      <point x="43" y="51"/>
      <point x="58" y="66"/>
    </contour>
    <contour>
      <point x="391" y="354" type="curve" smooth="yes"/>
      <point x="107" y="20" type="line" smooth="yes"/>
      <point x="96" y="6"/>
      <point x="74" y="4"/>
      <point x="61" y="16" type="curve" smooth="yes"/>
      <point x="47" y="27"/>
      <point x="45" y="49"/>
      <point x="57" y="62" type="curve" smooth="yes"/>
      <point x="341" y="396" type="line" smooth="yes"/>
      <point x="352" y="410"/>
      <point x="374" y="412"/>
      <point x="387" y="400" type="curve" smooth="yes"/>
      <point x="401" y="389"/>
      <point x="403" y="367"/>
    </contour>
  </outline>
</glyph>
<glyph name="braceleft" format="1">
  <advance width="325"/>
  <unicode hex="007B"/>
  <outline>
    <contour>
      <point x="278" y="580" type="curve" smooth="yes"/>
      <point x="258" y="580" type="line" smooth="yes"/>
      <point x="190" y="580"/>
      <point x="133" y="550"/>
      <point x="133" y="505" type="curve" smooth="yes"/>
      <point x="133" y="440"/>
      <point x="200" y="405"/>
      <point x="200" y="347" type="curve" smooth="yes"/>
      <point x="200" y="300"/>
      <point x="169" y="258"/>
      <point x="70" y="243" type="curve"/>
      <point x="98" y="276" type="line"/>
      <point x="98" y="270" type="line"/>
      <point x="70" y="303" type="line"/>
      <point x="169" y="288"/>
      <point x="200" y="246"/>
      <point x="200" y="199" type="curve" smooth="yes"/>
      <point x="200" y="141"/>
      <point x="133" y="106"/>
      <point x="133" y="41" type="curve" smooth="yes"/>
      <point x="133" y="-4"/>
      <point x="190" y="-34"/>
      <point x="258" y="-34" type="curve" smooth="yes"/>
      <point x="278" y="-34" type="line" smooth="yes"/>
      <point x="296" y="-34"/>
      <point x="311" y="-49"/>
      <point x="311" y="-67" type="curve" smooth="yes"/>
      <point x="311" y="-85"/>
      <point x="296" y="-100"/>
      <point x="278" y="-100" type="curve" smooth="yes"/>
      <point x="258" y="-100" type="line" smooth="yes"/>
      <point x="130" y="-100"/>
      <point x="67" y="-28"/>
      <point x="67" y="41" type="curve" smooth="yes"/>
      <point x="67" y="106"/>
      <point x="134" y="141"/>
      <point x="134" y="199" type="curve" smooth="yes"/>
      <point x="134" y="224"/>
      <point x="97" y="232"/>
      <point x="60" y="237" type="curve" smooth="yes"/>
      <point x="45" y="240"/>
      <point x="32" y="254"/>
      <point x="32" y="270" type="curve"/>
      <point x="32" y="276" type="line"/>
      <point x="32" y="292"/>
      <point x="45" y="306"/>
      <point x="60" y="309" type="curve" smooth="yes"/>
      <point x="97" y="314"/>
      <point x="134" y="322"/>
      <point x="134" y="347" type="curve" smooth="yes"/>
      <point x="134" y="405"/>
      <point x="67" y="440"/>
      <point x="67" y="505" type="curve" smooth="yes"/>
      <point x="67" y="574"/>
      <point x="130" y="646"/>
      <point x="258" y="646" type="curve" smooth="yes"/>
      <point x="278" y="646" type="line" smooth="yes"/>
      <point x="296" y="646"/>
      <point x="311" y="631"/>
      <point x="311" y="613" type="curve" smooth="yes"/>
      <point x="311" y="595"/>
      <point x="296" y="580"/>
    </contour>
  </outline>
</glyph>
<glyph name="bar" format="1">
  <advance width="310"/>
  <unicode hex="007C"/>
  <outline>
    <contour>
      <point x="188" y="545" type="curve" smooth="yes"/>
      <point x="188" y="-68" type="line" smooth="yes"/>
      <point x="188" y="-86"/>
      <point x="173" y="-101"/>
      <point x="155" y="-101" type="curve" smooth="yes"/>
      <point x="137" y="-101"/>
      <point x="122" y="-86"/>
      <point x="122" y="-68" type="curve" smooth="yes"/>
      <point x="122" y="545" type="line" smooth="yes"/>
      <point x="122" y="563"/>
      <point x="137" y="578"/>
      <point x="155" y="578" type="curve" smooth="yes"/>
      <point x="173" y="578"/>
      <point x="188" y="563"/>
    </contour>
  </outline>
</glyph>
<glyph name="braceright" format="1">
  <advance width="315"/>
  <unicode hex="007D"/>
  <outline>
    <contour>
      <point x="72" y="-100" type="line" smooth="yes"/>
      <point x="193" y="-100"/>
      <point x="255" y="-33"/>
      <point x="255" y="33" type="curve" smooth="yes"/>
      <point x="255" y="98"/>
      <point x="188" y="133"/>
      <point x="188" y="191" type="curve" smooth="yes"/>
      <point x="188" y="219"/>
      <point x="224" y="231"/>
      <point x="269" y="237" type="curve" smooth="yes"/>
      <point x="280" y="239"/>
      <point x="290" y="250"/>
      <point x="290" y="262" type="curve" smooth="yes"/>
      <point x="290" y="268" type="line" smooth="yes"/>
      <point x="290" y="280"/>
      <point x="280" y="291"/>
      <point x="269" y="293" type="curve" smooth="yes"/>
      <point x="224" y="299"/>
      <point x="188" y="311"/>
      <point x="188" y="339" type="curve" smooth="yes"/>
      <point x="188" y="397"/>
      <point x="255" y="432"/>
      <point x="255" y="497" type="curve" smooth="yes"/>
      <point x="255" y="563"/>
      <point x="193" y="630"/>
      <point x="72" y="630" type="curve" smooth="yes"/>
      <point x="52" y="630" type="line" smooth="yes"/>
      <point x="38" y="630"/>
      <point x="27" y="619"/>
      <point x="27" y="605" type="curve" smooth="yes"/>
      <point x="27" y="592"/>
      <point x="38" y="580"/>
      <point x="52" y="580" type="curve" smooth="yes"/>
      <point x="72" y="580" type="line" smooth="yes"/>
      <point x="147" y="580"/>
      <point x="205" y="545"/>
      <point x="205" y="497" type="curve" smooth="yes"/>
      <point x="205" y="432"/>
      <point x="138" y="397"/>
      <point x="138" y="339" type="curve" smooth="yes"/>
      <point x="138" y="310"/>
      <point x="152" y="284"/>
      <point x="187" y="265" type="curve"/>
      <point x="152" y="246"/>
      <point x="138" y="220"/>
      <point x="138" y="191" type="curve" smooth="yes"/>
      <point x="138" y="133"/>
      <point x="205" y="98"/>
      <point x="205" y="33" type="curve" smooth="yes"/>
      <point x="205" y="-15"/>
      <point x="147" y="-50"/>
      <point x="72" y="-50" type="curve" smooth="yes"/>
      <point x="52" y="-50" type="line" smooth="yes"/>
      <point x="38" y="-50"/>
      <point x="27" y="-62"/>
      <point x="27" y="-75" type="curve" smooth="yes"/>
      <point x="27" y="-89"/>
      <point x="38" y="-100"/>
      <point x="52" y="-100" type="curve" smooth="yes"/>
    </contour>
  </outline>
</glyph>
<glyph name="asciitilde" format="1">
  <advance width="565"/>
  <unicode hex="007E"/>
  <outline>
    <contour>
      <point x="77" y="232" type="curve" smooth="yes"/>
      <point x="119" y="316"/>
      <point x="158" y="348"/>
      <point x="206" y="348" type="curve" smooth="yes"/>
      <point x="248" y="348"/>
      <point x="275" y="323"/>
      <point x="310" y="285" type="curve" smooth="yes"/>
      <point x="330" y="262"/>
      <point x="345" y="243"/>
      <point x="368" y="243" type="curve" smooth="yes"/>
      <point x="403" y="243"/>
      <point x="418" y="280"/>
      <point x="444" y="333" type="curve" smooth="yes"/>
      <point x="452" y="349"/>
      <point x="472" y="356"/>
      <point x="488" y="349" type="curve" smooth="yes"/>
      <point x="504" y="341"/>
      <point x="511" y="321"/>
      <point x="504" y="305" type="curve" smooth="yes"/>
      <point x="458" y="210"/>
      <point x="421" y="177"/>
      <point x="368" y="177" type="curve" smooth="yes"/>
      <point x="329" y="177"/>
      <point x="298" y="198"/>
      <point x="260" y="241" type="curve" smooth="yes"/>
      <point x="243" y="261"/>
      <point x="230" y="282"/>
      <point x="206" y="282" type="curve" smooth="yes"/>
      <point x="176" y="282"/>
      <point x="159" y="248"/>
      <point x="137" y="202" type="curve" smooth="yes"/>
      <point x="129" y="186"/>
      <point x="108" y="180"/>
      <point x="92" y="187" type="curve" smooth="yes"/>
      <point x="76" y="195"/>
      <point x="70" y="216"/>
    </contour>
  </outline>
</glyph>
<glyph name="cent" format="1">
  <advance width="443"/>
  <unicode hex="00A2"/>
  <outline>
    <contour>
      <point x="277" y="517" type="curve" smooth="yes"/>
      <point x="277" y="33" type="line" smooth="yes"/>
      <point x="277" y="15"/>
      <point x="262" y="0"/>
      <point x="244" y="0" type="curve" smooth="yes"/>
      <point x="226" y="0"/>
      <point x="211" y="15"/>
      <point x="211" y="33" type="curve" smooth="yes"/>
      <point x="211" y="517" type="line" smooth="yes"/>
      <point x="211" y="535"/>
      <point x="226" y="550"/>
      <point x="244" y="550" type="curve" smooth="yes"/>
      <point x="262" y="550"/>
      <point x="277" y="535"/>
    </contour>
    <contour>
      <point x="345" y="390" type="curve" smooth="yes"/>
      <point x="320" y="398"/>
      <point x="291" y="403"/>
      <point x="265" y="403" type="curve" smooth="yes"/>
      <point x="170" y="403"/>
      <point x="112" y="346"/>
      <point x="112" y="265" type="curve" smooth="yes"/>
      <point x="112" y="194"/>
      <point x="170" y="143"/>
      <point x="264" y="143" type="curve" smooth="yes"/>
      <point x="301" y="143"/>
      <point x="330" y="150"/>
      <point x="355" y="159" type="curve" smooth="yes"/>
      <point x="372" y="165"/>
      <point x="391" y="156"/>
      <point x="397" y="139" type="curve" smooth="yes"/>
      <point x="403" y="122"/>
      <point x="394" y="103"/>
      <point x="377" y="97" type="curve" smooth="yes"/>
      <point x="346" y="86"/>
      <point x="309" y="77"/>
      <point x="264" y="77" type="curve" smooth="yes"/>
      <point x="120" y="77"/>
      <point x="46" y="162"/>
      <point x="46" y="265" type="curve"/>
      <point x="46" y="382"/>
      <point x="124" y="469"/>
      <point x="265" y="469" type="curve" smooth="yes"/>
      <point x="297" y="469"/>
      <point x="334" y="462"/>
      <point x="363" y="454" type="curve" smooth="yes"/>
      <point x="380" y="449"/>
      <point x="391" y="430"/>
      <point x="386" y="413" type="curve" smooth="yes"/>
      <point x="381" y="396"/>
      <point x="362" y="385"/>
    </contour>
  </outline>
</glyph>
<glyph name="sterling" format="1">
  <advance width="466"/>
  <unicode hex="00A3"/>
  <outline>
    <contour>
      <point x="49" y="60" type="curve" smooth="yes"/>
      <point x="126" y="130" type="line" smooth="yes"/>
      <point x="147" y="149"/>
      <point x="165" y="172"/>
      <point x="165" y="194" type="curve" smooth="yes"/>
      <point x="165" y="214"/>
      <point x="152" y="238"/>
      <point x="134" y="260" type="curve" smooth="yes"/>
      <point x="89" y="312"/>
      <point x="64" y="353"/>
      <point x="64" y="408" type="curve" smooth="yes"/>
      <point x="64" y="480"/>
      <point x="117" y="554"/>
      <point x="219" y="554" type="curve" smooth="yes"/>
      <point x="272" y="554"/>
      <point x="320" y="538"/>
      <point x="360" y="513" type="curve" smooth="yes"/>
      <point x="375" y="503"/>
      <point x="379" y="483"/>
      <point x="370" y="467" type="curve" smooth="yes"/>
      <point x="360" y="452"/>
      <point x="340" y="448"/>
      <point x="324" y="457" type="curve" smooth="yes"/>
      <point x="294" y="476"/>
      <point x="258" y="488"/>
      <point x="219" y="488" type="curve" smooth="yes"/>
      <point x="163" y="488"/>
      <point x="130" y="450"/>
      <point x="130" y="408" type="curve" smooth="yes"/>
      <point x="130" y="367"/>
      <point x="153" y="340"/>
      <point x="184" y="302" type="curve" smooth="yes"/>
      <point x="214" y="268"/>
      <point x="231" y="226"/>
      <point x="231" y="194" type="curve" smooth="yes"/>
      <point x="231" y="158"/>
      <point x="207" y="115"/>
      <point x="170" y="82" type="curve" smooth="yes"/>
      <point x="93" y="12" type="line" smooth="yes"/>
      <point x="80" y="0"/>
      <point x="59" y="1"/>
      <point x="47" y="14" type="curve" smooth="yes"/>
      <point x="35" y="27"/>
      <point x="36" y="48"/>
    </contour>
    <contour>
      <point x="375" y="-6" type="curve" smooth="yes"/>
      <point x="61" y="-6" type="line" smooth="yes"/>
      <point x="43" y="-6"/>
      <point x="28" y="9"/>
      <point x="28" y="27" type="curve" smooth="yes"/>
      <point x="28" y="45"/>
      <point x="43" y="60"/>
      <point x="61" y="60" type="curve" smooth="yes"/>
      <point x="375" y="60" type="line" smooth="yes"/>
      <point x="393" y="60"/>
      <point x="408" y="45"/>
      <point x="408" y="27" type="curve" smooth="yes"/>
      <point x="408" y="9"/>
      <point x="393" y="-6"/>
    </contour>
    <contour>
      <point x="67" y="285" type="curve" smooth="yes"/>
      <point x="366" y="285" type="line" smooth="yes"/>
      <point x="384" y="285"/>
      <point x="399" y="270"/>
      <point x="399" y="252" type="curve" smooth="yes"/>
      <point x="399" y="234"/>
      <point x="384" y="219"/>
      <point x="366" y="219" type="curve" smooth="yes"/>
      <point x="67" y="219" type="line" smooth="yes"/>
      <point x="49" y="219"/>
      <point x="34" y="234"/>
      <point x="34" y="252" type="curve" smooth="yes"/>
      <point x="34" y="270"/>
      <point x="49" y="285"/>
    </contour>
  </outline>
</glyph>
<glyph name="currency" format="1">
  <advance width="531.0"/>
  <unicode hex="00A4"/>
  <outline>
    <contour>
      <point x="265" y="429" type="curve" smooth="yes"/>
      <point x="382" y="429"/>
      <point x="456" y="341"/>
      <point x="456" y="232" type="curve" smooth="yes"/>
      <point x="456" y="127"/>
      <point x="382" y="45"/>
      <point x="265" y="45" type="curve" smooth="yes"/>
      <point x="149" y="45"/>
      <point x="74" y="128"/>
      <point x="74" y="234" type="curve" smooth="yes"/>
      <point x="74" y="340"/>
      <point x="147" y="429"/>
    </contour>
    <contour>
      <point x="265" y="363" type="curve" smooth="yes"/>
      <point x="187" y="363"/>
      <point x="140" y="304"/>
      <point x="140" y="234" type="curve" smooth="yes"/>
      <point x="140" y="164"/>
      <point x="189" y="111"/>
      <point x="265" y="111" type="curve" smooth="yes"/>
      <point x="340" y="111"/>
      <point x="390" y="163"/>
      <point x="390" y="232" type="curve" smooth="yes"/>
      <point x="390" y="303"/>
      <point x="342" y="363"/>
    </contour>
    <contour>
      <point x="425" y="12" type="curve" smooth="yes"/>
      <point x="354" y="90" type="line" smooth="yes"/>
      <point x="342" y="103"/>
      <point x="343" y="124"/>
      <point x="356" y="136" type="curve" smooth="yes"/>
      <point x="369" y="148"/>
      <point x="390" y="147"/>
      <point x="402" y="134" type="curve" smooth="yes"/>
      <point x="473" y="56" type="line" smooth="yes"/>
      <point x="485" y="43"/>
      <point x="484" y="22"/>
      <point x="471" y="10" type="curve" smooth="yes"/>
      <point x="458" y="-2"/>
      <point x="437" y="-1"/>
    </contour>
    <contour>
      <point x="128" y="337" type="curve" smooth="yes"/>
      <point x="63" y="408" type="line" smooth="yes"/>
      <point x="51" y="421"/>
      <point x="52" y="442"/>
      <point x="65" y="454" type="curve" smooth="yes"/>
      <point x="78" y="466"/>
      <point x="99" y="465"/>
      <point x="111" y="452" type="curve" smooth="yes"/>
      <point x="176" y="381" type="line" smooth="yes"/>
      <point x="188" y="368"/>
      <point x="187" y="347"/>
      <point x="174" y="335" type="curve" smooth="yes"/>
      <point x="161" y="323"/>
      <point x="140" y="324"/>
    </contour>
    <contour>
      <point x="354" y="382" type="curve" smooth="yes"/>
      <point x="419" y="454" type="line" smooth="yes"/>
      <point x="430" y="467"/>
      <point x="452" y="468"/>
      <point x="465" y="456" type="curve" smooth="yes"/>
      <point x="478" y="445"/>
      <point x="479" y="423"/>
      <point x="467" y="410" type="curve" smooth="yes"/>
      <point x="402" y="338" type="line" smooth="yes"/>
      <point x="391" y="325"/>
      <point x="369" y="324"/>
      <point x="356" y="336" type="curve" smooth="yes"/>
      <point x="343" y="347"/>
      <point x="342" y="369"/>
    </contour>
    <contour>
      <point x="58" y="56" type="curve" smooth="yes"/>
      <point x="126" y="131" type="line" smooth="yes"/>
      <point x="138" y="144"/>
      <point x="159" y="145"/>
      <point x="172" y="133" type="curve" smooth="yes"/>
      <point x="185" y="121"/>
      <point x="186" y="100"/>
      <point x="174" y="87" type="curve" smooth="yes"/>
      <point x="106" y="12" type="line" smooth="yes"/>
      <point x="94" y="-1"/>
      <point x="73" y="-2"/>
      <point x="60" y="10" type="curve" smooth="yes"/>
      <point x="47" y="22"/>
      <point x="46" y="43"/>
    </contour>
  </outline>
</glyph>
<glyph name="yen" format="1">
  <advance width="570"/>
  <unicode hex="00A5"/>
  <outline>
    <contour>
      <point x="326" y="269" type="curve" smooth="yes"/>
      <point x="326" y="27" type="line" smooth="yes"/>
      <point x="326" y="9"/>
      <point x="311" y="-6"/>
      <point x="293" y="-6" type="curve" smooth="yes"/>
      <point x="275" y="-6"/>
      <point x="260" y="9"/>
      <point x="260" y="27" type="curve" smooth="yes"/>
      <point x="260" y="269" type="line" smooth="yes"/>
      <point x="260" y="287"/>
      <point x="275" y="302"/>
      <point x="293" y="302" type="curve" smooth="yes"/>
      <point x="311" y="302"/>
      <point x="326" y="287"/>
    </contour>
    <contour>
      <point x="125" y="531" type="curve" smooth="yes"/>
      <point x="173" y="462"/>
      <point x="276" y="345"/>
      <point x="313" y="309" type="curve" smooth="yes"/>
      <point x="326" y="296"/>
      <point x="326" y="275"/>
      <point x="314" y="262" type="curve" smooth="yes"/>
      <point x="301" y="249"/>
      <point x="280" y="249"/>
      <point x="267" y="261" type="curve" smooth="yes"/>
      <point x="228" y="299"/>
      <point x="121" y="422"/>
      <point x="71" y="493" type="curve" smooth="yes"/>
      <point x="61" y="508"/>
      <point x="64" y="529"/>
      <point x="79" y="539" type="curve" smooth="yes"/>
      <point x="94" y="549"/>
      <point x="115" y="546"/>
    </contour>
    <contour>
      <point x="270" y="298" type="curve" smooth="yes"/>
      <point x="319" y="347"/>
      <point x="409" y="463"/>
      <point x="457" y="531" type="curve" smooth="yes"/>
      <point x="467" y="546"/>
      <point x="489" y="549"/>
      <point x="503" y="539" type="curve" smooth="yes"/>
      <point x="518" y="529"/>
      <point x="521" y="507"/>
      <point x="511" y="493" type="curve" smooth="yes"/>
      <point x="461" y="423"/>
      <point x="367" y="303"/>
      <point x="316" y="252" type="curve" smooth="yes"/>
      <point x="304" y="239"/>
      <point x="282" y="239"/>
      <point x="270" y="252" type="curve" smooth="yes"/>
      <point x="257" y="264"/>
      <point x="257" y="286"/>
    </contour>
    <contour>
      <point x="118" y="304" type="curve" smooth="yes"/>
      <point x="466" y="304" type="line" smooth="yes"/>
      <point x="484" y="304"/>
      <point x="499" y="289"/>
      <point x="499" y="271" type="curve" smooth="yes"/>
      <point x="499" y="253"/>
      <point x="484" y="238"/>
      <point x="466" y="238" type="curve" smooth="yes"/>
      <point x="118" y="238" type="line" smooth="yes"/>
      <point x="100" y="238"/>
      <point x="85" y="253"/>
      <point x="85" y="271" type="curve" smooth="yes"/>
      <point x="85" y="289"/>
      <point x="100" y="304"/>
    </contour>
    <contour>
      <point x="118" y="162" type="curve" smooth="yes"/>
      <point x="466" y="162" type="line" smooth="yes"/>
      <point x="484" y="162"/>
      <point x="499" y="147"/>
      <point x="499" y="129" type="curve" smooth="yes"/>
      <point x="499" y="111"/>
      <point x="484" y="96"/>
      <point x="466" y="96" type="curve" smooth="yes"/>
      <point x="118" y="96" type="line" smooth="yes"/>
      <point x="100" y="96"/>
      <point x="85" y="111"/>
      <point x="85" y="129" type="curve" smooth="yes"/>
      <point x="85" y="147"/>
      <point x="100" y="162"/>
    </contour>
  </outline>
</glyph>
<glyph name="brokenbar" format="1">
  <advance width="310"/>
  <unicode hex="00A6"/>
  <outline>
    <contour>
      <point x="188" y="159" type="curve" smooth="yes"/>
      <point x="188" y="-68" type="line" smooth="yes"/>
      <point x="188" y="-86"/>
      <point x="173" y="-101"/>
      <point x="155" y="-101" type="curve" smooth="yes"/>
      <point x="137" y="-101"/>
      <point x="122" y="-86"/>
      <point x="122" y="-68" type="curve" smooth="yes"/>
      <point x="122" y="159" type="line" smooth="yes"/>
      <point x="122" y="177"/>
      <point x="137" y="192"/>
      <point x="155" y="192" type="curve" smooth="yes"/>
      <point x="173" y="192"/>
      <point x="188" y="177"/>
    </contour>
    <contour>
      <point x="188" y="545" type="curve" smooth="yes"/>
      <point x="188" y="318" type="line" smooth="yes"/>
      <point x="188" y="300"/>
      <point x="173" y="285"/>
      <point x="155" y="285" type="curve" smooth="yes"/>
      <point x="137" y="285"/>
      <point x="122" y="300"/>
      <point x="122" y="318" type="curve" smooth="yes"/>
      <point x="122" y="545" type="line" smooth="yes"/>
      <point x="122" y="563"/>
      <point x="137" y="578"/>
      <point x="155" y="578" type="curve" smooth="yes"/>
      <point x="173" y="578"/>
      <point x="188" y="563"/>
    </contour>
  </outline>
</glyph>
<glyph name="section" format="1">
  <advance width="535"/>
  <unicode hex="00A7"/>
  <outline>
    <contour>
      <point x="388" y="463" type="curve" smooth="yes"/>
      <point x="344" y="477"/>
      <point x="312" y="485"/>
      <point x="248" y="485" type="curve" smooth="yes"/>
      <point x="196" y="485"/>
      <point x="145" y="465"/>
      <point x="145" y="432" type="curve" smooth="yes"/>
      <point x="145" y="399"/>
      <point x="180" y="371"/>
      <point x="274" y="357" type="curve" smooth="yes"/>
      <point x="431" y="326"/>
      <point x="465" y="267"/>
      <point x="465" y="205" type="curve" smooth="yes"/>
      <point x="465" y="141"/>
      <point x="421" y="76"/>
      <point x="268" y="76" type="curve" smooth="yes"/>
      <point x="250" y="76"/>
      <point x="235" y="91"/>
      <point x="235" y="109" type="curve" smooth="yes"/>
      <point x="235" y="127"/>
      <point x="250" y="142"/>
      <point x="268" y="142" type="curve" smooth="yes"/>
      <point x="343" y="142"/>
      <point x="399" y="163"/>
      <point x="399" y="205" type="curve" smooth="yes"/>
      <point x="399" y="249"/>
      <point x="351" y="274"/>
      <point x="264" y="291" type="curve" smooth="yes"/>
      <point x="90" y="317"/>
      <point x="79" y="383"/>
      <point x="79" y="432" type="curve" smooth="yes"/>
      <point x="79" y="487"/>
      <point x="130" y="551"/>
      <point x="248" y="551" type="curve" smooth="yes"/>
      <point x="322" y="551"/>
      <point x="358" y="541"/>
      <point x="408" y="525" type="curve" smooth="yes"/>
      <point x="425" y="520"/>
      <point x="435" y="501"/>
      <point x="429" y="484" type="curve" smooth="yes"/>
      <point x="424" y="467"/>
      <point x="405" y="457"/>
    </contour>
    <contour>
      <point x="238" y="292" type="curve" smooth="yes"/>
      <point x="181" y="292"/>
      <point x="135" y="271"/>
      <point x="135" y="225" type="curve" smooth="yes"/>
      <point x="135" y="189"/>
      <point x="168" y="158"/>
      <point x="265" y="142" type="curve" smooth="yes"/>
      <point x="425" y="114"/>
      <point x="455" y="69"/>
      <point x="455" y="5" type="curve" smooth="yes"/>
      <point x="455" y="-59"/>
      <point x="409" y="-129"/>
      <point x="258" y="-129" type="curve" smooth="yes"/>
      <point x="193" y="-129"/>
      <point x="131" y="-117"/>
      <point x="75" y="-91" type="curve" smooth="yes"/>
      <point x="59" y="-83"/>
      <point x="52" y="-63"/>
      <point x="59" y="-47" type="curve" smooth="yes"/>
      <point x="67" y="-31"/>
      <point x="87" y="-24"/>
      <point x="103" y="-31" type="curve" smooth="yes"/>
      <point x="151" y="-53"/>
      <point x="203" y="-63"/>
      <point x="258" y="-63" type="curve" smooth="yes"/>
      <point x="335" y="-63"/>
      <point x="389" y="-37"/>
      <point x="389" y="5" type="curve" smooth="yes"/>
      <point x="389" y="49"/>
      <point x="337" y="62"/>
      <point x="253" y="76" type="curve" smooth="yes"/>
      <point x="82" y="106"/>
      <point x="69" y="173"/>
      <point x="69" y="225" type="curve" smooth="yes"/>
      <point x="69" y="301"/>
      <point x="125" y="358"/>
      <point x="238" y="358" type="curve" smooth="yes"/>
      <point x="256" y="358"/>
      <point x="271" y="343"/>
      <point x="271" y="325" type="curve" smooth="yes"/>
      <point x="271" y="307"/>
      <point x="256" y="292"/>
    </contour>
  </outline>
</glyph>
<glyph name="dieresis" format="1">
  <advance width="500"/>
  <unicode hex="00A8"/>
  <outline>
    <contour>
      <point x="156" y="619" type="curve" smooth="yes"/>
      <point x="179" y="619"/>
      <point x="204" y="602"/>
      <point x="204" y="560" type="curve" smooth="yes"/>
      <point x="204" y="518"/>
      <point x="180" y="503"/>
      <point x="156" y="503" type="curve" smooth="yes"/>
      <point x="130" y="503"/>
      <point x="105" y="523"/>
      <point x="105" y="560" type="curve" smooth="yes"/>
      <point x="105" y="597"/>
      <point x="131" y="619"/>
    </contour>
    <contour>
      <point x="334" y="619" type="curve" smooth="yes"/>
      <point x="357" y="619"/>
      <point x="382" y="602"/>
      <point x="382" y="560" type="curve" smooth="yes"/>
      <point x="382" y="518"/>
      <point x="358" y="503"/>
      <point x="334" y="503" type="curve" smooth="yes"/>
      <point x="308" y="503"/>
      <point x="283" y="523"/>
      <point x="283" y="560" type="curve" smooth="yes"/>
      <point x="283" y="597"/>
      <point x="309" y="619"/>
    </contour>
  </outline>
</glyph>
<glyph name="copyright" format="1">
  <advance width="663"/>
  <unicode hex="00A9"/>
  <outline>
    <contour>
      <point x="334" y="554" type="curve" smooth="yes"/>
      <point x="491" y="554"/>
      <point x="617" y="437"/>
      <point x="617" y="269" type="curve" smooth="yes"/>
      <point x="617" y="109"/>
      <point x="513" y="-15"/>
      <point x="334" y="-15" type="curve" smooth="yes"/>
      <point x="164" y="-15"/>
      <point x="46" y="110"/>
      <point x="46" y="266" type="curve"/>
      <point x="46" y="437"/>
      <point x="161" y="554"/>
    </contour>
    <contour>
      <point x="395" y="355" type="curve" smooth="yes"/>
      <point x="381" y="362"/>
      <point x="362" y="367"/>
      <point x="340" y="367" type="curve" smooth="yes"/>
      <point x="289" y="367"/>
      <point x="244" y="326"/>
      <point x="244" y="268" type="curve" smooth="yes"/>
      <point x="244" y="213"/>
      <point x="281" y="172"/>
      <point x="343" y="172" type="curve" smooth="yes"/>
      <point x="364" y="172"/>
      <point x="383" y="176"/>
      <point x="398" y="184" type="curve" smooth="yes"/>
      <point x="413" y="193"/>
      <point x="434" y="186"/>
      <point x="442" y="170" type="curve" smooth="yes"/>
      <point x="451" y="155"/>
      <point x="444" y="134"/>
      <point x="428" y="126" type="curve" smooth="yes"/>
      <point x="405" y="114"/>
      <point x="376" y="106"/>
      <point x="343" y="106" type="curve" smooth="yes"/>
      <point x="239" y="106"/>
      <point x="178" y="177"/>
      <point x="178" y="268" type="curve" smooth="yes"/>
      <point x="178" y="366"/>
      <point x="255" y="433"/>
      <point x="340" y="433" type="curve" smooth="yes"/>
      <point x="374" y="433"/>
      <point x="405" y="424"/>
      <point x="425" y="413" type="curve" smooth="yes"/>
      <point x="441" y="405"/>
      <point x="448" y="384"/>
      <point x="439" y="369" type="curve" smooth="yes"/>
      <point x="431" y="353"/>
      <point x="410" y="346"/>
    </contour>
    <contour>
      <point x="334" y="488" type="curve" smooth="yes"/>
      <point x="201" y="488"/>
      <point x="112" y="397"/>
      <point x="112" y="266" type="curve" smooth="yes"/>
      <point x="112" y="146"/>
      <point x="204" y="51"/>
      <point x="334" y="51" type="curve" smooth="yes"/>
      <point x="471" y="51"/>
      <point x="551" y="147"/>
      <point x="551" y="269" type="curve" smooth="yes"/>
      <point x="551" y="397"/>
      <point x="455" y="488"/>
    </contour>
  </outline>
</glyph>
<glyph name="ordfeminine" format="1">
  <advance width="454"/>
  <unicode hex="00AA"/>
  <outline>
    <contour>
      <point x="103" y="204" type="curve" smooth="yes"/>
      <point x="361" y="204" type="line" smooth="yes"/>
      <point x="377" y="204"/>
      <point x="391" y="190"/>
      <point x="391" y="174" type="curve" smooth="yes"/>
      <point x="391" y="158"/>
      <point x="377" y="144"/>
      <point x="361" y="144" type="curve" smooth="yes"/>
      <point x="103" y="144" type="line" smooth="yes"/>
      <point x="87" y="144"/>
      <point x="73" y="158"/>
      <point x="73" y="174" type="curve" smooth="yes"/>
      <point x="73" y="190"/>
      <point x="87" y="204"/>
    </contour>
    <contour>
      <point x="142" y="534" type="curve" smooth="yes"/>
      <point x="159" y="540"/>
      <point x="188" y="547"/>
      <point x="214" y="547" type="curve" smooth="yes"/>
      <point x="297" y="547"/>
      <point x="336" y="497"/>
      <point x="336" y="424" type="curve" smooth="yes"/>
      <point x="336" y="364" type="line" smooth="yes"/>
      <point x="336" y="338"/>
      <point x="341" y="321"/>
      <point x="352" y="308" type="curve" smooth="yes"/>
      <point x="363" y="296"/>
      <point x="362" y="276"/>
      <point x="350" y="266" type="curve" smooth="yes"/>
      <point x="338" y="255"/>
      <point x="318" y="256"/>
      <point x="308" y="268" type="curve" smooth="yes"/>
      <point x="287" y="291"/>
      <point x="276" y="318"/>
      <point x="276" y="364" type="curve" smooth="yes"/>
      <point x="276" y="424" type="line" smooth="yes"/>
      <point x="276" y="461"/>
      <point x="257" y="487"/>
      <point x="214" y="487" type="curve" smooth="yes"/>
      <point x="194" y="487"/>
      <point x="173" y="482"/>
      <point x="160" y="478" type="curve" smooth="yes"/>
      <point x="145" y="472"/>
      <point x="128" y="481"/>
      <point x="123" y="497" type="curve" smooth="yes"/>
      <point x="117" y="512"/>
      <point x="126" y="529"/>
    </contour>
    <contour>
      <point x="303" y="387" type="curve" smooth="yes"/>
      <point x="280" y="388"/>
      <point x="261" y="390"/>
      <point x="241" y="390" type="curve" smooth="yes"/>
      <point x="201" y="390"/>
      <point x="174" y="381"/>
      <point x="157" y="365" type="curve"/>
      <point x="158" y="367" type="line"/>
      <point x="151" y="359"/>
      <point x="149" y="352"/>
      <point x="149" y="342" type="curve" smooth="yes"/>
      <point x="149" y="329"/>
      <point x="163" y="318"/>
      <point x="184" y="318" type="curve" smooth="yes"/>
      <point x="226" y="318"/>
      <point x="255" y="334"/>
      <point x="282" y="370" type="curve" smooth="yes"/>
      <point x="291" y="383"/>
      <point x="311" y="386"/>
      <point x="324" y="376" type="curve" smooth="yes"/>
      <point x="337" y="367"/>
      <point x="340" y="347"/>
      <point x="330" y="334" type="curve" smooth="yes"/>
      <point x="291" y="280"/>
      <point x="246" y="258"/>
      <point x="184" y="258" type="curve" smooth="yes"/>
      <point x="111" y="258"/>
      <point x="89" y="307"/>
      <point x="89" y="342" type="curve" smooth="yes"/>
      <point x="89" y="368"/>
      <point x="95" y="389"/>
      <point x="116" y="409" type="curve" smooth="yes"/>
      <point x="116" y="410"/>
      <point x="117" y="410"/>
      <point x="117" y="411" type="curve" smooth="yes"/>
      <point x="144" y="433"/>
      <point x="181" y="450"/>
      <point x="241" y="450" type="curve" smooth="yes"/>
      <point x="261" y="450"/>
      <point x="282" y="448"/>
      <point x="305" y="447" type="curve" smooth="yes"/>
      <point x="321" y="446"/>
      <point x="335" y="432"/>
      <point x="334" y="416" type="curve" smooth="yes"/>
      <point x="333" y="400"/>
      <point x="319" y="386"/>
    </contour>
  </outline>
</glyph>
<glyph name="guillemotleft" format="1">
  <advance width="448"/>
  <unicode hex="00AB"/>
  <outline>
    <contour>
      <point x="271" y="220" type="curve" smooth="yes"/>
      <point x="382" y="96" type="line" smooth="yes"/>
      <point x="393" y="83"/>
      <point x="392" y="61"/>
      <point x="379" y="49" type="curve" smooth="yes"/>
      <point x="366" y="38"/>
      <point x="344" y="39"/>
      <point x="332" y="52" type="curve" smooth="yes"/>
      <point x="221" y="176" type="line" smooth="yes"/>
      <point x="210" y="189"/>
      <point x="211" y="211"/>
      <point x="224" y="223" type="curve" smooth="yes"/>
      <point x="237" y="234"/>
      <point x="259" y="233"/>
    </contour>
    <contour>
      <point x="382" y="304" type="curve" smooth="yes"/>
      <point x="271" y="180" type="line" smooth="yes"/>
      <point x="259" y="167"/>
      <point x="237" y="166"/>
      <point x="224" y="177" type="curve" smooth="yes"/>
      <point x="211" y="189"/>
      <point x="210" y="211"/>
      <point x="221" y="224" type="curve" smooth="yes"/>
      <point x="332" y="348" type="line" smooth="yes"/>
      <point x="344" y="361"/>
      <point x="366" y="362"/>
      <point x="379" y="351" type="curve" smooth="yes"/>
      <point x="392" y="339"/>
      <point x="393" y="317"/>
    </contour>
    <contour>
      <point x="101" y="220" type="curve" smooth="yes"/>
      <point x="212" y="96" type="line" smooth="yes"/>
      <point x="223" y="83"/>
      <point x="222" y="61"/>
      <point x="209" y="49" type="curve" smooth="yes"/>
      <point x="196" y="38"/>
      <point x="174" y="39"/>
      <point x="162" y="52" type="curve" smooth="yes"/>
      <point x="51" y="176" type="line" smooth="yes"/>
      <point x="40" y="189"/>
      <point x="41" y="211"/>
      <point x="54" y="223" type="curve" smooth="yes"/>
      <point x="67" y="234"/>
      <point x="89" y="233"/>
    </contour>
    <contour>
      <point x="212" y="304" type="curve" smooth="yes"/>
      <point x="101" y="180" type="line" smooth="yes"/>
      <point x="89" y="167"/>
      <point x="67" y="166"/>
      <point x="54" y="177" type="curve" smooth="yes"/>
      <point x="41" y="189"/>
      <point x="40" y="211"/>
      <point x="51" y="224" type="curve" smooth="yes"/>
      <point x="162" y="348" type="line" smooth="yes"/>
      <point x="174" y="361"/>
      <point x="196" y="362"/>
      <point x="209" y="351" type="curve" smooth="yes"/>
      <point x="222" y="339"/>
      <point x="223" y="317"/>
    </contour>
  </outline>
</glyph>
<glyph name="logicalnot" format="1">
  <advance width="491"/>
  <unicode hex="00AC"/>
  <outline>
    <contour>
      <point x="114" y="292" type="curve" smooth="yes"/>
      <point x="377" y="292" type="line" smooth="yes"/>
      <point x="395" y="292"/>
      <point x="410" y="277"/>
      <point x="410" y="259" type="curve" smooth="yes"/>
      <point x="410" y="241"/>
      <point x="395" y="226"/>
      <point x="377" y="226" type="curve" smooth="yes"/>
      <point x="114" y="226" type="line" smooth="yes"/>
      <point x="96" y="226"/>
      <point x="81" y="241"/>
      <point x="81" y="259" type="curve" smooth="yes"/>
      <point x="81" y="277"/>
      <point x="96" y="292"/>
    </contour>
    <contour>
      <point x="410" y="253" type="curve" smooth="yes"/>
      <point x="410" y="152" type="line" smooth="yes"/>
      <point x="410" y="134"/>
      <point x="395" y="119"/>
      <point x="377" y="119" type="curve" smooth="yes"/>
      <point x="359" y="119"/>
      <point x="344" y="134"/>
      <point x="344" y="152" type="curve" smooth="yes"/>
      <point x="344" y="253" type="line" smooth="yes"/>
      <point x="344" y="271"/>
      <point x="359" y="286"/>
      <point x="377" y="286" type="curve" smooth="yes"/>
      <point x="395" y="286"/>
      <point x="410" y="271"/>
    </contour>
  </outline>
</glyph>
<glyph name="registered" format="1">
  <advance width="570"/>
  <unicode hex="00AE"/>
  <outline>
    <contour>
      <point x="282" y="570" type="curve" smooth="yes"/>
      <point x="187" y="570"/>
      <point x="123" y="504"/>
      <point x="123" y="410" type="curve" smooth="yes"/>
      <point x="123" y="320"/>
      <point x="188" y="243"/>
      <point x="289" y="243" type="curve" smooth="yes"/>
      <point x="383" y="243"/>
      <point x="453" y="313"/>
      <point x="453" y="407" type="curve" smooth="yes"/>
      <point x="453" y="501"/>
      <point x="383" y="570"/>
    </contour>
    <contour>
      <point x="240" y="414" type="curve" smooth="yes"/>
      <point x="287" y="414" type="line" smooth="yes"/>
      <point x="306" y="414"/>
      <point x="317" y="425"/>
      <point x="317" y="440" type="curve" smooth="yes"/>
      <point x="317" y="457"/>
      <point x="303" y="463"/>
      <point x="287" y="463" type="curve" smooth="yes"/>
      <point x="230" y="463" type="line"/>
      <point x="263" y="496" type="line"/>
      <point x="263" y="320" type="line" smooth="yes"/>
      <point x="263" y="302"/>
      <point x="248" y="287"/>
      <point x="230" y="287" type="curve" smooth="yes"/>
      <point x="212" y="287"/>
      <point x="197" y="302"/>
      <point x="197" y="320" type="curve" smooth="yes"/>
      <point x="197" y="496" type="line" smooth="yes"/>
      <point x="197" y="514"/>
      <point x="212" y="529"/>
      <point x="230" y="529" type="curve" smooth="yes"/>
      <point x="287" y="529" type="line" smooth="yes"/>
      <point x="347" y="529"/>
      <point x="383" y="493"/>
      <point x="383" y="440" type="curve" smooth="yes"/>
      <point x="383" y="391"/>
      <point x="354" y="348"/>
      <point x="287" y="348" type="curve" smooth="yes"/>
      <point x="240" y="348" type="line" smooth="yes"/>
      <point x="222" y="348"/>
      <point x="207" y="363"/>
      <point x="207" y="381" type="curve" smooth="yes"/>
      <point x="207" y="399"/>
      <point x="222" y="414"/>
    </contour>
    <contour>
      <point x="339" y="396" type="curve" smooth="yes"/>
      <point x="386" y="341" type="line" smooth="yes"/>
      <point x="398" y="328"/>
      <point x="396" y="306"/>
      <point x="382" y="295" type="curve" smooth="yes"/>
      <point x="369" y="283"/>
      <point x="347" y="285"/>
      <point x="336" y="299" type="curve" smooth="yes"/>
      <point x="289" y="354" type="line" smooth="yes"/>
      <point x="277" y="367"/>
      <point x="279" y="389"/>
      <point x="293" y="400" type="curve" smooth="yes"/>
      <point x="306" y="412"/>
      <point x="328" y="410"/>
    </contour>
    <contour>
      <point x="282" y="636" type="curve" smooth="yes"/>
      <point x="423" y="636"/>
      <point x="519" y="537"/>
      <point x="519" y="407" type="curve" smooth="yes"/>
      <point x="519" y="275"/>
      <point x="421" y="177"/>
      <point x="289" y="177" type="curve" smooth="yes"/>
      <point x="148" y="177"/>
      <point x="57" y="284"/>
      <point x="57" y="410" type="curve" smooth="yes"/>
      <point x="57" y="544"/>
      <point x="149" y="636"/>
    </contour>
  </outline>
</glyph>
<glyph name="degree" format="1">
  <advance width="369"/>
  <unicode hex="00B0"/>
  <outline>
    <contour>
      <point x="185" y="556" type="curve" smooth="yes"/>
      <point x="269" y="556"/>
      <point x="321" y="496"/>
      <point x="321" y="419" type="curve" smooth="yes"/>
      <point x="321" y="346"/>
      <point x="269" y="287"/>
      <point x="185" y="287" type="curve" smooth="yes"/>
      <point x="100" y="287"/>
      <point x="48" y="345"/>
      <point x="48" y="419" type="curve"/>
      <point x="48" y="494"/>
      <point x="98" y="556"/>
    </contour>
    <contour>
      <point x="185" y="490" type="curve" smooth="yes"/>
      <point x="140" y="490"/>
      <point x="114" y="458"/>
      <point x="114" y="419" type="curve" smooth="yes"/>
      <point x="114" y="381"/>
      <point x="142" y="353"/>
      <point x="185" y="353" type="curve" smooth="yes"/>
      <point x="227" y="353"/>
      <point x="255" y="382"/>
      <point x="255" y="419" type="curve" smooth="yes"/>
      <point x="255" y="458"/>
      <point x="229" y="490"/>
    </contour>
  </outline>
</glyph>
<glyph name="plusminus" format="1">
  <advance width="491"/>
  <unicode hex="00B1"/>
  <outline>
    <contour>
      <point x="92" y="349" type="curve" smooth="yes"/>
      <point x="398" y="349" type="line" smooth="yes"/>
      <point x="416" y="349"/>
      <point x="431" y="334"/>
      <point x="431" y="316" type="curve" smooth="yes"/>
      <point x="431" y="298"/>
      <point x="416" y="283"/>
      <point x="398" y="283" type="curve" smooth="yes"/>
      <point x="92" y="283" type="line" smooth="yes"/>
      <point x="74" y="283"/>
      <point x="59" y="298"/>
      <point x="59" y="316" type="curve" smooth="yes"/>
      <point x="59" y="334"/>
      <point x="74" y="349"/>
    </contour>
    <contour>
      <point x="212" y="207" type="curve" smooth="yes"/>
      <point x="212" y="424" type="line" smooth="yes"/>
      <point x="212" y="442"/>
      <point x="227" y="457"/>
      <point x="245" y="457" type="curve" smooth="yes"/>
      <point x="263" y="457"/>
      <point x="278" y="442"/>
      <point x="278" y="424" type="curve" smooth="yes"/>
      <point x="278" y="207" type="line" smooth="yes"/>
      <point x="278" y="189"/>
      <point x="263" y="174"/>
      <point x="245" y="174" type="curve" smooth="yes"/>
      <point x="227" y="174"/>
      <point x="212" y="189"/>
    </contour>
    <contour>
      <point x="92" y="125" type="curve" smooth="yes"/>
      <point x="398" y="125" type="line" smooth="yes"/>
      <point x="416" y="125"/>
      <point x="431" y="110"/>
      <point x="431" y="92" type="curve" smooth="yes"/>
      <point x="431" y="74"/>
      <point x="416" y="59"/>
      <point x="398" y="59" type="curve" smooth="yes"/>
      <point x="92" y="59" type="line" smooth="yes"/>
      <point x="74" y="59"/>
      <point x="59" y="74"/>
      <point x="59" y="92" type="curve" smooth="yes"/>
      <point x="59" y="110"/>
      <point x="74" y="125"/>
    </contour>
  </outline>
</glyph>
<glyph name="acute" format="1">
  <advance width="500"/>
  <unicode hex="00B4"/>
  <outline>
    <contour>
      <point x="309" y="574" type="curve" smooth="yes"/>
      <point x="277" y="540"/>
      <point x="258" y="518"/>
      <point x="239" y="488" type="curve" smooth="yes"/>
      <point x="229" y="473"/>
      <point x="208" y="469"/>
      <point x="193" y="478" type="curve" smooth="yes"/>
      <point x="178" y="488"/>
      <point x="174" y="509"/>
      <point x="183" y="524" type="curve" smooth="yes"/>
      <point x="204" y="556"/>
      <point x="225" y="582"/>
      <point x="261" y="620" type="curve" smooth="yes"/>
      <point x="273" y="633"/>
      <point x="295" y="633"/>
      <point x="308" y="621" type="curve" smooth="yes"/>
      <point x="321" y="609"/>
      <point x="321" y="587"/>
    </contour>
  </outline>
</glyph>
<glyph name="paragraph" format="1">
  <advance width="566"/>
  <unicode hex="00B6"/>
  <outline>
    <contour>
      <point x="405" y="33" type="curve" smooth="yes"/>
      <point x="405" y="518" type="line"/>
      <point x="438" y="485" type="line"/>
      <point x="250" y="485" type="line" smooth="yes"/>
      <point x="171" y="485"/>
      <point x="115" y="436"/>
      <point x="115" y="364" type="curve" smooth="yes"/>
      <point x="115" y="296"/>
      <point x="161" y="242"/>
      <point x="250" y="242" type="curve" smooth="yes"/>
      <point x="306" y="242" type="line" smooth="yes"/>
      <point x="324" y="242"/>
      <point x="339" y="227"/>
      <point x="339" y="209" type="curve" smooth="yes"/>
      <point x="339" y="191"/>
      <point x="324" y="176"/>
      <point x="306" y="176" type="curve" smooth="yes"/>
      <point x="250" y="176" type="line" smooth="yes"/>
      <point x="113" y="176"/>
      <point x="49" y="262"/>
      <point x="49" y="364" type="curve"/>
      <point x="49" y="472"/>
      <point x="127" y="551"/>
      <point x="250" y="551" type="curve" smooth="yes"/>
      <point x="438" y="551" type="line" smooth="yes"/>
      <point x="456" y="551"/>
      <point x="471" y="536"/>
      <point x="471" y="518" type="curve" smooth="yes"/>
      <point x="471" y="33" type="line" smooth="yes"/>
      <point x="471" y="15"/>
      <point x="456" y="0"/>
      <point x="438" y="0" type="curve" smooth="yes"/>
      <point x="420" y="0"/>
      <point x="405" y="15"/>
    </contour>
    <contour>
      <point x="273" y="33" type="curve" smooth="yes"/>
      <point x="273" y="516" type="line" smooth="yes"/>
      <point x="273" y="534"/>
      <point x="288" y="549"/>
      <point x="306" y="549" type="curve" smooth="yes"/>
      <point x="324" y="549"/>
      <point x="339" y="534"/>
      <point x="339" y="516" type="curve" smooth="yes"/>
      <point x="339" y="33" type="line" smooth="yes"/>
      <point x="339" y="15"/>
      <point x="324" y="0"/>
      <point x="306" y="0" type="curve" smooth="yes"/>
      <point x="288" y="0"/>
      <point x="273" y="15"/>
    </contour>
  </outline>
</glyph>
<glyph name="cedilla" format="1">
  <advance width="500"/>
  <unicode hex="00B8"/>
  <outline>
    <contour>
      <point x="316" y="-103" type="curve" smooth="yes"/>
      <point x="291" y="-128"/>
      <point x="251" y="-167"/>
      <point x="228" y="-190" type="curve" smooth="yes"/>
      <point x="216" y="-203"/>
      <point x="194" y="-203"/>
      <point x="182" y="-190" type="curve" smooth="yes"/>
      <point x="169" y="-178"/>
      <point x="169" y="-156"/>
      <point x="182" y="-144" type="curve" smooth="yes"/>
      <point x="205" y="-121"/>
      <point x="245" y="-82"/>
      <point x="270" y="-57" type="curve" smooth="yes"/>
      <point x="282" y="-44"/>
      <point x="304" y="-44"/>
      <point x="316" y="-57" type="curve" smooth="yes"/>
      <point x="329" y="-69"/>
      <point x="329" y="-91"/>
    </contour>
  </outline>
</glyph>
<glyph name="ordmasculine" format="1">
  <advance width="448"/>
  <unicode hex="00BA"/>
  <outline>
    <contour>
      <point x="224" y="544" type="curve" smooth="yes"/>
      <point x="313" y="544"/>
      <point x="370" y="476"/>
      <point x="370" y="395" type="curve" smooth="yes"/>
      <point x="370" y="312"/>
      <point x="313" y="250"/>
      <point x="224" y="250" type="curve" smooth="yes"/>
      <point x="135" y="250"/>
      <point x="77" y="312"/>
      <point x="77" y="395" type="curve" smooth="yes"/>
      <point x="77" y="476"/>
      <point x="133" y="544"/>
    </contour>
    <contour>
      <point x="224" y="478" type="curve" smooth="yes"/>
      <point x="173" y="478"/>
      <point x="143" y="440"/>
      <point x="143" y="395" type="curve" smooth="yes"/>
      <point x="143" y="350"/>
      <point x="175" y="316"/>
      <point x="224" y="316" type="curve" smooth="yes"/>
      <point x="273" y="316"/>
      <point x="304" y="350"/>
      <point x="304" y="395" type="curve" smooth="yes"/>
      <point x="304" y="440"/>
      <point x="273" y="478"/>
    </contour>
    <contour>
      <point x="103" y="201" type="curve" smooth="yes"/>
      <point x="352" y="201" type="line" smooth="yes"/>
      <point x="370" y="201"/>
      <point x="385" y="186"/>
      <point x="385" y="168" type="curve" smooth="yes"/>
      <point x="385" y="150"/>
      <point x="370" y="135"/>
      <point x="352" y="135" type="curve" smooth="yes"/>
      <point x="103" y="135" type="line" smooth="yes"/>
      <point x="85" y="135"/>
      <point x="70" y="150"/>
      <point x="70" y="168" type="curve" smooth="yes"/>
      <point x="70" y="186"/>
      <point x="85" y="201"/>
    </contour>
  </outline>
</glyph>
<glyph name="guillemotright" format="1">
  <advance width="448"/>
  <unicode hex="00BB"/>
  <outline>
    <contour>
      <point x="91" y="68" type="move"/>
      <point x="202" y="192" type="line"/>
    </contour>
    <contour>
      <point x="202" y="196" type="move"/>
      <point x="91" y="320" type="line"/>
    </contour>
    <contour>
      <point x="261" y="68" type="move"/>
      <point x="372" y="192" type="line"/>
    </contour>
    <contour>
      <point x="372" y="196" type="move"/>
      <point x="261" y="320" type="line"/>
    </contour>
  </outline>
</glyph>
<glyph name="onequarter" format="1">
  <advance width="724"/>
  <unicode hex="00BC"/>
  <outline>
    <contour>
      <point x="523" y="503" type="curve" smooth="yes"/>
      <point x="240" y="18" type="line" smooth="yes"/>
      <point x="232" y="4"/>
      <point x="213" y="-1"/>
      <point x="199" y="7" type="curve" smooth="yes"/>
      <point x="185" y="15"/>
      <point x="180" y="34"/>
      <point x="188" y="48" type="curve" smooth="yes"/>
      <point x="471" y="533" type="line" smooth="yes"/>
      <point x="479" y="547"/>
      <point x="498" y="552"/>
      <point x="512" y="544" type="curve" smooth="yes"/>
      <point x="526" y="536"/>
      <point x="531" y="517"/>
    </contour>
    <contour>
      <point x="590" y="294" type="curve" smooth="yes"/>
      <point x="590" y="34" type="line" smooth="yes"/>
      <point x="590" y="18"/>
      <point x="576" y="4"/>
      <point x="560" y="4" type="curve" smooth="yes"/>
      <point x="544" y="4"/>
      <point x="530" y="18"/>
      <point x="530" y="34" type="curve" smooth="yes"/>
      <point x="530" y="294" type="line" smooth="yes"/>
      <point x="530" y="310"/>
      <point x="544" y="324"/>
      <point x="560" y="324" type="curve" smooth="yes"/>
      <point x="576" y="324"/>
      <point x="590" y="310"/>
    </contour>
    <contour>
      <point x="579" y="269" type="curve" smooth="yes"/>
      <point x="425" y="89" type="line" smooth="yes"/>
      <point x="414" y="77"/>
      <point x="395" y="76"/>
      <point x="382" y="86" type="curve" smooth="yes"/>
      <point x="370" y="97"/>
      <point x="369" y="116"/>
      <point x="379" y="129" type="curve" smooth="yes"/>
      <point x="533" y="309" type="line" smooth="yes"/>
      <point x="544" y="321"/>
      <point x="563" y="322"/>
      <point x="576" y="312" type="curve" smooth="yes"/>
      <point x="588" y="301"/>
      <point x="589" y="282"/>
    </contour>
    <contour>
      <point x="407" y="139" type="curve" smooth="yes"/>
      <point x="622" y="139" type="line" smooth="yes"/>
      <point x="638" y="139"/>
      <point x="652" y="125"/>
      <point x="652" y="109" type="curve" smooth="yes"/>
      <point x="652" y="93"/>
      <point x="638" y="79"/>
      <point x="622" y="79" type="curve" smooth="yes"/>
      <point x="407" y="79" type="line" smooth="yes"/>
      <point x="391" y="79"/>
      <point x="377" y="93"/>
      <point x="377" y="109" type="curve" smooth="yes"/>
      <point x="377" y="125"/>
      <point x="391" y="139"/>
    </contour>
    <contour>
      <point x="237" y="525" type="curve" smooth="yes"/>
      <point x="237" y="267" type="line" smooth="yes"/>
      <point x="237" y="251"/>
      <point x="223" y="237"/>
      <point x="207" y="237" type="curve" smooth="yes"/>
      <point x="191" y="237"/>
      <point x="177" y="251"/>
      <point x="177" y="267" type="curve" smooth="yes"/>
      <point x="177" y="525" type="line" smooth="yes"/>
      <point x="177" y="541"/>
      <point x="191" y="555"/>
      <point x="207" y="555" type="curve" smooth="yes"/>
      <point x="223" y="555"/>
      <point x="237" y="541"/>
    </contour>
    <contour>
      <point x="221" y="502" type="curve" smooth="yes"/>
      <point x="139" y="458" type="line" smooth="yes"/>
      <point x="125" y="450"/>
      <point x="106" y="456"/>
      <point x="99" y="470" type="curve" smooth="yes"/>
      <point x="91" y="484"/>
      <point x="97" y="503"/>
      <point x="111" y="510" type="curve" smooth="yes"/>
      <point x="193" y="554" type="line" smooth="yes"/>
      <point x="207" y="562"/>
      <point x="226" y="556"/>
      <point x="233" y="542" type="curve" smooth="yes"/>
      <point x="241" y="528"/>
      <point x="235" y="509"/>
    </contour>
  </outline>
</glyph>
